<?xml version="1.0" encoding="UTF-8" standalone="no"?>
<svg
   xmlns:dc="http://purl.org/dc/elements/1.1/"
   xmlns:cc="http://creativecommons.org/ns#"
   xmlns:rdf="http://www.w3.org/1999/02/22-rdf-syntax-ns#"
   xmlns:svg="http://www.w3.org/2000/svg"
   xmlns="http://www.w3.org/2000/svg"
   xmlns:sodipodi="http://sodipodi.sourceforge.net/DTD/sodipodi-0.dtd"
   xmlns:inkscape="http://www.inkscape.org/namespaces/inkscape"
   enable-background="new 0 0 128 128"
   id="Слой_1"
   version="1.1"
   viewBox="0 0 128 128"
   xml:space="preserve"
   inkscape:version="0.91 r13725"
   sodipodi:docname="b.svg"
   inkscape:export-filename="/home/adverick/Projects/Prj-UnitexGramlab/UnitexWebFlat/unitexgramlab-org/user/themes/unitexgramlab/images/b.png"
   inkscape:export-xdpi="135"
   inkscape:export-ydpi="135"><metadata
     id="metadata59"><rdf:RDF><cc:Work
         rdf:about=""><dc:format>image/svg+xml</dc:format><dc:type
           rdf:resource="http://purl.org/dc/dcmitype/StillImage" /><dc:title></dc:title></cc:Work></rdf:RDF></metadata><defs
     id="defs57" /><sodipodi:namedview
     pagecolor="#ffffff"
     bordercolor="#666666"
     borderopacity="1"
     objecttolerance="10"
     gridtolerance="10"
     guidetolerance="10"
     inkscape:pageopacity="0"
     inkscape:pageshadow="2"
     inkscape:window-width="1366"
     inkscape:window-height="706"
     id="namedview55"
     showgrid="false"
     inkscape:zoom="2.6074563"
     inkscape:cx="36.457227"
     inkscape:cy="56.813332"
     inkscape:window-x="0"
     inkscape:window-y="37"
     inkscape:window-maximized="1"
     inkscape:current-layer="Слой_1" /><circle
     cx="64"
     cy="64"
     fill="#DCD9A0"
     r="62"
     id="circle3" /><path
     style="opacity:0.93699999;fill:#ffffff;fill-opacity:1;stroke:none"
     id="path43-3-4"
     d="m 36.007049,86.272543 c -0.155642,-0.732923 0.161685,-1.933718 0.650404,-2.707149 1.338383,-1.886664 3.269146,-2.124821 4.805489,-0.523113 0.615684,0.687338 1.546674,1.06279 2.003834,0.900534 0.708498,-0.257331 0.652011,-0.696077 -0.360355,-2.56018 -0.675004,-1.242735 -1.047574,-2.37514 -0.774935,-2.542476 0.27262,-0.167386 1.948935,2.472879 4.431693,7.044389 2.482758,4.571494 3.795489,7.434854 3.522852,7.602206 -0.272639,0.167386 -0.671412,-0.120573 -0.936569,-0.608758 -0.433892,-0.798912 -0.800207,-0.692434 -4.344737,1.483053 -3.13553,1.924493 -3.934873,2.237604 -4.224163,1.705007 -0.192865,-0.355086 0,-0.888891 0.410987,-1.139901 0.545257,-0.334703 0.625133,-0.857143 0.260805,-1.639522 -0.632337,-1.387303 -0.371533,-3.026824 0.491898,-3.55676 0.363569,-0.22313 0.804922,-0.07981 0.997788,0.275281 0.192865,0.355069 0.67965,0.470529 1.043219,0.247399 0.545274,-0.334686 0.320054,-1.084124 -1.078043,-3.658367 -1.928311,-3.550695 -2.747053,-4.054202 -4.610259,-2.910672 -1.408687,0.864621 -1.862357,2.149075 -1.235617,3.303055 0.313335,0.576973 0.636965,0.615062 1.040386,0.130767 0.603851,-0.784851 2.670891,-1.106668 3.032473,-0.440923 0.241025,0.443841 -0.308223,2.556295 -0.808067,2.8631 -1.454205,0.892519 -3.825096,-0.907081 -4.319083,-3.266934 z m 3.652405,2.374172 c 0.729901,-0.32959 0.951529,-0.702365 0.710502,-1.146207 -0.265157,-0.488219 -0.794626,-0.459111 -1.567195,0.01555 -1.408687,0.864621 -0.717981,1.801777 0.856693,1.131177 z m 5.758244,3.685557 2.726531,-1.673466 -1.566729,-2.884935 c -1.229348,-2.263549 -1.703177,-2.801259 -2.248434,-2.466554 -0.499948,0.306789 -0.416584,0.906562 0.234306,2.10492 0.506184,0.932061 0.860199,2.253376 0.737743,2.920347 -0.159613,1.044843 -0.317308,1.200777 -1.218672,1.103039 -0.577716,-0.05977 -1.209206,-0.441405 -1.401968,-0.796475 -0.313422,-0.57699 -0.44968,-0.493315 -0.754016,0.285213 -0.194748,0.533806 -0.127138,1.439177 0.186129,2.016167 0.554447,1.020815 0.714854,0.981534 3.30511,-0.608256 z"
     inkscape:connector-curvature="0" /><g
     transform="matrix(0.03177148,0.01950014,-0.01580881,0.02910857,-42.847626,92.426174)"
     style="font-style:normal;font-variant:normal;font-weight:bold;font-stretch:normal;font-size:265.84481812px;line-height:125%;font-family:'Times New Roman';-inkscape-font-specification:'Times New Roman';text-align:center;letter-spacing:0px;word-spacing:0px;writing-mode:lr-tb;text-anchor:middle;opacity:0.487;fill:#252525;fill-opacity:1;stroke:none;stroke-width:1px;stroke-linecap:butt;stroke-linejoin:miter;stroke-opacity:1"
     id="text4492-2-3"><path
       d="m 1179.056,-1186.659 56.4921,0 137.4916,259.40646 0,-259.40646 40.7075,0 0,310.08313 -56.492,0 -137.4917,-259.40643 0,259.40643 -40.7075,0 0,-310.08313 z m 116.5148,-45.069 -11.8384,-6.8538 q -5.1922,-2.9077 -8.5153,-3.9461 -3.1154,-1.2462 -5.6077,-1.2462 -7.4769,0 -11.6307,5.1923 -4.1538,5.1923 -4.1538,14.5384 l 0,1.2461 -25.9614,0 q 0,-20.9768 10.5922,-33.2306 10.8,-12.2538 28.6614,-12.2538 7.4769,0 13.7077,1.6616 6.4384,1.6615 16.4076,7.2692 l 11.8384,6.2307 q 4.7769,2.7 8.3076,3.9461 3.5308,1.2462 6.6462,1.2462 6.6461,0 10.7999,-5.1923 4.1538,-5.4 4.1538,-13.9153 l 0,-1.2462 25.9614,0 q -0.4153,20.7692 -11.2153,33.2307 -10.5922,12.2537 -28.0383,12.2537 -7.0615,0 -13.2923,-1.6615 -6.023,-1.6615 -16.823,-7.2692 z"
       style="font-style:normal;font-variant:normal;font-weight:500;font-stretch:normal;font-size:425.35177612px;font-family:'Unifont Upper';-inkscape-font-specification:'Unifont Upper Medium';fill:#252525;fill-opacity:1"
       id="path4251-7"
       inkscape:connector-curvature="0" /></g><g
     transform="matrix(0.03534716,0,0,0.0348853,77.261361,122.2347)"
     style="font-style:normal;font-variant:normal;font-weight:bold;font-stretch:normal;font-size:430.631073px;line-height:125%;font-family:'Times New Roman';-inkscape-font-specification:'Times New Roman';text-align:center;letter-spacing:0px;word-spacing:0px;writing-mode:lr-tb;text-anchor:middle;opacity:0.487;fill:#252525;fill-opacity:1;stroke:none;stroke-width:1px;stroke-linecap:butt;stroke-linejoin:miter;stroke-opacity:1"
     id="text4492-2-5-9-7-1"><path
       d="m 844.19174,-1185.8699 c 10.50895,0 19.91169,8.02 19.91169,19.9117 0,10.509 -8.01999,19.9117 -19.91169,19.9117 -10.50896,0 -19.9117,-8.02 -19.9117,-19.9117 0,-10.5089 8.01999,-19.9117 19.9117,-19.9117 z m 232.30316,304.20653 c 31.2503,0 56.4165,-24.88962 56.4165,-56.41648 0,-35.67512 -29.3145,-53.65096 -45.3545,-53.92751 l 0,-227.60174 -50.0558,0 0,228.98449 c -52.26817,11.89171 -94.58053,30.6972 -126.93704,56.13993 l 0,-219.02872 c 0,-34.0158 -20.74135,-68.8613 -66.37232,-68.8613 -31.25031,0 -56.41648,24.8897 -56.41648,56.4165 0,31.2503 24.88962,56.4165 56.41648,56.4165 9.67929,0 14.65722,-0.2765 14.93377,-0.8296 l 0,223.1769 50.6089,0 c 44.80132,-30.1441 81.58265,-48.11993 110.34399,-53.65096 0,37.05788 27.102,59.18199 56.4165,59.18199 z m 0,-76.32818 c 10.5089,0 19.9117,8.01999 19.9117,19.9117 0,10.50895 -8.02,19.9117 -19.9117,19.9117 -10.509,0 -19.9117,-8.01999 -19.9117,-19.9117 0,-10.50895 8.02,-19.9117 19.9117,-19.9117 z"
       style="font-style:normal;font-variant:normal;font-weight:500;font-stretch:normal;font-size:566.37719727px;font-family:'Unifont Upper';-inkscape-font-specification:'Unifont Upper Medium';fill:#252525;fill-opacity:1"
       id="path4239-9-1"
       inkscape:connector-curvature="0" /></g><g
     id="g5"><g
       id="g7"><g
         id="g9"><path
           d="M64,126c17.7,0,33.7-7.5,45-19.4V68.2L64.3,44l-15.8,8.4l-3.4,3.8l-7.4,1.9L19,68.2v38.4     C30.3,118.5,46.3,126,64,126z"
           id="path11"
           fill="#B28E6E" /></g><g
         id="g13"><polygon
           points="37.7,58.2 81.5,83.1 81.5,93.2 92.6,87.1 92.6,77 48.6,52.4    "
           id="polygon15"
           fill="#E8E7E7" /></g><g
         id="g17"><path
           d="M20,69.9l43.9,23.4c0.5,0.3,1.1,0.1,1.4-0.4c0.3-0.5,0.1-1.1-0.4-1.4L19.5,67.3c-0.3-0.2-0.7-0.2-1,0     c-0.3,0.2-0.5,0.5-0.5,0.9v37.4c0.6,0.7,1.3,1.4,2,2.1V69.9z"
           id="path19"
           fill="#252525" /><path
           d="M109,67.2c-0.6,0-1,0.4-1,1v39.5c0.7-0.7,1.4-1.4,2-2.1V68.2C110,67.6,109.6,67.2,109,67.2z"
           id="path21"
           fill="#252525" /></g><g
         id="g23"
         opacity="0.2"><path
           d="M109,106.6V68.2L64.3,92.4V126C81.9,125.9,97.8,118.5,109,106.6z"
           id="path25"
           fill="#0C0E0E" /></g><g
         id="g27"><polygon
           points="37.7,58.2 37.7,58.2 48.1,52.6    "
           id="polygon29"
           fill="#FFFFFF" /></g><g
         id="g31"><path
           d="M20,68.8l18.2-9.7c0.5-0.3,0.7-0.9,0.4-1.4c-0.3-0.5-0.9-0.7-1.4-0.4l-18.7,10c-0.3,0.2-0.5,0.5-0.5,0.9     v37.4c0.6,0.7,1.3,1.4,2,2.1V68.8z"
           id="path33"
           fill="#252525" /><path
           d="M109.5,67.3L64.8,43.1c-0.3-0.2-0.7-0.2-0.9,0l-15.8,8.4c-0.5,0.3-0.7,0.9-0.4,1.4     c0.3,0.5,0.9,0.7,1.4,0.4l15.3-8.2L108,68.8v38.9c0.7-0.7,1.4-1.4,2-2.1V68.2C110,67.8,109.8,67.5,109.5,67.3z"
           id="path35"
           fill="#252525" /></g><g
         id="g37"><path
           d="M93.1,76.1L49,51.6c-0.3-0.2-0.7-0.2-1,0l-10.8,5.8c-0.3,0.2-0.5,0.5-0.5,0.9s0.2,0.7,0.5,0.9l43.2,24.6     v9.5c0,0.4,0.2,0.7,0.5,0.9c0.2,0.1,0.3,0.1,0.5,0.1c0.2,0,0.3,0,0.5-0.1L93.1,88c0.3-0.2,0.5-0.5,0.5-0.9V77     C93.6,76.6,93.4,76.3,93.1,76.1z M91.6,86.5l-9.2,5v-8.4c0-0.4-0.2-0.7-0.5-0.9l-42.2-24l8.8-4.7l43.1,24V86.5z"
           id="path39"
           fill="#252525" /></g><g
         id="g41"><path
           d="M20,69.9l43.9,23.4c0.3,0.2,0.7,0.2,0.9,0l16.7-9.1c0.5-0.3,0.7-0.9,0.4-1.4c-0.3-0.5-0.9-0.7-1.4-0.4     l-16.2,8.8L19.5,67.3c-0.3-0.2-0.7-0.2-1,0c-0.3,0.2-0.5,0.5-0.5,0.9v37.4c0.6,0.7,1.3,1.4,2,2.1V69.9z"
           id="path43"
           fill="#252525" /><path
           d="M109.5,67.3c-0.3-0.2-0.7-0.2-1,0l-16.4,8.9c-0.5,0.3-0.7,0.9-0.4,1.4c0.3,0.5,0.9,0.7,1.4,0.4l14.9-8.1     v37.8c0.7-0.7,1.4-1.4,2-2.1V68.2C110,67.8,109.8,67.5,109.5,67.3z"
           id="path45"
           fill="#252525" /></g><g
         id="g47"><path
           d="M47.7,51.8l-10.4,5.6c-0.3,0.2-0.5,0.5-0.5,0.9c0,0.2,0,0.3,0.1,0.5c0.2,0.3,0.5,0.5,0.9,0.5     c0.2,0,0.3,0,0.5-0.1l10.4-5.6c0.3-0.2,0.5-0.5,0.5-0.9c0-0.2,0-0.3-0.1-0.5C48.8,51.7,48.2,51.5,47.7,51.8z"
           id="path49"
           fill="#252525" /></g><g
         id="g51"><path
           d="M64.3,91.4c-0.6,0-1,0.4-1,1V126c0.2,0,0.4,0,0.7,0c0.5,0,0.9,0,1.3,0V92.4     C65.3,91.9,64.9,91.4,64.3,91.4z"
           id="path53"
           fill="#252525" /></g></g></g><path
     style="opacity:0.487;fill:#252525;fill-opacity:1;stroke:none"
     id="path43-3-44"
     d="m 26.506194,18.386665 c -0.155813,-0.732941 0.161513,-1.933723 0.650405,-2.707148 1.338365,-1.886661 3.269043,-2.124821 4.805471,-0.523122 0.615686,0.687337 1.546675,1.062789 2.003834,0.900533 0.708516,-0.257323 0.652012,-0.696073 -0.360459,-2.560185 -0.6749,-1.24274 -1.047468,-2.375121 -0.774831,-2.542468 0.272621,-0.167352 1.948936,2.472867 4.431695,7.04439 2.482758,4.571504 3.795488,7.43486 3.52285,7.602205 -0.272724,0.167353 -0.67141,-0.120543 -0.936569,-0.608755 -0.433891,-0.79892 -0.800205,-0.692438 -4.344735,1.483058 -3.135532,1.924487 -3.93496,2.237594 -4.224164,1.704999 -0.192865,-0.355087 0,-0.888886 0.410986,-1.139907 0.545259,-0.334692 0.625048,-0.857126 0.260701,-1.639521 -0.632232,-1.387302 -0.371428,-3.026823 0.492002,-3.556749 0.363568,-0.223132 0.804939,-0.07977 0.997788,0.275284 0.192865,0.355065 0.67965,0.470517 1.043219,0.247385 0.545276,-0.334691 0.320055,-1.08412 -1.078044,-3.658365 -1.928397,-3.550694 -2.747156,-4.054191 -4.610256,-2.910661 -1.408792,0.86462 -1.862359,2.149074 -1.235602,3.303041 0.313319,0.576988 0.636967,0.615069 1.040369,0.13073 0.603851,-0.784836 2.670891,-1.10667 3.032473,-0.440908 0.241027,0.443833 -0.308204,2.556286 -0.808152,2.863091 -1.454102,0.89251 -3.825096,-0.907091 -4.318981,-3.266931 z m 3.65239,2.374177 c 0.729901,-0.329603 0.951527,-0.702377 0.710502,-1.146208 -0.265159,-0.488224 -0.794628,-0.459125 -1.567196,0.01503 -1.408687,0.864621 -0.717964,1.801778 0.856694,1.13118 z m 5.758243,3.685551 2.726531,-1.673466 -1.566815,-2.88494 c -1.229261,-2.263552 -1.703091,-2.801259 -2.248453,-2.466566 -0.499844,0.306806 -0.416479,0.906581 0.234411,2.104941 0.506182,0.932054 0.860199,2.253379 0.737742,2.92034 -0.159612,1.044829 -0.317291,1.200781 -1.218671,1.103038 -0.577717,-0.05961 -1.20919,-0.44142 -1.402056,-0.796488 -0.313334,-0.576977 -0.449697,-0.493313 -0.753929,0.28522 -0.194748,0.533817 -0.127138,1.439187 0.186129,2.016175 0.554447,1.02082 0.714856,0.98154 3.305111,-0.608254 z"
     inkscape:connector-curvature="0" /><g
     transform="matrix(-0.03352603,0,0,-0.03678026,120.6705,66.083391)"
     style="font-style:normal;font-variant:normal;font-weight:bold;font-stretch:normal;font-size:268.8117981px;line-height:125%;font-family:'Times New Roman';-inkscape-font-specification:'Times New Roman';text-align:center;letter-spacing:0px;word-spacing:0px;writing-mode:lr-tb;text-anchor:middle;opacity:0.487;fill:#252525;fill-opacity:1;stroke:none;stroke-width:1px;stroke-linecap:butt;stroke-linejoin:miter;stroke-opacity:1"
     id="text4492-2-5-8"><path
       d="m 891.8389,554.94366 -162.96718,0 -3.57016,-10.71048 166.53734,0 0,-95.13419 q 45.15199,0.84004 45.15199,11.3405 0,5.88026 -19.32085,12.39054 l 0,71.40315 114.45506,0 24.9911,-33.18146 q 17.4308,18.27081 30.4513,35.70158 l -4.8302,8.19036 -165.06726,0 0,271.75198 -25.83114,0 0,-271.75198 z m -166.32733,228.91009 -7.35033,-8.61038 q 73.50324,-65.10287 124.7455,-177.66783 34.44152,12.60055 34.44152,20.16089 0,5.88025 -18.48081,7.77034 -47.88211,95.76422 -133.35588,158.34698 z m 354.70563,-13.02057 q -44.522,-29.61131 -85.05374,-77.28341 -33.18146,-38.85171 -58.17257,-83.58369 l 8.19036,-7.35032 q 30.03133,43.68193 74.76335,83.16367 39.9017,35.07154 82.7436,58.80259 -13.8606,10.92048 -22.471,26.25116 z"
       style="font-style:normal;font-variant:normal;font-weight:normal;font-stretch:normal;font-size:430.09896851px;font-family:sans-serif;-inkscape-font-specification:sans-serif;fill:#252525;fill-opacity:1"
       id="path4245"
       inkscape:connector-curvature="0" /></g><g
     transform="matrix(-0.01634907,0.03010331,-0.03072161,-0.01885576,50.993578,-12.170976)"
     style="font-style:normal;font-variant:normal;font-weight:bold;font-stretch:normal;font-size:282.61685181px;line-height:125%;font-family:'Times New Roman';-inkscape-font-specification:'Times New Roman';text-align:center;letter-spacing:0px;word-spacing:0px;writing-mode:lr-tb;text-anchor:middle;opacity:0.487;fill:#252525;fill-opacity:1;stroke:none;stroke-width:1px;stroke-linecap:butt;stroke-linejoin:miter;stroke-opacity:1"
     id="text4492-2-5-3-4"><path
       d="m 1890.3863,283.14169 -147.4907,-215.937005 48.1332,0 85.4475,125.190475 q 0.8831,-0.66239 2.4287,-1.76636 5.2991,-3.7535 8.1694,-6.18224 2.8703,-2.42874 7.7278,-8.1694 4.8575,-5.74066 7.507,-11.70211 2.6496,-6.18224 4.6367,-16.118 2.2079,-9.93575 2.2079,-22.07944 l 0,-59.172925 40.6262,0 0,40.846975 q 0,16.3388 -1.9871,30.24885 -1.9872,13.68926 -4.8575,23.40421 -2.8703,9.71496 -7.9486,18.32595 -5.0783,8.39019 -9.2734,13.46846 -4.1951,5.07827 -11.0397,10.37734 -6.6238,5.07827 -10.5981,7.50701 -3.9743,2.20795 -10.5982,5.74066 l 57.1858,81.69396 0,15.67641 -207.7676,0 0,-31.35282 147.4907,0 z"
       style="font-style:normal;font-variant:normal;font-weight:500;font-stretch:normal;font-size:452.18710327px;font-family:'Unifont Upper';-inkscape-font-specification:'Unifont Upper Medium';fill:#252525;fill-opacity:1"
       id="path4248"
       inkscape:connector-curvature="0" /></g><g
     transform="matrix(0,0.04059199,-0.03037783,0,53.078113,-55.251329)"
     style="font-style:normal;font-variant:normal;font-weight:bold;font-stretch:normal;font-size:276.40148926px;line-height:125%;font-family:'Times New Roman';-inkscape-font-specification:'Times New Roman';text-align:center;letter-spacing:0px;word-spacing:0px;writing-mode:lr-tb;text-anchor:middle;opacity:0.487;fill:#252525;fill-opacity:1;stroke:none;stroke-width:1px;stroke-linecap:butt;stroke-linejoin:miter;stroke-opacity:1"
     id="text4492-2-5-3-4-6-1"><path
       d="m 1522.833,-403.05965 203.8462,0 0,36.70959 -160.2265,0 0,95.44492 153.5324,0 0,36.70959 -153.5324,0 0,116.82286 164.1134,0 0,36.709589 -207.7331,0 0,-322.396549 z m 150.9412,322.396549 25.6967,0 q -9.7172,13.172263 -14.4679,22.673568 -4.5347,9.501305 -4.5347,16.195406 0,9.933183 5.8304,14.899774 6.0463,4.966591 17.7069,4.966591 6.9101,0 13.6042,-1.72751 6.6941,-1.511571 13.3882,-4.750652 l 0,28.7198529 q -8.2057,2.1593875 -15.5476,3.2390812 -7.3419,1.0796937 -13.8201,1.0796937 -26.3445,0 -38.869,-9.5013048 -12.3085,-9.285366 -12.3085,-29.36767 0,-10.365059 5.6144,-21.809813 5.8304,-11.228815 17.707,-24.617017 z"
       style="font-style:normal;font-variant:normal;font-weight:500;font-stretch:normal;font-size:442.24255371px;font-family:'Unifont Upper';-inkscape-font-specification:'Unifont Upper Medium';fill:#252525;fill-opacity:1"
       id="path4254-4"
       inkscape:connector-curvature="0" /></g><g
     transform="matrix(-0.02986649,0.01833091,-0.01681718,-0.03096521,92.064023,33.883789)"
     style="font-style:normal;font-variant:normal;font-weight:bold;font-stretch:normal;font-size:334.26885986px;line-height:125%;font-family:'Times New Roman';-inkscape-font-specification:'Times New Roman';text-align:center;letter-spacing:0px;word-spacing:0px;writing-mode:lr-tb;text-anchor:middle;opacity:0.487;fill:#252525;fill-opacity:1;stroke:none;stroke-width:1px;stroke-linecap:butt;stroke-linejoin:miter;stroke-opacity:1"
     id="text4492-2-5-3-0"><path
       d="m 1509.1848,663.72862 q -6.2675,46.74542 -28.2039,74.68821 -34.7326,44.39509 -85.1341,60.58624 -20.8918,6.78984 -52.2295,6.78984 -33.4269,-0.26115 -61.892,-7.57328 -71.8156,-18.54148 -71.8156,-104.19789 0,-64.2423 27.4205,-111.24887 l 48.0512,0 q -28.204,53.7964 -27.9428,111.24887 0.2611,46.74542 38.6498,56.66903 24.809,6.26754 45.962,6.26754 25.5925,0 50.4015,-9.66246 31.5988,-12.53508 56.1467,-53.7964 16.7134,-28.20394 16.4523,-65.2869 -0.2611,-32.64345 -4.4395,-48.57345 l -16.7135,-61.10854 48.0512,0 9.4013,40.73903 q 4.1784,19.32492 11.4905,34.99377 15.4077,33.68804 45.4397,33.68804 21.4141,0 32.9046,-31.86 9.6624,-26.8982 9.6624,-77.56084 l 48.0512,0 q 0,53.53526 4.9618,66.59264 16.7135,44.13394 45.4397,44.13394 37.0829,0 37.0829,-73.12132 l 0,-76.7774 48.0512,0 0,89.31248 q 0,51.96837 -24.0256,81.47805 -19.586,24.02558 -46.2231,30.29312 -9.6625,2.35033 -18.0192,2.35033 -19.0638,0 -31.5988,-6.52869 -36.0384,-18.28033 -40.4779,-50.40149 -12.7962,41.52247 -37.6053,49.3569 -13.0574,3.91721 -31.3377,4.70065 -34.4715,1.56689 -45.962,-16.19115 z m 25.8537,-301.88661 39.1721,0 0,39.17214 -39.1721,0 0,-39.17214 z m 32.6434,65.2869 39.1721,0 0,39.17214 -39.1721,0 0,-39.17214 z m -65.2869,0 39.1721,0 0,39.17214 -39.1721,0 0,-39.17214 z"
       style="font-style:normal;font-variant:normal;font-weight:500;font-stretch:normal;font-size:534.83026123px;font-family:'Unifont Upper';-inkscape-font-specification:'Unifont Upper Medium';fill:#252525;fill-opacity:1"
       id="path4257"
       inkscape:connector-curvature="0" /></g><g
     transform="matrix(0.03534716,0,0,0.0348853,58.670717,54.553721)"
     style="font-style:normal;font-variant:normal;font-weight:bold;font-stretch:normal;font-size:430.631073px;line-height:125%;font-family:'Times New Roman';-inkscape-font-specification:'Times New Roman';text-align:center;letter-spacing:0px;word-spacing:0px;writing-mode:lr-tb;text-anchor:middle;opacity:0.487;fill:#252525;fill-opacity:1;stroke:none;stroke-width:1px;stroke-linecap:butt;stroke-linejoin:miter;stroke-opacity:1"
     id="text4492-2-5-9-76"><path
       d="m 844.19174,-1185.8699 c 10.50895,0 19.91169,8.02 19.91169,19.9117 0,10.509 -8.01999,19.9117 -19.91169,19.9117 -10.50896,0 -19.9117,-8.02 -19.9117,-19.9117 0,-10.5089 8.01999,-19.9117 19.9117,-19.9117 z m 232.30316,304.20653 c 31.2503,0 56.4165,-24.88962 56.4165,-56.41648 0,-35.67512 -29.3145,-53.65096 -45.3545,-53.92751 l 0,-227.60174 -50.0558,0 0,228.98449 c -52.26817,11.89171 -94.58053,30.6972 -126.93704,56.13993 l 0,-219.02872 c 0,-34.0158 -20.74135,-68.8613 -66.37232,-68.8613 -31.25031,0 -56.41648,24.8897 -56.41648,56.4165 0,31.2503 24.88962,56.4165 56.41648,56.4165 9.67929,0 14.65722,-0.2765 14.93377,-0.8296 l 0,223.1769 50.6089,0 c 44.80132,-30.1441 81.58265,-48.11993 110.34399,-53.65096 0,37.05788 27.102,59.18199 56.4165,59.18199 z m 0,-76.32818 c 10.5089,0 19.9117,8.01999 19.9117,19.9117 0,10.50895 -8.02,19.9117 -19.9117,19.9117 -10.509,0 -19.9117,-8.01999 -19.9117,-19.9117 0,-10.50895 8.02,-19.9117 19.9117,-19.9117 z"
       style="font-style:normal;font-variant:normal;font-weight:500;font-stretch:normal;font-size:566.37719727px;font-family:'Unifont Upper';-inkscape-font-specification:'Unifont Upper Medium';fill:#252525;fill-opacity:1"
       id="path4239-4"
       inkscape:connector-curvature="0" /></g><g
     transform="matrix(-0.02972741,-0.01824556,0.01689583,-0.03111009,113.75899,63.98163)"
     style="font-style:normal;font-variant:normal;font-weight:bold;font-stretch:normal;font-size:256.13851929px;line-height:125%;font-family:'Times New Roman';-inkscape-font-specification:'Times New Roman';text-align:center;letter-spacing:0px;word-spacing:0px;writing-mode:lr-tb;text-anchor:middle;opacity:0.487;fill:#252525;fill-opacity:1;stroke:none;stroke-width:1px;stroke-linecap:butt;stroke-linejoin:miter;stroke-opacity:1"
     id="text4492-2-5-3-6-8-7-5"><path
       d="m 574.88449,598.78613 0,35.61927 -120.06496,0 0,-35.61927 q 35.41917,-19.41051 55.22988,-52.62848 19.81072,-33.21797 19.81072,-73.63984 0,-48.02598 -26.41429,-77.04168 -26.41429,-29.01569 -69.63767,-29.01569 -43.22339,0 -69.83779,29.2158 -26.41429,29.0157 -26.41429,76.84157 0,40.42187 19.81072,73.63984 20.01083,33.21797 55.6301,52.62848 l 0,35.61927 -120.06496,0 0,-35.61927 63.83454,0 q -31.61711,-27.81505 -46.22501,-57.63118 -14.4078,-29.81613 -14.4078,-66.63605 0,-63.63443 38.42079,-103.05576 38.22068,-39.42133 99.2537,-39.42133 60.6328,0 99.25369,39.42133 38.42079,39.22122 38.42079,101.05467 0,38.82101 -14.20769,68.43703 -14.20768,29.61602 -46.42511,57.83129 l 64.03464,0 z"
       style="font-style:normal;font-variant:normal;font-weight:500;font-stretch:normal;font-size:409.82171631px;font-family:'Unifont Upper';-inkscape-font-specification:'Unifont Upper Medium';fill:#252525;fill-opacity:1"
       id="path4242-6-1-2-2"
       inkscape:connector-curvature="0" /></g><g
     transform="matrix(0.0163707,-0.03014312,0.03068102,0.01883085,26.789383,88.481454)"
     style="font-style:normal;font-variant:normal;font-weight:bold;font-stretch:normal;font-size:268.22595215px;line-height:125%;font-family:'Times New Roman';-inkscape-font-specification:'Times New Roman';text-align:center;letter-spacing:0px;word-spacing:0px;writing-mode:lr-tb;text-anchor:middle;opacity:0.487;fill:#252525;fill-opacity:1;stroke:none;stroke-width:1px;stroke-linecap:butt;stroke-linejoin:miter;stroke-opacity:1"
     id="text4492-2-5-3-04"><path
       d="m 309.49305,-727.30666 q 0,29.96587 14.87816,47.1491 14.87816,16.97368 40.86256,16.97368 25.77484,0 40.44345,-17.18323 14.87817,-17.18323 14.87817,-46.93955 0,-29.33722 -15.08772,-46.52045 -15.08771,-17.39278 -40.653,-17.39278 -25.35574,0 -40.44346,17.18323 -14.87816,17.18323 -14.87816,46.73 z m 114.20561,62.65592 q -12.5731,16.13547 -28.91812,23.88888 -16.13547,7.54386 -37.71928,7.54386 -36.04287,0 -58.67444,-25.9844 -22.42202,-26.19395 -22.42202,-68.10426 0,-41.91031 22.63157,-68.10426 22.63157,-26.19395 58.46489,-26.19395 21.58381,0 37.92883,7.96296 16.34503,7.75341 28.70857,23.67933 l 0,-27.45126 29.96587,0 0,154.22996 q 30.59453,-4.61013 47.77776,-27.87036 17.39278,-23.46977 17.39278,-60.5604 0,-22.42202 -6.70565,-42.11987 -6.4961,-19.69785 -19.9074,-36.46197 -21.79336,-27.45126 -53.2261,-41.91032 -31.22318,-14.66861 -68.10426,-14.66861 -25.77484,0 -49.45417,6.9152 -23.67933,6.70565 -43.79628,20.11696 -32.89959,21.37426 -51.54968,56.15982 -18.44054,34.57601 -18.44054,75.01946 0,33.3187 11.94444,62.44637 12.15399,29.12767 34.99511,51.34013 22.00291,21.79337 50.92103,33.10915 28.91812,11.52534 61.81772,11.52534 27.03215,0 53.01654,-9.22027 26.19395,-9.01072 47.98731,-25.9844 l 18.85965,23.26023 q -26.19395,20.3265 -57.20758,31.01363 -30.80409,10.89668 -62.65592,10.89668 -38.76705,0 -73.1335,-13.8304 -34.36646,-13.62085 -61.18906,-39.8148 -26.8226,-26.19395 -40.86256,-60.5604 -14.03995,-34.57601 -14.03995,-74.18126 0,-38.13839 14.2495,-72.7144 14.24951,-34.57601 40.65301,-60.76995 27.03215,-26.61305 62.44637,-40.65301 35.41421,-14.2495 75.01946,-14.2495 44.42493,0 82.35377,18.23098 38.13838,18.23099 63.91323,51.75924 15.71636,20.53606 23.88888,44.63449 8.38206,24.09843 8.38206,49.87327 0,55.11206 -33.3187,86.9639 -33.3187,31.85184 -91.99314,33.10915 l 0,-32.27094 z"
       style="font-style:normal;font-variant:normal;font-weight:500;font-stretch:normal;font-size:429.16162109px;font-family:'Unifont Upper';-inkscape-font-specification:'Unifont Upper Medium';fill:#252525;fill-opacity:1"
       id="path4227-5-7"
       inkscape:connector-curvature="0" /></g><g
     transform="matrix(0,-0.03727979,0.0330768,0,129.06607,72.001949)"
     style="font-style:normal;font-variant:normal;font-weight:bold;font-stretch:normal;font-size:202.55328369px;line-height:125%;font-family:'Times New Roman';-inkscape-font-specification:'Times New Roman';text-align:center;letter-spacing:0px;word-spacing:0px;writing-mode:lr-tb;text-anchor:middle;opacity:0.487;fill:#252525;fill-opacity:1;stroke:none;stroke-width:1px;stroke-linecap:butt;stroke-linejoin:miter;stroke-opacity:1"
     id="text4492-2-5-5-3-8-3"><path
       d="m 126.70287,-241.14203 104.44157,0 0,-182.45626 -76.74873,0 0,33.5479 q 0,78.96415 -17.72342,131.34318 -3.63963,10.76065 -9.96942,17.56518 z m -46.682215,0 q 21.204805,-9.96943 27.218105,-28.9588 15.34975,-48.7394 15.34975,-135.77404 l 0,-44.62504 140.52138,0 0,209.35788 26.90162,0 0,77.69819 -26.90162,0 0,-50.79658 -167.422999,0 0,50.79658 -26.901617,0 0,-77.69819 11.235381,0 z"
       style="font-style:normal;font-variant:normal;font-weight:500;font-stretch:normal;font-size:324.08535767px;font-family:'Unifont Upper';-inkscape-font-specification:'Unifont Upper Medium';fill:#252525;fill-opacity:1"
       id="path4230-6-4-6"
       inkscape:connector-curvature="0" /></g><g
     transform="matrix(0.06646078,0,0,0.06559238,-0.62752585,100.138)"
     style="font-style:normal;font-variant:normal;font-weight:bold;font-stretch:normal;font-size:430.631073px;line-height:125%;font-family:'Times New Roman';-inkscape-font-specification:'Times New Roman';text-align:center;letter-spacing:0px;word-spacing:0px;writing-mode:lr-tb;text-anchor:middle;opacity:0.487;fill:#252525;fill-opacity:1;stroke:none;stroke-width:1px;stroke-linecap:butt;stroke-linejoin:miter;stroke-opacity:1"
     id="text4492-2-5-9-7-1-1"><path
       d="m 844.19174,-1185.8699 c 10.50895,0 19.91169,8.02 19.91169,19.9117 0,10.509 -8.01999,19.9117 -19.91169,19.9117 -10.50896,0 -19.9117,-8.02 -19.9117,-19.9117 0,-10.5089 8.01999,-19.9117 19.9117,-19.9117 z m 232.30316,304.20653 c 31.2503,0 56.4165,-24.88962 56.4165,-56.41648 0,-35.67512 -29.3145,-53.65096 -45.3545,-53.92751 l 0,-227.60174 -50.0558,0 0,228.98449 c -52.26817,11.89171 -94.58053,30.6972 -126.93704,56.13993 l 0,-219.02872 c 0,-34.0158 -20.74135,-68.8613 -66.37232,-68.8613 -31.25031,0 -56.41648,24.8897 -56.41648,56.4165 0,31.2503 24.88962,56.4165 56.41648,56.4165 9.67929,0 14.65722,-0.2765 14.93377,-0.8296 l 0,223.1769 50.6089,0 c 44.80132,-30.1441 81.58265,-48.11993 110.34399,-53.65096 0,37.05788 27.102,59.18199 56.4165,59.18199 z m 0,-76.32818 c 10.5089,0 19.9117,8.01999 19.9117,19.9117 0,10.50895 -8.02,19.9117 -19.9117,19.9117 -10.509,0 -19.9117,-8.01999 -19.9117,-19.9117 0,-10.50895 8.02,-19.9117 19.9117,-19.9117 z"
       style="font-style:normal;font-variant:normal;font-weight:500;font-stretch:normal;font-size:566.37719727px;font-family:'Unifont Upper';-inkscape-font-specification:'Unifont Upper Medium';fill:#252525;fill-opacity:1"
       id="path4239-9-1-8"
       inkscape:connector-curvature="0" /></g></svg>