<?xml version="1.0" encoding="UTF-8" standalone="no"?>
<svg
   xmlns:dc="http://purl.org/dc/elements/1.1/"
   xmlns:cc="http://creativecommons.org/ns#"
   xmlns:rdf="http://www.w3.org/1999/02/22-rdf-syntax-ns#"
   xmlns:svg="http://www.w3.org/2000/svg"
   xmlns="http://www.w3.org/2000/svg"
   xmlns:sodipodi="http://sodipodi.sourceforge.net/DTD/sodipodi-0.dtd"
   xmlns:inkscape="http://www.inkscape.org/namespaces/inkscape"
   enable-background="new 0 0 64 64"
   height="64px"
   version="1.1"
   viewBox="0 0 64 64"
   width="64px"
   xml:space="preserve"
   id="svg2"
   inkscape:version="0.91 r13725"
   sodipodi:docname="multilingual.svg"
   inkscape:export-filename="/home/adverick/Projects/Prj-UnitexGramlab/UnitexWebFlat/unitexgramlab-org/user/themes/unitexgramlab/images/multilingual.png"
   inkscape:export-xdpi="354.46155"
   inkscape:export-ydpi="354.46155"><metadata
     id="metadata38"><rdf:RDF><cc:Work
         rdf:about=""><dc:format>image/svg+xml</dc:format><dc:type
           rdf:resource="http://purl.org/dc/dcmitype/StillImage" /><dc:title></dc:title></cc:Work></rdf:RDF></metadata><defs
     id="defs36" /><sodipodi:namedview
     pagecolor="#ffffff"
     bordercolor="#666666"
     borderopacity="1"
     objecttolerance="10"
     gridtolerance="10"
     guidetolerance="10"
     inkscape:pageopacity="0"
     inkscape:pageshadow="2"
     inkscape:window-width="1366"
     inkscape:window-height="706"
     id="namedview34"
     showgrid="false"
     inkscape:zoom="2.6074563"
     inkscape:cx="-30.983697"
     inkscape:cy="-18.251035"
     inkscape:window-x="0"
     inkscape:window-y="37"
     inkscape:window-maximized="1"
     inkscape:current-layer="Layer_1" /><g
     id="Layer_1"><g
       id="g5"
       style="fill-opacity:0.60098523;fill:#ad7fa8"><rect
         style="color:#000000;clip-rule:nonzero;display:inline;overflow:visible;visibility:visible;opacity:1;isolation:auto;mix-blend-mode:normal;color-interpolation:sRGB;color-interpolation-filters:linearRGB;solid-color:#000000;solid-opacity:1;fill:#ad7fa8;fill-opacity:0.60098523;fill-rule:evenodd;color-rendering:auto;image-rendering:auto;shape-rendering:auto;text-rendering:auto;enable-background:accumulate"
         id="rect4220"
         width="65"
         height="65"
         x="-0.5"
         y="-0.5" /></g><g
       id="g4202"
       transform="translate(-0.49999937,-0.85592854)"><path
         id="path3"
         d="m 36.271186,21.084796 -28.9999996,0 c -2.2,0 -4,1.8 -4,4 l 0,18 c 0,2.2 1.8,4 4,4 l 3.9999996,0 0,6 8,-6 13.3,0 c 2.2,0 4.5,-2.3 4.5,-4.5"
         style="fill:#3b97d3"
         inkscape:connector-curvature="0" /><path
         id="path5"
         d="m 26.271186,35.084796 0,-18 c 0,-2.2 1.8,-4 4,-4 l 27,0 c 2.2,0 4,1.8 4,4 l 0,18 c 0,2.2 -1.8,4 -4,4 l -5,0 0,6 -8.7,-6 -13.3,0 c -2.2,0 -4,-1.8 -4,-4 z"
         style="fill:#ffd766"
         inkscape:connector-curvature="0" /><path
         id="path7"
         stroke-miterlimit="10"
         d="m 26.271186,35.084796 0,-18 c 0,-2.2 1.8,-4 4,-4 l 27,0 c 2.2,0 4,1.8 4,4 l 0,18 c 0,2.2 -1.8,4 -4,4 l -5,0 0,6 -8.7,-6 -13.3,0 c -2.2,0 -4,-1.8 -4,-4 z"
         style="fill:none;stroke:#2c3e50;stroke-width:2;stroke-linecap:round;stroke-linejoin:round;stroke-miterlimit:10"
         inkscape:connector-curvature="0" /><path
         id="path9"
         stroke-miterlimit="10"
         d="m 22.271186,21.084796 -14.9999996,0 c -2.2,0 -4,1.8 -4,4 l 0,18 c 0,2.2 1.8,4 4,4 l 3.9999996,0 0,6 8,-6 13.3,0 c 2.2,0 4.5,-2.3 4.5,-4.5"
         style="fill:none;stroke:#2c3e50;stroke-width:2;stroke-linecap:round;stroke-linejoin:round;stroke-miterlimit:10"
         inkscape:connector-curvature="0" /><path
         id="path11"
         stroke-miterlimit="10"
         d="m 34.271186,22.084796 8.1,0 c 0,0 -2.5,6.5 -7.8,8"
         style="fill:none;stroke:#2c3e50;stroke-width:2;stroke-linecap:round;stroke-linejoin:round;stroke-miterlimit:10"
         inkscape:connector-curvature="0" /><polyline
         id="polyline13"
         stroke-miterlimit="10"
         points="  38,34 38,28.2 41.5,29.2 "
         style="fill:none;stroke:#2c3e50;stroke-width:2;stroke-linecap:round;stroke-linejoin:round;stroke-miterlimit:10"
         transform="translate(0.27118642,0.08479576)" /><line
         id="line15"
         y2="19.084797"
         y1="22.084797"
         x2="38.271183"
         x1="38.271183"
         stroke-miterlimit="10"
         style="fill:none;stroke:#2c3e50;stroke-width:2;stroke-linecap:round;stroke-linejoin:round;stroke-miterlimit:10" /><rect
         id="rect17"
         y="22.084797"
         x="45.271183"
         width="8"
         stroke-miterlimit="10"
         height="6"
         style="fill:none;stroke:#2c3e50;stroke-width:2;stroke-linecap:round;stroke-linejoin:round;stroke-miterlimit:10" /><line
         id="line19"
         y2="25.084797"
         y1="25.084797"
         x2="53.271183"
         x1="45.271183"
         stroke-miterlimit="10"
         style="fill:none;stroke:#2c3e50;stroke-width:2;stroke-linecap:round;stroke-linejoin:round;stroke-miterlimit:10" /><line
         id="line21"
         y2="32.084797"
         y1="32.084797"
         x2="52.271183"
         x1="46.271183"
         stroke-miterlimit="10"
         style="fill:none;stroke:#2c3e50;stroke-width:2;stroke-linecap:round;stroke-linejoin:round;stroke-miterlimit:10" /><line
         id="line23"
         y2="22.084797"
         y1="19.084797"
         x2="46.971184"
         x1="44.871181"
         stroke-miterlimit="10"
         style="fill:none;stroke:#2c3e50;stroke-width:2;stroke-linecap:round;stroke-linejoin:round;stroke-miterlimit:10" /><polyline
         id="polyline25"
         stroke-miterlimit="10"
         points="  48,19 49,22 49,34 "
         style="fill:none;stroke:#2c3e50;stroke-width:2;stroke-linecap:round;stroke-linejoin:round;stroke-miterlimit:10"
         transform="translate(0.27118642,0.08479576)" /><line
         id="line27"
         y2="22.084797"
         y1="19.084797"
         x2="51.571182"
         x1="53.271183"
         stroke-miterlimit="10"
         style="fill:none;stroke:#2c3e50;stroke-width:2;stroke-linecap:round;stroke-linejoin:round;stroke-miterlimit:10" /><polyline
         id="polyline29"
         stroke-miterlimit="10"
         points="  9.9,38.1 12.3,30 14.7,38.1 "
         style="fill:none;stroke:#2c3e50;stroke-width:2;stroke-linecap:round;stroke-linejoin:round;stroke-miterlimit:10"
         transform="translate(0.27118642,0.08479576)" /><line
         id="line31"
         y2="35.784798"
         y1="35.784798"
         x2="14.171186"
         x1="10.871187"
         stroke-miterlimit="10"
         style="fill:none;stroke:#2c3e50;stroke-width:2;stroke-linecap:round;stroke-linejoin:round;stroke-miterlimit:10" /><path
         id="path33"
         stroke-miterlimit="10"
         d="m 18.271186,38.084796 0,-8 c 0,0 1.4,0 2,0 0.6,0 1.9,0.1 1.9,1.3 0,1.2 -0.8,1.7 -1.8,1.7 -1,0 -2.1,0 -2.1,0 l 2.4,0 c 0,0 2.4,-0.1 2.4,2.7 0,2.1 -1,2.3 -2.4,2.3 -1.4,0 -2.4,0 -2.4,0 z"
         style="fill:none;stroke:#2c3e50;stroke-width:2;stroke-linecap:round;stroke-linejoin:round;stroke-miterlimit:10"
         inkscape:connector-curvature="0" /></g></g><g
     id="Layer_2" /></svg>