<?xml version="1.0" encoding="UTF-8" standalone="no"?>
<svg
   xmlns:dc="http://purl.org/dc/elements/1.1/"
   xmlns:cc="http://creativecommons.org/ns#"
   xmlns:rdf="http://www.w3.org/1999/02/22-rdf-syntax-ns#"
   xmlns:svg="http://www.w3.org/2000/svg"
   xmlns="http://www.w3.org/2000/svg"
   xmlns:sodipodi="http://sodipodi.sourceforge.net/DTD/sodipodi-0.dtd"
   xmlns:inkscape="http://www.inkscape.org/namespaces/inkscape"
   enable-background="new 0 0 64 64"
   height="64px"
   version="1.1"
   viewBox="0 0 64 64"
   width="64px"
   xml:space="preserve"
   id="svg2"
   inkscape:version="0.91 r13725"
   sodipodi:docname="opensource.svg"
   inkscape:export-filename="/home/adverick/Projects/Prj-UnitexGramlab/UnitexWebFlat/unitexgramlab-org/user/themes/unitexgramlab/images/opensource.png"
   inkscape:export-xdpi="354.46155"
   inkscape:export-ydpi="354.46155"><metadata
     id="metadata38"><rdf:RDF><cc:Work
         rdf:about=""><dc:format>image/svg+xml</dc:format><dc:type
           rdf:resource="http://purl.org/dc/dcmitype/StillImage" /><dc:title></dc:title></cc:Work></rdf:RDF></metadata><defs
     id="defs36" /><sodipodi:namedview
     pagecolor="#ffffff"
     bordercolor="#666666"
     borderopacity="1"
     objecttolerance="10"
     gridtolerance="10"
     guidetolerance="10"
     inkscape:pageopacity="0"
     inkscape:pageshadow="2"
     inkscape:window-width="1366"
     inkscape:window-height="706"
     id="namedview34"
     showgrid="false"
     inkscape:zoom="3.6875"
     inkscape:cx="34.783979"
     inkscape:cy="53.767782"
     inkscape:window-x="0"
     inkscape:window-y="37"
     inkscape:window-maximized="1"
     inkscape:current-layer="g4233" /><g
     id="Layer_1"><g
       id="g5"
       style="fill-opacity:1;fill:#76c2af"><rect
         style="color:#000000;clip-rule:nonzero;display:inline;overflow:visible;visibility:visible;opacity:1;isolation:auto;mix-blend-mode:normal;color-interpolation:sRGB;color-interpolation-filters:linearRGB;solid-color:#000000;solid-opacity:1;fill:#76c2af;fill-opacity:1;fill-rule:evenodd;color-rendering:auto;image-rendering:auto;shape-rendering:auto;text-rendering:auto;enable-background:accumulate"
         id="rect4220"
         width="65"
         height="65"
         x="-0.5"
         y="-0.5" /></g><g
       id="g4233"
       transform="translate(2.1437288,1.417825)"><circle
         cx="28"
         cy="26"
         r="20.200001"
         id="circle3"
         style="fill:#e5e5e5" /><circle
         cx="28"
         cy="26"
         r="14.7"
         id="circle5"
         style="fill:#76c2af;fill-opacity:1" /><circle
         cx="28"
         cy="26"
         r="2.5"
         id="circle7"
         style="fill:#00a388" /><circle
         cx="28"
         cy="26"
         r="2.5"
         stroke-miterlimit="10"
         id="circle9"
         style="fill:none;stroke:#2c3e50;stroke-width:2;stroke-linecap:round;stroke-linejoin:round;stroke-miterlimit:10" /><line
         stroke-miterlimit="10"
         x1="29"
         x2="29"
         y1="18"
         y2="9"
         id="line11"
         style="fill:none;stroke:#2c3e50;stroke-width:2;stroke-linecap:round;stroke-linejoin:round;stroke-miterlimit:10" /><path
         d="m 32,5.5 c 0,1.7 -1.3,3 -3,3 -1.7,0 -3,-1.3 -3,-3"
         id="path13"
         inkscape:connector-curvature="0"
         style="fill:#3b97d3" /><path
         d="m 25,45 c 0,-1.7 1.3,-3 3,-3 1.7,0 3,1.3 3,3"
         id="path15"
         inkscape:connector-curvature="0"
         style="fill:#3b97d3" /><path
         d="m 21.2,8.5 c 0.8,1.4 0.3,3.3 -1.1,4.1 -1.4,0.8 -3.3,0.3 -4.1,-1.1"
         id="path17"
         inkscape:connector-curvature="0"
         style="fill:#3b97d3" /><path
         d="M 34.8,44 C 34,42.6 34.5,40.7 35.9,39.9 37.3,39.1 39.2,39.6 40,41"
         id="path19"
         inkscape:connector-curvature="0"
         style="fill:#3b97d3" /><path
         d="m 13.3,14.3 c 1.4,0.8 1.9,2.7 1.1,4.1 -0.8,1.4 -2.7,1.9 -4.1,1.1"
         id="path21"
         inkscape:connector-curvature="0"
         style="fill:#3b97d3" /><path
         d="m 42.7,38.2 c -1.4,-0.8 -1.9,-2.7 -1.1,-4.1 0.8,-1.4 2.7,-1.9 4.1,-1.1"
         id="path23"
         inkscape:connector-curvature="0"
         style="fill:#3b97d3" /><path
         d="m 9.3,23.2 c 1.7,0 3,1.3 3,3 0,1.7 -1.3,3 -3,3"
         id="path25"
         inkscape:connector-curvature="0"
         style="fill:#3b97d3" /><path
         d="m 46.8,29.2 c -1.7,0 -3,-1.3 -3,-3 0,-1.7 1.3,-3 3,-3"
         id="path27"
         inkscape:connector-curvature="0"
         style="fill:#3b97d3" /><path
         d="m 10.3,33 c 1.4,-0.8 3.3,-0.3 4.1,1.1 0.8,1.4 0.3,3.3 -1.1,4.1"
         id="path29"
         inkscape:connector-curvature="0"
         style="fill:#3b97d3" /><path
         d="M 56.7,9.5 C 55.3,10.3 53.4,9.8 52.6,8.4 51.8,7 52.3,5.1 53.7,4.3"
         id="path31"
         inkscape:connector-curvature="0"
         style="fill:#3b97d3" /><path
         d="M 44,6.5 C 43.2,7.9 41.3,8.4 39.9,7.6 38.5,6.8 38,4.9 38.8,3.5"
         id="path33"
         inkscape:connector-curvature="0"
         style="fill:#3b97d3" /><path
         d="m 32,5.5 c 0,1.7 -1.3,3 -3,3 -1.7,0 -3,-1.3 -3,-3"
         stroke-miterlimit="10"
         id="path35"
         inkscape:connector-curvature="0"
         style="fill:none;stroke:#2c3e50;stroke-width:2;stroke-linecap:round;stroke-linejoin:round;stroke-miterlimit:10" /><circle
         cx="29"
         cy="5.5"
         r="1"
         id="circle37"
         style="fill:#2c3e50" /><line
         stroke-miterlimit="10"
         x1="28"
         x2="28"
         y1="32"
         y2="41"
         id="line39"
         style="fill:none;stroke:#2c3e50;stroke-width:2;stroke-linecap:round;stroke-linejoin:round;stroke-miterlimit:10" /><path
         d="m 25,45 c 0,-1.7 1.3,-3 3,-3 1.7,0 3,1.3 3,3"
         stroke-miterlimit="10"
         id="path41"
         inkscape:connector-curvature="0"
         style="fill:none;stroke:#2c3e50;stroke-width:2;stroke-linecap:round;stroke-linejoin:round;stroke-miterlimit:10" /><circle
         cx="28"
         cy="45"
         r="1"
         id="circle43"
         style="fill:#2c3e50" /><line
         stroke-miterlimit="10"
         x1="24.9"
         x2="20.4"
         y1="20.799999"
         y2="13"
         id="line45"
         style="fill:none;stroke:#2c3e50;stroke-width:2;stroke-linecap:round;stroke-linejoin:round;stroke-miterlimit:10" /><path
         d="m 21.2,8.5 c 0.8,1.4 0.3,3.3 -1.1,4.1 -1.4,0.8 -3.3,0.3 -4.1,-1.1"
         stroke-miterlimit="10"
         id="path47"
         inkscape:connector-curvature="0"
         style="fill:none;stroke:#2c3e50;stroke-width:2;stroke-linecap:round;stroke-linejoin:round;stroke-miterlimit:10" /><circle
         cx="18.6"
         cy="10"
         r="1"
         id="circle49"
         style="fill:#2c3e50" /><line
         stroke-miterlimit="10"
         x1="30.9"
         x2="35.400002"
         y1="31.200001"
         y2="39"
         id="line51"
         style="fill:none;stroke:#2c3e50;stroke-width:2;stroke-linecap:round;stroke-linejoin:round;stroke-miterlimit:10" /><path
         d="M 34.8,44 C 34,42.6 34.5,40.7 35.9,39.9 37.3,39.1 39.2,39.6 40,41"
         stroke-miterlimit="10"
         id="path53"
         inkscape:connector-curvature="0"
         style="fill:none;stroke:#2c3e50;stroke-width:2;stroke-linecap:round;stroke-linejoin:round;stroke-miterlimit:10" /><circle
         cx="37.400002"
         cy="42.5"
         r="1"
         id="circle55"
         style="fill:#2c3e50" /><line
         stroke-miterlimit="10"
         x1="22.6"
         x2="14.8"
         y1="23.1"
         y2="18.6"
         id="line57"
         style="fill:none;stroke:#2c3e50;stroke-width:2;stroke-linecap:round;stroke-linejoin:round;stroke-miterlimit:10" /><path
         d="m 13.3,14.3 c 1.4,0.8 1.9,2.7 1.1,4.1 -0.8,1.4 -2.7,1.9 -4.1,1.1"
         stroke-miterlimit="10"
         id="path59"
         inkscape:connector-curvature="0"
         style="fill:none;stroke:#2c3e50;stroke-width:2;stroke-linecap:round;stroke-linejoin:round;stroke-miterlimit:10" /><circle
         cx="11.8"
         cy="16.9"
         r="1"
         id="circle61"
         style="fill:#2c3e50" /><line
         stroke-miterlimit="10"
         x1="33"
         x2="40.799999"
         y1="29.1"
         y2="33.599998"
         id="line63"
         style="fill:none;stroke:#2c3e50;stroke-width:2;stroke-linecap:round;stroke-linejoin:round;stroke-miterlimit:10" /><path
         d="m 42.7,38.2 c -1.4,-0.8 -1.9,-2.7 -1.1,-4.1 0.8,-1.4 2.7,-1.9 4.1,-1.1"
         stroke-miterlimit="10"
         id="path65"
         inkscape:connector-curvature="0"
         style="fill:none;stroke:#2c3e50;stroke-width:2;stroke-linecap:round;stroke-linejoin:round;stroke-miterlimit:10" /><circle
         cx="44.200001"
         cy="35.599998"
         r="1"
         id="circle67"
         style="fill:#2c3e50" /><line
         stroke-miterlimit="10"
         x1="22"
         x2="13"
         y1="26"
         y2="26"
         id="line69"
         style="fill:none;stroke:#2c3e50;stroke-width:2;stroke-linecap:round;stroke-linejoin:round;stroke-miterlimit:10" /><path
         d="m 9.3,23.2 c 1.7,0 3,1.3 3,3 0,1.7 -1.3,3 -3,3"
         stroke-miterlimit="10"
         id="path71"
         inkscape:connector-curvature="0"
         style="fill:none;stroke:#2c3e50;stroke-width:2;stroke-linecap:round;stroke-linejoin:round;stroke-miterlimit:10" /><circle
         cx="9.1999998"
         cy="26.200001"
         r="1"
         id="circle73"
         style="fill:#2c3e50" /><line
         stroke-miterlimit="10"
         x1="34"
         x2="43"
         y1="26"
         y2="26"
         id="line75"
         style="fill:none;stroke:#2c3e50;stroke-width:2;stroke-linecap:round;stroke-linejoin:round;stroke-miterlimit:10" /><path
         d="m 46.8,29.2 c -1.7,0 -3,-1.3 -3,-3 0,-1.7 1.3,-3 3,-3"
         stroke-miterlimit="10"
         id="path77"
         inkscape:connector-curvature="0"
         style="fill:none;stroke:#2c3e50;stroke-width:2;stroke-linecap:round;stroke-linejoin:round;stroke-miterlimit:10" /><circle
         cx="46.799999"
         cy="26.200001"
         r="1"
         id="circle79"
         style="fill:#2c3e50" /><line
         stroke-miterlimit="10"
         x1="22.700001"
         x2="14.9"
         y1="29"
         y2="33.5"
         id="line81"
         style="fill:none;stroke:#2c3e50;stroke-width:2;stroke-linecap:round;stroke-linejoin:round;stroke-miterlimit:10" /><path
         d="m 10.3,33 c 1.4,-0.8 3.3,-0.3 4.1,1.1 0.8,1.4 0.3,3.3 -1.1,4.1"
         stroke-miterlimit="10"
         id="path83"
         inkscape:connector-curvature="0"
         style="fill:none;stroke:#2c3e50;stroke-width:2;stroke-linecap:round;stroke-linejoin:round;stroke-miterlimit:10" /><circle
         cx="11.8"
         cy="35.599998"
         r="1"
         id="circle85"
         style="fill:#2c3e50" /><line
         stroke-miterlimit="10"
         x1="44.099998"
         x2="51.900002"
         y1="13"
         y2="8.5"
         id="line87"
         style="fill:none;stroke:#2c3e50;stroke-width:2;stroke-linecap:round;stroke-linejoin:round;stroke-miterlimit:10" /><path
         d="M 56.7,9.5 C 55.3,10.3 53.4,9.8 52.6,8.4 51.8,7 52.3,5.1 53.7,4.3"
         stroke-miterlimit="10"
         id="path89"
         inkscape:connector-curvature="0"
         style="fill:none;stroke:#2c3e50;stroke-width:2;stroke-linecap:round;stroke-linejoin:round;stroke-miterlimit:10" /><circle
         cx="55.200001"
         cy="6.9000001"
         r="1"
         id="circle91"
         style="fill:#2c3e50" /><line
         stroke-miterlimit="10"
         x1="34.799999"
         x2="39.299999"
         y1="15.9"
         y2="8.1000004"
         id="line93"
         style="fill:none;stroke:#2c3e50;stroke-width:2;stroke-linecap:round;stroke-linejoin:round;stroke-miterlimit:10" /><path
         d="M 44,6.5 C 43.2,7.9 41.3,8.4 39.9,7.6 38.5,6.8 38,4.9 38.8,3.5"
         stroke-miterlimit="10"
         id="path95"
         inkscape:connector-curvature="0"
         style="fill:none;stroke:#2c3e50;stroke-width:2;stroke-linecap:round;stroke-linejoin:round;stroke-miterlimit:10" /><circle
         cx="41.400002"
         cy="5"
         r="1"
         id="circle97"
         style="fill:#2c3e50" /><path
         d="m 24.1,32 c 0,0 -9.4,9.2 -9.4,28.3"
         stroke-miterlimit="10"
         id="path99"
         inkscape:connector-curvature="0"
         style="fill:none;stroke:#2c3e50;stroke-width:2;stroke-linecap:round;stroke-linejoin:round;stroke-miterlimit:10" /></g></g><g
     id="Layer_2" /></svg>