<?xml version="1.0" encoding="UTF-8" standalone="no"?>
<!-- Created with Inkscape (http://www.inkscape.org/) -->

<svg
   xmlns:dc="http://purl.org/dc/elements/1.1/"
   xmlns:cc="http://creativecommons.org/ns#"
   xmlns:rdf="http://www.w3.org/1999/02/22-rdf-syntax-ns#"
   xmlns:svg="http://www.w3.org/2000/svg"
   xmlns="http://www.w3.org/2000/svg"
   xmlns:sodipodi="http://sodipodi.sourceforge.net/DTD/sodipodi-0.dtd"
   xmlns:inkscape="http://www.inkscape.org/namespaces/inkscape"
   id="svg2"
   version="1.1"
   inkscape:version="0.91 r13725"
   width="2304"
   height="865"
   viewBox="0 0 2304 865"
   sodipodi:docname="unitex-overlay.svg"
   inkscape:export-filename="/home/adverick/Projects/Prj-UnitexGramlab/UnitexWebFlat/unitexgramlab-org/user/themes/unitexgramlab/css/images/unitex-overlay.png"
   inkscape:export-xdpi="90"
   inkscape:export-ydpi="90">
  <metadata
     id="metadata8">
    <rdf:RDF>
      <cc:Work
         rdf:about="">
        <dc:format>image/svg+xml</dc:format>
        <dc:type
           rdf:resource="http://purl.org/dc/dcmitype/StillImage" />
        <dc:title></dc:title>
      </cc:Work>
    </rdf:RDF>
  </metadata>
  <defs
     id="defs6" />
  <sodipodi:namedview
     pagecolor="#ffffff"
     bordercolor="#666666"
     borderopacity="1"
     objecttolerance="10"
     gridtolerance="10"
     guidetolerance="10"
     inkscape:pageopacity="0"
     inkscape:pageshadow="2"
     inkscape:window-width="1366"
     inkscape:window-height="706"
     id="namedview4"
     showgrid="false"
     inkscape:zoom="0.2467508"
     inkscape:cx="805.79488"
     inkscape:cy="454.16396"
     inkscape:window-x="0"
     inkscape:window-y="37"
     inkscape:window-maximized="1"
     inkscape:current-layer="svg2" />
  <path
     style="opacity:0.07;fill:#ffffff;fill-opacity:1;stroke:none"
     id="path43-3-4"
     d="m 603.94831,631.15528 c -1.2374,-5.82503 1.28435,-15.36825 5.16916,-21.51506 10.63674,-14.99422 25.98121,-16.88696 38.19149,-4.15753 4.89295,5.46265 12.29194,8.44653 15.9255,7.15701 5.63086,-2.04508 5.18176,-5.532 -2.86422,-20.347 -5.364,-9.87667 -8.32552,-18.87631 -6.15859,-20.20628 2.16693,-1.32999 15.48897,19.65312 35.22087,55.98518 19.7319,36.33199 30.1647,59.08849 27.9977,60.41847 -2.1669,1.32997 -5.3356,-0.95801 -7.4429,-4.83811 -3.4483,-6.34932 -6.3596,-5.50313 -34.5297,11.78663 -24.91976,15.29482 -31.27299,17.78321 -33.57181,13.55041 -1.53262,-2.822 0.0156,-7.06439 3.26608,-9.05938 4.33387,-2.65997 4.9682,-6.81198 2.07267,-13.03008 -5.02488,-11.0255 -2.95219,-24.05558 3.90977,-28.26719 2.88924,-1.77332 6.39722,-0.63412 7.92979,2.18777 1.53258,2.82192 5.40166,3.73947 8.29093,1.96616 4.33387,-2.65996 2.54367,-8.61606 -8.56744,-29.07487 -15.32572,-28.21902 -21.83285,-32.22064 -36.64026,-23.13242 -11.19584,6.87158 -14.80105,17.07976 -9.82018,26.25092 2.49042,4.5856 5.06248,4.88824 8.26891,1.03899 4.79862,-6.23752 21.22658,-8.79523 24.10017,-3.50412 1.91571,3.52737 -2.44952,20.31606 -6.42225,22.75437 -11.557,7.09324 -30.40003,-7.20907 -34.32569,-25.96387 z m 29.02767,18.86868 c 5.80049,-2.61949 7.56226,-5.58207 5.64655,-9.10946 -2.10729,-3.88012 -6.31551,-3.64884 -12.45518,0.11945 -11.19583,6.87158 -5.70622,14.31958 6.80863,8.99001 z m 45.76344,29.29093 21.6693,-13.29984 -12.4521,-22.92803 c -9.7701,-17.98961 -13.5356,-22.26296 -17.8695,-19.60299 -3.97277,2.4383 -3.31011,7.20501 1.8623,16.72894 4.0231,7.40753 6.837,17.90872 5.8634,23.20941 -1.2687,8.30378 -2.5217,9.54315 -9.6852,8.76639 -4.59144,-0.47426 -9.60994,-3.50818 -11.14251,-6.33007 -2.49043,-4.5856 -3.57388,-3.92062 -5.99205,2.26676 -1.54825,4.24246 -1.01117,11.43792 1.47927,16.02353 4.40614,8.11295 5.68117,7.80073 26.26709,-4.8341 z"
     inkscape:connector-curvature="0" />
  <g
     transform="matrix(0.28092117,0,0,0.27725047,-101.12011,923.83615)"
     style="font-style:normal;font-variant:normal;font-weight:bold;font-stretch:normal;font-size:430.631073px;line-height:125%;font-family:'Times New Roman';-inkscape-font-specification:'Times New Roman';text-align:center;letter-spacing:0px;word-spacing:0px;writing-mode:lr-tb;text-anchor:middle;opacity:0.07;fill:#ffffff;fill-opacity:1;stroke:none;stroke-width:1px;stroke-linecap:butt;stroke-linejoin:miter;stroke-opacity:1"
     id="text4492-2-5-9-7">
    <path
       d="m 844.19174,-1185.8699 c 10.50895,0 19.91169,8.02 19.91169,19.9117 0,10.509 -8.01999,19.9117 -19.91169,19.9117 -10.50896,0 -19.9117,-8.02 -19.9117,-19.9117 0,-10.5089 8.01999,-19.9117 19.9117,-19.9117 z m 232.30316,304.20653 c 31.2503,0 56.4165,-24.88962 56.4165,-56.41648 0,-35.67512 -29.3145,-53.65096 -45.3545,-53.92751 l 0,-227.60174 -50.0558,0 0,228.98449 c -52.26817,11.89171 -94.58053,30.6972 -126.93704,56.13993 l 0,-219.02872 c 0,-34.0158 -20.74135,-68.8613 -66.37232,-68.8613 -31.25031,0 -56.41648,24.8897 -56.41648,56.4165 0,31.2503 24.88962,56.4165 56.41648,56.4165 9.67929,0 14.65722,-0.2765 14.93377,-0.8296 l 0,223.1769 50.6089,0 c 44.80132,-30.1441 81.58265,-48.11993 110.34399,-53.65096 0,37.05788 27.102,59.18199 56.4165,59.18199 z m 0,-76.32818 c 10.5089,0 19.9117,8.01999 19.9117,19.9117 0,10.50895 -8.02,19.9117 -19.9117,19.9117 -10.509,0 -19.9117,-8.01999 -19.9117,-19.9117 0,-10.50895 8.02,-19.9117 19.9117,-19.9117 z"
       style="font-style:normal;font-variant:normal;font-weight:500;font-stretch:normal;font-size:566.37719727px;font-family:'Unifont Upper';-inkscape-font-specification:'Unifont Upper Medium';fill:#ffffff;fill-opacity:1"
       id="path4239-9"
       inkscape:connector-curvature="0" />
  </g>
  <g
     transform="matrix(0.25250353,0.15497709,-0.12564037,0.23133991,-38.64315,680.06109)"
     style="font-style:normal;font-variant:normal;font-weight:bold;font-stretch:normal;font-size:265.84481812px;line-height:125%;font-family:'Times New Roman';-inkscape-font-specification:'Times New Roman';text-align:center;letter-spacing:0px;word-spacing:0px;writing-mode:lr-tb;text-anchor:middle;opacity:0.07;fill:#ffffff;fill-opacity:1;stroke:none;stroke-width:1px;stroke-linecap:butt;stroke-linejoin:miter;stroke-opacity:1"
     id="text4492-2-3">
    <path
       d="m 1179.056,-1186.659 56.4921,0 137.4916,259.40646 0,-259.40646 40.7075,0 0,310.08313 -56.492,0 -137.4917,-259.40643 0,259.40643 -40.7075,0 0,-310.08313 z m 116.5148,-45.069 -11.8384,-6.8538 q -5.1922,-2.9077 -8.5153,-3.9461 -3.1154,-1.2462 -5.6077,-1.2462 -7.4769,0 -11.6307,5.1923 -4.1538,5.1923 -4.1538,14.5384 l 0,1.2461 -25.9614,0 q 0,-20.9768 10.5922,-33.2306 10.8,-12.2538 28.6614,-12.2538 7.4769,0 13.7077,1.6616 6.4384,1.6615 16.4076,7.2692 l 11.8384,6.2307 q 4.7769,2.7 8.3076,3.9461 3.5308,1.2462 6.6462,1.2462 6.6461,0 10.7999,-5.1923 4.1538,-5.4 4.1538,-13.9153 l 0,-1.2462 25.9614,0 q -0.4153,20.7692 -11.2153,33.2307 -10.5922,12.2537 -28.0383,12.2537 -7.0615,0 -13.2923,-1.6615 -6.023,-1.6615 -16.823,-7.2692 z"
       style="font-style:normal;font-variant:normal;font-weight:500;font-stretch:normal;font-size:425.35177612px;font-family:'Unifont Upper';-inkscape-font-specification:'Unifont Upper Medium';fill:#ffffff;fill-opacity:1"
       id="path4251-7"
       inkscape:connector-curvature="0" />
  </g>
  <g
     transform="matrix(0,0.32260429,-0.24142743,0,870.6888,116.28543)"
     style="font-style:normal;font-variant:normal;font-weight:bold;font-stretch:normal;font-size:276.40148926px;line-height:125%;font-family:'Times New Roman';-inkscape-font-specification:'Times New Roman';text-align:center;letter-spacing:0px;word-spacing:0px;writing-mode:lr-tb;text-anchor:middle;opacity:0.07;fill:#ffffff;fill-opacity:1;stroke:none;stroke-width:1px;stroke-linecap:butt;stroke-linejoin:miter;stroke-opacity:1"
     id="text4492-2-5-3-4-6-9">
    <path
       d="m 1522.833,-403.05965 203.8462,0 0,36.70959 -160.2265,0 0,95.44492 153.5324,0 0,36.70959 -153.5324,0 0,116.82286 164.1134,0 0,36.709589 -207.7331,0 0,-322.396549 z m 150.9412,322.396549 25.6967,0 q -9.7172,13.172263 -14.4679,22.673568 -4.5347,9.501305 -4.5347,16.195406 0,9.933183 5.8304,14.899774 6.0463,4.966591 17.7069,4.966591 6.9101,0 13.6042,-1.72751 6.6941,-1.511571 13.3882,-4.750652 l 0,28.7198529 q -8.2057,2.1593875 -15.5476,3.2390812 -7.3419,1.0796937 -13.8201,1.0796937 -26.3445,0 -38.869,-9.5013048 -12.3085,-9.285366 -12.3085,-29.36767 0,-10.365059 5.6144,-21.809813 5.8304,-11.228815 17.707,-24.617017 z"
       style="font-style:normal;font-variant:normal;font-weight:500;font-stretch:normal;font-size:442.24255371px;font-family:'Unifont Upper';-inkscape-font-specification:'Unifont Upper Medium';fill:#ffffff;fill-opacity:1"
       id="path4254-6"
       inkscape:connector-curvature="0" />
  </g>
  <path
     style="opacity:0.07;fill:#ffffff;fill-opacity:1;stroke:none"
     id="path43-3-4-6"
     d="m 1605.0946,640.17811 c -1.2374,-5.825 1.2844,-15.3682 5.1692,-21.5151 10.6367,-14.9942 25.9812,-16.8869 38.1915,-4.1575 4.8929,5.4627 12.2919,8.4465 15.9255,7.157 5.6309,-2.0451 5.1818,-5.532 -2.8642,-20.347 -5.364,-9.8766 -8.3255,-18.8763 -6.1586,-20.2063 2.1669,-1.3299 15.489,19.6532 35.2209,55.9852 19.7319,36.332 30.1647,59.0885 27.9977,60.4185 -2.1669,1.33 -5.3356,-0.958 -7.4429,-4.8381 -3.4483,-6.3493 -6.3596,-5.5031 -34.5297,11.7866 -24.9198,15.2948 -31.273,17.7832 -33.5719,13.5504 -1.5326,-2.822 0.016,-7.0644 3.2661,-9.0594 4.3339,-2.6599 4.9682,-6.8119 2.0727,-13.03 -5.0249,-11.0255 -2.9522,-24.0556 3.9098,-28.2672 2.8892,-1.7733 6.3972,-0.6341 7.9298,2.1877 1.5325,2.822 5.4016,3.7395 8.2909,1.9662 4.3339,-2.66 2.5437,-8.6161 -8.5675,-29.0749 -15.3257,-28.219 -21.8328,-32.2206 -36.6402,-23.1324 -11.1959,6.8716 -14.8011,17.0798 -9.8202,26.2509 2.4904,4.5856 5.0625,4.8883 8.2689,1.039 4.7986,-6.2375 21.2266,-8.7952 24.1002,-3.5041 1.9157,3.5274 -2.4495,20.3161 -6.4223,22.7544 -11.557,7.0932 -30.4,-7.2091 -34.3257,-25.9639 z m 29.0277,18.8687 c 5.8005,-2.6195 7.5623,-5.5821 5.6466,-9.1095 -2.1073,-3.8801 -6.3155,-3.6488 -12.4552,0.1195 -11.1958,6.8716 -5.7062,14.3196 6.8086,8.99 z m 45.7635,29.2909 21.6693,-13.2998 -12.4521,-22.9281 c -9.7701,-17.9896 -13.5356,-22.2629 -17.8695,-19.6029 -3.9728,2.4383 -3.3102,7.205 1.8623,16.7289 4.0231,7.4075 6.837,17.9087 5.8634,23.2094 -1.2687,8.3038 -2.5217,9.5432 -9.6852,8.7664 -4.5915,-0.4743 -9.61,-3.5082 -11.1426,-6.3301 -2.4904,-4.5856 -3.5738,-3.9206 -5.992,2.2668 -1.5483,4.2424 -1.0112,11.4379 1.4793,16.0235 4.4061,8.113 5.6811,7.8007 26.2671,-4.8341 z"
     inkscape:connector-curvature="0" />
  <g
     transform="matrix(0.28092117,0,0,0.27725047,900.0263,932.859)"
     style="font-style:normal;font-variant:normal;font-weight:bold;font-stretch:normal;font-size:430.631073px;line-height:125%;font-family:'Times New Roman';-inkscape-font-specification:'Times New Roman';text-align:center;letter-spacing:0px;word-spacing:0px;writing-mode:lr-tb;text-anchor:middle;opacity:0.07;fill:#ffffff;fill-opacity:1;stroke:none;stroke-width:1px;stroke-linecap:butt;stroke-linejoin:miter;stroke-opacity:1"
     id="text4492-2-5-9-7-1">
    <path
       d="m 844.19174,-1185.8699 c 10.50895,0 19.91169,8.02 19.91169,19.9117 0,10.509 -8.01999,19.9117 -19.91169,19.9117 -10.50896,0 -19.9117,-8.02 -19.9117,-19.9117 0,-10.5089 8.01999,-19.9117 19.9117,-19.9117 z m 232.30316,304.20653 c 31.2503,0 56.4165,-24.88962 56.4165,-56.41648 0,-35.67512 -29.3145,-53.65096 -45.3545,-53.92751 l 0,-227.60174 -50.0558,0 0,228.98449 c -52.26817,11.89171 -94.58053,30.6972 -126.93704,56.13993 l 0,-219.02872 c 0,-34.0158 -20.74135,-68.8613 -66.37232,-68.8613 -31.25031,0 -56.41648,24.8897 -56.41648,56.4165 0,31.2503 24.88962,56.4165 56.41648,56.4165 9.67929,0 14.65722,-0.2765 14.93377,-0.8296 l 0,223.1769 50.6089,0 c 44.80132,-30.1441 81.58265,-48.11993 110.34399,-53.65096 0,37.05788 27.102,59.18199 56.4165,59.18199 z m 0,-76.32818 c 10.5089,0 19.9117,8.01999 19.9117,19.9117 0,10.50895 -8.02,19.9117 -19.9117,19.9117 -10.509,0 -19.9117,-8.01999 -19.9117,-19.9117 0,-10.50895 8.02,-19.9117 19.9117,-19.9117 z"
       style="font-style:normal;font-variant:normal;font-weight:500;font-stretch:normal;font-size:566.37719727px;font-family:'Unifont Upper';-inkscape-font-specification:'Unifont Upper Medium';fill:#ffffff;fill-opacity:1"
       id="path4239-9-1"
       inkscape:connector-curvature="0" />
  </g>
  <g
     transform="matrix(0.25250353,0.15497709,-0.12564037,0.23133991,962.50316,689.08391)"
     style="font-style:normal;font-variant:normal;font-weight:bold;font-stretch:normal;font-size:265.84481812px;line-height:125%;font-family:'Times New Roman';-inkscape-font-specification:'Times New Roman';text-align:center;letter-spacing:0px;word-spacing:0px;writing-mode:lr-tb;text-anchor:middle;opacity:0.07;fill:#ffffff;fill-opacity:1;stroke:none;stroke-width:1px;stroke-linecap:butt;stroke-linejoin:miter;stroke-opacity:1"
     id="text4492-2-3-2">
    <path
       d="m 1179.056,-1186.659 56.4921,0 137.4916,259.40646 0,-259.40646 40.7075,0 0,310.08313 -56.492,0 -137.4917,-259.40643 0,259.40643 -40.7075,0 0,-310.08313 z m 116.5148,-45.069 -11.8384,-6.8538 q -5.1922,-2.9077 -8.5153,-3.9461 -3.1154,-1.2462 -5.6077,-1.2462 -7.4769,0 -11.6307,5.1923 -4.1538,5.1923 -4.1538,14.5384 l 0,1.2461 -25.9614,0 q 0,-20.9768 10.5922,-33.2306 10.8,-12.2538 28.6614,-12.2538 7.4769,0 13.7077,1.6616 6.4384,1.6615 16.4076,7.2692 l 11.8384,6.2307 q 4.7769,2.7 8.3076,3.9461 3.5308,1.2462 6.6462,1.2462 6.6461,0 10.7999,-5.1923 4.1538,-5.4 4.1538,-13.9153 l 0,-1.2462 25.9614,0 q -0.4153,20.7692 -11.2153,33.2307 -10.5922,12.2537 -28.0383,12.2537 -7.0615,0 -13.2923,-1.6615 -6.023,-1.6615 -16.823,-7.2692 z"
       style="font-style:normal;font-variant:normal;font-weight:500;font-stretch:normal;font-size:425.35177612px;font-family:'Unifont Upper';-inkscape-font-specification:'Unifont Upper Medium';fill:#ffffff;fill-opacity:1"
       id="path4251-7-4"
       inkscape:connector-curvature="0" />
  </g>
  <g
     transform="matrix(0,0.32260429,-0.24142743,0,1871.8351,125.30827)"
     style="font-style:normal;font-variant:normal;font-weight:bold;font-stretch:normal;font-size:276.40148926px;line-height:125%;font-family:'Times New Roman';-inkscape-font-specification:'Times New Roman';text-align:center;letter-spacing:0px;word-spacing:0px;writing-mode:lr-tb;text-anchor:middle;opacity:0.07;fill:#ffffff;fill-opacity:1;stroke:none;stroke-width:1px;stroke-linecap:butt;stroke-linejoin:miter;stroke-opacity:1"
     id="text4492-2-5-3-4-6-9-8">
    <path
       d="m 1522.833,-403.05965 203.8462,0 0,36.70959 -160.2265,0 0,95.44492 153.5324,0 0,36.70959 -153.5324,0 0,116.82286 164.1134,0 0,36.709589 -207.7331,0 0,-322.396549 z m 150.9412,322.396549 25.6967,0 q -9.7172,13.172263 -14.4679,22.673568 -4.5347,9.501305 -4.5347,16.195406 0,9.933183 5.8304,14.899774 6.0463,4.966591 17.7069,4.966591 6.9101,0 13.6042,-1.72751 6.6941,-1.511571 13.3882,-4.750652 l 0,28.7198529 q -8.2057,2.1593875 -15.5476,3.2390812 -7.3419,1.0796937 -13.8201,1.0796937 -26.3445,0 -38.869,-9.5013048 -12.3085,-9.285366 -12.3085,-29.36767 0,-10.365059 5.6144,-21.809813 5.8304,-11.228815 17.707,-24.617017 z"
       style="font-style:normal;font-variant:normal;font-weight:500;font-stretch:normal;font-size:442.24255371px;font-family:'Unifont Upper';-inkscape-font-specification:'Unifont Upper Medium';fill:#ffffff;fill-opacity:1"
       id="path4254-6-7"
       inkscape:connector-curvature="0" />
  </g>
  <g
     transform="matrix(0.28092117,0,0,0.27725047,1901.1725,934.6808)"
     style="font-style:normal;font-variant:normal;font-weight:bold;font-stretch:normal;font-size:430.631073px;line-height:125%;font-family:'Times New Roman';-inkscape-font-specification:'Times New Roman';text-align:center;letter-spacing:0px;word-spacing:0px;writing-mode:lr-tb;text-anchor:middle;opacity:0.07;fill:#ffffff;fill-opacity:1;stroke:none;stroke-width:1px;stroke-linecap:butt;stroke-linejoin:miter;stroke-opacity:1"
     id="text4492-2-5-9-7-0">
    <path
       d="m 844.19174,-1185.8699 c 10.50895,0 19.91169,8.02 19.91169,19.9117 0,10.509 -8.01999,19.9117 -19.91169,19.9117 -10.50896,0 -19.9117,-8.02 -19.9117,-19.9117 0,-10.5089 8.01999,-19.9117 19.9117,-19.9117 z m 232.30316,304.20653 c 31.2503,0 56.4165,-24.88962 56.4165,-56.41648 0,-35.67512 -29.3145,-53.65096 -45.3545,-53.92751 l 0,-227.60174 -50.0558,0 0,228.98449 c -52.26817,11.89171 -94.58053,30.6972 -126.93704,56.13993 l 0,-219.02872 c 0,-34.0158 -20.74135,-68.8613 -66.37232,-68.8613 -31.25031,0 -56.41648,24.8897 -56.41648,56.4165 0,31.2503 24.88962,56.4165 56.41648,56.4165 9.67929,0 14.65722,-0.2765 14.93377,-0.8296 l 0,223.1769 50.6089,0 c 44.80132,-30.1441 81.58265,-48.11993 110.34399,-53.65096 0,37.05788 27.102,59.18199 56.4165,59.18199 z m 0,-76.32818 c 10.5089,0 19.9117,8.01999 19.9117,19.9117 0,10.50895 -8.02,19.9117 -19.9117,19.9117 -10.509,0 -19.9117,-8.01999 -19.9117,-19.9117 0,-10.50895 8.02,-19.9117 19.9117,-19.9117 z"
       style="font-style:normal;font-variant:normal;font-weight:500;font-stretch:normal;font-size:566.37719727px;font-family:'Unifont Upper';-inkscape-font-specification:'Unifont Upper Medium';fill:#ffffff;fill-opacity:1"
       id="path4239-9-6"
       inkscape:connector-curvature="0" />
  </g>
  <g
     transform="matrix(0.25250353,0.15497709,-0.12564037,0.23133991,1963.6496,690.90572)"
     style="font-style:normal;font-variant:normal;font-weight:bold;font-stretch:normal;font-size:265.84481812px;line-height:125%;font-family:'Times New Roman';-inkscape-font-specification:'Times New Roman';text-align:center;letter-spacing:0px;word-spacing:0px;writing-mode:lr-tb;text-anchor:middle;opacity:0.07;fill:#ffffff;fill-opacity:1;stroke:none;stroke-width:1px;stroke-linecap:butt;stroke-linejoin:miter;stroke-opacity:1"
     id="text4492-2-3-5">
    <path
       d="m 1179.056,-1186.659 56.4921,0 137.4916,259.40646 0,-259.40646 40.7075,0 0,310.08313 -56.492,0 -137.4917,-259.40643 0,259.40643 -40.7075,0 0,-310.08313 z m 116.5148,-45.069 -11.8384,-6.8538 q -5.1922,-2.9077 -8.5153,-3.9461 -3.1154,-1.2462 -5.6077,-1.2462 -7.4769,0 -11.6307,5.1923 -4.1538,5.1923 -4.1538,14.5384 l 0,1.2461 -25.9614,0 q 0,-20.9768 10.5922,-33.2306 10.8,-12.2538 28.6614,-12.2538 7.4769,0 13.7077,1.6616 6.4384,1.6615 16.4076,7.2692 l 11.8384,6.2307 q 4.7769,2.7 8.3076,3.9461 3.5308,1.2462 6.6462,1.2462 6.6461,0 10.7999,-5.1923 4.1538,-5.4 4.1538,-13.9153 l 0,-1.2462 25.9614,0 q -0.4153,20.7692 -11.2153,33.2307 -10.5922,12.2537 -28.0383,12.2537 -7.0615,0 -13.2923,-1.6615 -6.023,-1.6615 -16.823,-7.2692 z"
       style="font-style:normal;font-variant:normal;font-weight:500;font-stretch:normal;font-size:425.35177612px;font-family:'Unifont Upper';-inkscape-font-specification:'Unifont Upper Medium';fill:#ffffff;fill-opacity:1"
       id="path4251-7-6"
       inkscape:connector-curvature="0" />
  </g>
  <path
     style="opacity:0.07;fill:#ffffff;fill-opacity:1;stroke:none"
     id="path43-3"
     d="m 512.54516,75.73808 c -1.2374,-5.825035 1.28435,-15.368259 5.16916,-21.515067 10.63674,-14.994219 25.98121,-16.886963 38.19149,-4.157529 4.89295,5.462653 12.29194,8.446526 15.9255,7.157011 5.63086,-2.045081 5.18176,-5.532 -2.86422,-20.346996 -5.364,-9.876673 -8.32552,-18.876318 -6.15859,-20.206283 2.16693,-1.329988 15.48897,19.653116 35.22087,55.985178 19.7319,36.331996 30.1647,59.088496 27.9977,60.418476 -2.1669,1.32997 -5.3356,-0.95801 -7.4429,-4.83811 -3.4483,-6.34932 -6.3596,-5.50313 -34.5297,11.78663 -24.91976,15.29482 -31.27299,17.78321 -33.57181,13.55041 -1.53262,-2.822 0.0156,-7.06439 3.26608,-9.05938 4.33387,-2.65997 4.9682,-6.81198 2.07267,-13.03008 -5.02488,-11.0255 -2.95219,-24.05558 3.90977,-28.26719 2.88924,-1.77332 6.39722,-0.63412 7.92979,2.18777 1.53258,2.82192 5.40166,3.73947 8.29093,1.96616 4.33387,-2.65996 2.54367,-8.616061 -8.56744,-29.074867 -15.32572,-28.219033 -21.83285,-32.220646 -36.64026,-23.13243 -11.19584,6.871582 -14.80105,17.079764 -9.82018,26.250924 2.49042,4.585598 5.06248,4.888237 8.26891,1.038988 4.79862,-6.237515 21.22658,-8.79523 24.10017,-3.50412 1.91571,3.527374 -2.44952,20.316063 -6.42225,22.754375 -11.557,7.09324 -30.40003,-7.209076 -34.32569,-25.96387 z m 29.02767,18.868677 c 5.80049,-2.61949 7.56226,-5.582073 5.64655,-9.109459 -2.10729,-3.880123 -6.31551,-3.648844 -12.45518,0.119455 -11.19583,6.871576 -5.70622,14.319571 6.80863,8.990004 z m 45.76344,29.290933 21.6693,-13.29984 -12.4521,-22.928028 c -9.7701,-17.989617 -13.5356,-22.26297 -17.8695,-19.602994 -3.97277,2.438297 -3.31011,7.205013 1.8623,16.728937 4.0231,7.407531 6.837,17.908725 5.8634,23.209415 -1.2687,8.30378 -2.5217,9.54315 -9.6852,8.76639 -4.59144,-0.47426 -9.60994,-3.50818 -11.14251,-6.33007 -2.49043,-4.5856 -3.57388,-3.92062 -5.99205,2.26676 -1.54825,4.24246 -1.01117,11.43792 1.47927,16.02353 4.40614,8.11295 5.68117,7.80073 26.26709,-4.8341 z"
     inkscape:connector-curvature="0" />
  <g
     transform="matrix(0.28092117,0,0,0.27725047,-200.98739,354.15251)"
     style="font-style:normal;font-variant:normal;font-weight:bold;font-stretch:normal;font-size:430.631073px;line-height:125%;font-family:'Times New Roman';-inkscape-font-specification:'Times New Roman';text-align:center;letter-spacing:0px;word-spacing:0px;writing-mode:lr-tb;text-anchor:middle;opacity:0.07;fill:#ffffff;fill-opacity:1;stroke:none;stroke-width:1px;stroke-linecap:butt;stroke-linejoin:miter;stroke-opacity:1"
     id="text4492-2-5-9">
    <path
       d="m 844.19174,-1185.8699 c 10.50895,0 19.91169,8.02 19.91169,19.9117 0,10.509 -8.01999,19.9117 -19.91169,19.9117 -10.50896,0 -19.9117,-8.02 -19.9117,-19.9117 0,-10.5089 8.01999,-19.9117 19.9117,-19.9117 z m 232.30316,304.20653 c 31.2503,0 56.4165,-24.88962 56.4165,-56.41648 0,-35.67512 -29.3145,-53.65096 -45.3545,-53.92751 l 0,-227.60174 -50.0558,0 0,228.98449 c -52.26817,11.89171 -94.58053,30.6972 -126.93704,56.13993 l 0,-219.02872 c 0,-34.0158 -20.74135,-68.8613 -66.37232,-68.8613 -31.25031,0 -56.41648,24.8897 -56.41648,56.4165 0,31.2503 24.88962,56.4165 56.41648,56.4165 9.67929,0 14.65722,-0.2765 14.93377,-0.8296 l 0,223.1769 50.6089,0 c 44.80132,-30.1441 81.58265,-48.11993 110.34399,-53.65096 0,37.05788 27.102,59.18199 56.4165,59.18199 z m 0,-76.32818 c 10.5089,0 19.9117,8.01999 19.9117,19.9117 0,10.50895 -8.02,19.9117 -19.9117,19.9117 -10.509,0 -19.9117,-8.01999 -19.9117,-19.9117 0,-10.50895 8.02,-19.9117 19.9117,-19.9117 z"
       style="font-style:normal;font-variant:normal;font-weight:500;font-stretch:normal;font-size:566.37719727px;font-family:'Unifont Upper';-inkscape-font-specification:'Unifont Upper Medium';fill:#ffffff;fill-opacity:1"
       id="path4239"
       inkscape:connector-curvature="0" />
  </g>
  <g
     transform="matrix(-0.26644781,0,0,-0.29231058,1176.6543,459.16527)"
     style="font-style:normal;font-variant:normal;font-weight:bold;font-stretch:normal;font-size:268.8117981px;line-height:125%;font-family:'Times New Roman';-inkscape-font-specification:'Times New Roman';text-align:center;letter-spacing:0px;word-spacing:0px;writing-mode:lr-tb;text-anchor:middle;opacity:0.07;fill:#ffffff;fill-opacity:1;stroke:none;stroke-width:1px;stroke-linecap:butt;stroke-linejoin:miter;stroke-opacity:1"
     id="text4492-2-5-8">
    <path
       d="m 891.8389,554.94366 -162.96718,0 -3.57016,-10.71048 166.53734,0 0,-95.13419 q 45.15199,0.84004 45.15199,11.3405 0,5.88026 -19.32085,12.39054 l 0,71.40315 114.45506,0 24.9911,-33.18146 q 17.4308,18.27081 30.4513,35.70158 l -4.8302,8.19036 -165.06726,0 0,271.75198 -25.83114,0 0,-271.75198 z m -166.32733,228.91009 -7.35033,-8.61038 q 73.50324,-65.10287 124.7455,-177.66783 34.44152,12.60055 34.44152,20.16089 0,5.88025 -18.48081,7.77034 -47.88211,95.76422 -133.35588,158.34698 z m 354.70563,-13.02057 q -44.522,-29.61131 -85.05374,-77.28341 -33.18146,-38.85171 -58.17257,-83.58369 l 8.19036,-7.35032 q 30.03133,43.68193 74.76335,83.16367 39.9017,35.07154 82.7436,58.80259 -13.8606,10.92048 -22.471,26.25116 z"
       style="font-style:normal;font-variant:normal;font-weight:normal;font-stretch:normal;font-size:430.09896851px;font-family:sans-serif;-inkscape-font-specification:sans-serif;fill:#ffffff;fill-opacity:1"
       id="path4245"
       inkscape:connector-curvature="0" />
  </g>
  <g
     transform="matrix(-0.12993403,0.23924577,-0.24415958,-0.1498559,723.05382,-151.22347)"
     style="font-style:normal;font-variant:normal;font-weight:bold;font-stretch:normal;font-size:282.61685181px;line-height:125%;font-family:'Times New Roman';-inkscape-font-specification:'Times New Roman';text-align:center;letter-spacing:0px;word-spacing:0px;writing-mode:lr-tb;text-anchor:middle;opacity:0.07;fill:#ffffff;fill-opacity:1;stroke:none;stroke-width:1px;stroke-linecap:butt;stroke-linejoin:miter;stroke-opacity:1"
     id="text4492-2-5-3-4">
    <path
       d="m 1890.3863,283.14169 -147.4907,-215.937005 48.1332,0 85.4475,125.190475 q 0.8831,-0.66239 2.4287,-1.76636 5.2991,-3.7535 8.1694,-6.18224 2.8703,-2.42874 7.7278,-8.1694 4.8575,-5.74066 7.507,-11.70211 2.6496,-6.18224 4.6367,-16.118 2.2079,-9.93575 2.2079,-22.07944 l 0,-59.172925 40.6262,0 0,40.846975 q 0,16.3388 -1.9871,30.24885 -1.9872,13.68926 -4.8575,23.40421 -2.8703,9.71496 -7.9486,18.32595 -5.0783,8.39019 -9.2734,13.46846 -4.1951,5.07827 -11.0397,10.37734 -6.6238,5.07827 -10.5981,7.50701 -3.9743,2.20795 -10.5982,5.74066 l 57.1858,81.69396 0,15.67641 -207.7676,0 0,-31.35282 147.4907,0 z"
       style="font-style:normal;font-variant:normal;font-weight:500;font-stretch:normal;font-size:452.18710327px;font-family:'Unifont Upper';-inkscape-font-specification:'Unifont Upper Medium';fill:#ffffff;fill-opacity:1"
       id="path4248"
       inkscape:connector-curvature="0" />
  </g>
  <g
     transform="matrix(0.25250353,0.15497709,-0.12564037,0.23133991,-137.92787,105.27548)"
     style="font-style:normal;font-variant:normal;font-weight:bold;font-stretch:normal;font-size:265.84481812px;line-height:125%;font-family:'Times New Roman';-inkscape-font-specification:'Times New Roman';text-align:center;letter-spacing:0px;word-spacing:0px;writing-mode:lr-tb;text-anchor:middle;opacity:0.07;fill:#ffffff;fill-opacity:1;stroke:none;stroke-width:1px;stroke-linecap:butt;stroke-linejoin:miter;stroke-opacity:1"
     id="text4492-2">
    <path
       d="m 1179.056,-1186.659 56.4921,0 137.4916,259.40646 0,-259.40646 40.7075,0 0,310.08313 -56.492,0 -137.4917,-259.40643 0,259.40643 -40.7075,0 0,-310.08313 z m 116.5148,-45.069 -11.8384,-6.8538 q -5.1922,-2.9077 -8.5153,-3.9461 -3.1154,-1.2462 -5.6077,-1.2462 -7.4769,0 -11.6307,5.1923 -4.1538,5.1923 -4.1538,14.5384 l 0,1.2461 -25.9614,0 q 0,-20.9768 10.5922,-33.2306 10.8,-12.2538 28.6614,-12.2538 7.4769,0 13.7077,1.6616 6.4384,1.6615 16.4076,7.2692 l 11.8384,6.2307 q 4.7769,2.7 8.3076,3.9461 3.5308,1.2462 6.6462,1.2462 6.6461,0 10.7999,-5.1923 4.1538,-5.4 4.1538,-13.9153 l 0,-1.2462 25.9614,0 q -0.4153,20.7692 -11.2153,33.2307 -10.5922,12.2537 -28.0383,12.2537 -7.0615,0 -13.2923,-1.6615 -6.023,-1.6615 -16.823,-7.2692 z"
       style="font-style:normal;font-variant:normal;font-weight:500;font-stretch:normal;font-size:425.35177612px;font-family:'Unifont Upper';-inkscape-font-specification:'Unifont Upper Medium';fill:#ffffff;fill-opacity:1"
       id="path4251"
       inkscape:connector-curvature="0" />
  </g>
  <g
     transform="matrix(0,0.32260429,-0.24142743,0,771.41032,-445.91909)"
     style="font-style:normal;font-variant:normal;font-weight:bold;font-stretch:normal;font-size:276.40148926px;line-height:125%;font-family:'Times New Roman';-inkscape-font-specification:'Times New Roman';text-align:center;letter-spacing:0px;word-spacing:0px;writing-mode:lr-tb;text-anchor:middle;opacity:0.07;fill:#ffffff;fill-opacity:1;stroke:none;stroke-width:1px;stroke-linecap:butt;stroke-linejoin:miter;stroke-opacity:1"
     id="text4492-2-5-3-4-6">
    <path
       d="m 1522.833,-403.05965 203.8462,0 0,36.70959 -160.2265,0 0,95.44492 153.5324,0 0,36.70959 -153.5324,0 0,116.82286 164.1134,0 0,36.709589 -207.7331,0 0,-322.396549 z m 150.9412,322.396549 25.6967,0 q -9.7172,13.172263 -14.4679,22.673568 -4.5347,9.501305 -4.5347,16.195406 0,9.933183 5.8304,14.899774 6.0463,4.966591 17.7069,4.966591 6.9101,0 13.6042,-1.72751 6.6941,-1.511571 13.3882,-4.750652 l 0,28.7198529 q -8.2057,2.1593875 -15.5476,3.2390812 -7.3419,1.0796937 -13.8201,1.0796937 -26.3445,0 -38.869,-9.5013048 -12.3085,-9.285366 -12.3085,-29.36767 0,-10.365059 5.6144,-21.809813 5.8304,-11.228815 17.707,-24.617017 z"
       style="font-style:normal;font-variant:normal;font-weight:500;font-stretch:normal;font-size:442.24255371px;font-family:'Unifont Upper';-inkscape-font-specification:'Unifont Upper Medium';fill:#ffffff;fill-opacity:1"
       id="path4254"
       inkscape:connector-curvature="0" />
  </g>
  <g
     transform="matrix(-0.23736349,0.14568471,-0.13365424,-0.24609573,1104.3241,205.65233)"
     style="font-style:normal;font-variant:normal;font-weight:bold;font-stretch:normal;font-size:334.26885986px;line-height:125%;font-family:'Times New Roman';-inkscape-font-specification:'Times New Roman';text-align:center;letter-spacing:0px;word-spacing:0px;writing-mode:lr-tb;text-anchor:middle;opacity:0.07;fill:#ffffff;fill-opacity:1;stroke:none;stroke-width:1px;stroke-linecap:butt;stroke-linejoin:miter;stroke-opacity:1"
     id="text4492-2-5-3-0">
    <path
       d="m 1509.1848,663.72862 q -6.2675,46.74542 -28.2039,74.68821 -34.7326,44.39509 -85.1341,60.58624 -20.8918,6.78984 -52.2295,6.78984 -33.4269,-0.26115 -61.892,-7.57328 -71.8156,-18.54148 -71.8156,-104.19789 0,-64.2423 27.4205,-111.24887 l 48.0512,0 q -28.204,53.7964 -27.9428,111.24887 0.2611,46.74542 38.6498,56.66903 24.809,6.26754 45.962,6.26754 25.5925,0 50.4015,-9.66246 31.5988,-12.53508 56.1467,-53.7964 16.7134,-28.20394 16.4523,-65.2869 -0.2611,-32.64345 -4.4395,-48.57345 l -16.7135,-61.10854 48.0512,0 9.4013,40.73903 q 4.1784,19.32492 11.4905,34.99377 15.4077,33.68804 45.4397,33.68804 21.4141,0 32.9046,-31.86 9.6624,-26.8982 9.6624,-77.56084 l 48.0512,0 q 0,53.53526 4.9618,66.59264 16.7135,44.13394 45.4397,44.13394 37.0829,0 37.0829,-73.12132 l 0,-76.7774 48.0512,0 0,89.31248 q 0,51.96837 -24.0256,81.47805 -19.586,24.02558 -46.2231,30.29312 -9.6625,2.35033 -18.0192,2.35033 -19.0638,0 -31.5988,-6.52869 -36.0384,-18.28033 -40.4779,-50.40149 -12.7962,41.52247 -37.6053,49.3569 -13.0574,3.91721 -31.3377,4.70065 -34.4715,1.56689 -45.962,-16.19115 z m 25.8537,-301.88661 39.1721,0 0,39.17214 -39.1721,0 0,-39.17214 z m 32.6434,65.2869 39.1721,0 0,39.17214 -39.1721,0 0,-39.17214 z m -65.2869,0 39.1721,0 0,39.17214 -39.1721,0 0,-39.17214 z"
       style="font-style:normal;font-variant:normal;font-weight:500;font-stretch:normal;font-size:534.83026123px;font-family:'Unifont Upper';-inkscape-font-specification:'Unifont Upper Medium';fill:#ffffff;fill-opacity:1"
       id="path4257"
       inkscape:connector-curvature="0" />
  </g>
  <g
     transform="matrix(-0.23625818,-0.14500632,0.13427952,-0.24724706,211.64459,444.97572)"
     style="font-style:normal;font-variant:normal;font-weight:bold;font-stretch:normal;font-size:256.13851929px;line-height:125%;font-family:'Times New Roman';-inkscape-font-specification:'Times New Roman';text-align:center;letter-spacing:0px;word-spacing:0px;writing-mode:lr-tb;text-anchor:middle;opacity:0.07;fill:#ffffff;fill-opacity:1;stroke:none;stroke-width:1px;stroke-linecap:butt;stroke-linejoin:miter;stroke-opacity:1"
     id="text4492-2-5-3-6-8-7">
    <path
       d="m 574.88449,598.78613 0,35.61927 -120.06496,0 0,-35.61927 q 35.41917,-19.41051 55.22988,-52.62848 19.81072,-33.21797 19.81072,-73.63984 0,-48.02598 -26.41429,-77.04168 -26.41429,-29.01569 -69.63767,-29.01569 -43.22339,0 -69.83779,29.2158 -26.41429,29.0157 -26.41429,76.84157 0,40.42187 19.81072,73.63984 20.01083,33.21797 55.6301,52.62848 l 0,35.61927 -120.06496,0 0,-35.61927 63.83454,0 q -31.61711,-27.81505 -46.22501,-57.63118 -14.4078,-29.81613 -14.4078,-66.63605 0,-63.63443 38.42079,-103.05576 38.22068,-39.42133 99.2537,-39.42133 60.6328,0 99.25369,39.42133 38.42079,39.22122 38.42079,101.05467 0,38.82101 -14.20769,68.43703 -14.20768,29.61602 -46.42511,57.83129 l 64.03464,0 z"
       style="font-style:normal;font-variant:normal;font-weight:500;font-stretch:normal;font-size:409.82171631px;font-family:'Unifont Upper';-inkscape-font-specification:'Unifont Upper Medium';fill:#ffffff;fill-opacity:1"
       id="path4242-6-1-2"
       inkscape:connector-curvature="0" />
  </g>
  <g
     transform="matrix(-0.26644781,0,0,-0.29231058,1038.5216,1011.8166)"
     style="font-style:normal;font-variant:normal;font-weight:bold;font-stretch:normal;font-size:268.8117981px;line-height:125%;font-family:'Times New Roman';-inkscape-font-specification:'Times New Roman';text-align:center;letter-spacing:0px;word-spacing:0px;writing-mode:lr-tb;text-anchor:middle;opacity:0.07;fill:#ffffff;fill-opacity:1;stroke:none;stroke-width:1px;stroke-linecap:butt;stroke-linejoin:miter;stroke-opacity:1"
     id="text4492-2-5-8-3">
    <path
       d="m 891.8389,554.94366 -162.96718,0 -3.57016,-10.71048 166.53734,0 0,-95.13419 q 45.15199,0.84004 45.15199,11.3405 0,5.88026 -19.32085,12.39054 l 0,71.40315 114.45506,0 24.9911,-33.18146 q 17.4308,18.27081 30.4513,35.70158 l -4.8302,8.19036 -165.06726,0 0,271.75198 -25.83114,0 0,-271.75198 z m -166.32733,228.91009 -7.35033,-8.61038 q 73.50324,-65.10287 124.7455,-177.66783 34.44152,12.60055 34.44152,20.16089 0,5.88025 -18.48081,7.77034 -47.88211,95.76422 -133.35588,158.34698 z m 354.70563,-13.02057 q -44.522,-29.61131 -85.05374,-77.28341 -33.18146,-38.85171 -58.17257,-83.58369 l 8.19036,-7.35032 q 30.03133,43.68193 74.76335,83.16367 39.9017,35.07154 82.7436,58.80259 -13.8606,10.92048 -22.471,26.25116 z"
       style="font-style:normal;font-variant:normal;font-weight:normal;font-stretch:normal;font-size:430.09896851px;font-family:sans-serif;-inkscape-font-specification:sans-serif;fill:#ffffff;fill-opacity:1"
       id="path4245-2"
       inkscape:connector-curvature="0" />
  </g>
  <g
     transform="matrix(-0.12993403,0.23924577,-0.24415958,-0.1498559,584.92114,414.00896)"
     style="font-style:normal;font-variant:normal;font-weight:bold;font-stretch:normal;font-size:282.61685181px;line-height:125%;font-family:'Times New Roman';-inkscape-font-specification:'Times New Roman';text-align:center;letter-spacing:0px;word-spacing:0px;writing-mode:lr-tb;text-anchor:middle;opacity:0.07;fill:#ffffff;fill-opacity:1;stroke:none;stroke-width:1px;stroke-linecap:butt;stroke-linejoin:miter;stroke-opacity:1"
     id="text4492-2-5-3-4-2">
    <path
       d="m 1890.3863,283.14169 -147.4907,-215.937005 48.1332,0 85.4475,125.190475 q 0.8831,-0.66239 2.4287,-1.76636 5.2991,-3.7535 8.1694,-6.18224 2.8703,-2.42874 7.7278,-8.1694 4.8575,-5.74066 7.507,-11.70211 2.6496,-6.18224 4.6367,-16.118 2.2079,-9.93575 2.2079,-22.07944 l 0,-59.172925 40.6262,0 0,40.846975 q 0,16.3388 -1.9871,30.24885 -1.9872,13.68926 -4.8575,23.40421 -2.8703,9.71496 -7.9486,18.32595 -5.0783,8.39019 -9.2734,13.46846 -4.1951,5.07827 -11.0397,10.37734 -6.6238,5.07827 -10.5981,7.50701 -3.9743,2.20795 -10.5982,5.74066 l 57.1858,81.69396 0,15.67641 -207.7676,0 0,-31.35282 147.4907,0 z"
       style="font-style:normal;font-variant:normal;font-weight:500;font-stretch:normal;font-size:452.18710327px;font-family:'Unifont Upper';-inkscape-font-specification:'Unifont Upper Medium';fill:#ffffff;fill-opacity:1"
       id="path4248-4"
       inkscape:connector-curvature="0" />
  </g>
  <g
     transform="matrix(-0.23736349,0.14568471,-0.13365424,-0.24609573,966.19135,761.0695)"
     style="font-style:normal;font-variant:normal;font-weight:bold;font-stretch:normal;font-size:334.26885986px;line-height:125%;font-family:'Times New Roman';-inkscape-font-specification:'Times New Roman';text-align:center;letter-spacing:0px;word-spacing:0px;writing-mode:lr-tb;text-anchor:middle;opacity:0.07;fill:#ffffff;fill-opacity:1;stroke:none;stroke-width:1px;stroke-linecap:butt;stroke-linejoin:miter;stroke-opacity:1"
     id="text4492-2-5-3-0-3">
    <path
       d="m 1509.1848,663.72862 q -6.2675,46.74542 -28.2039,74.68821 -34.7326,44.39509 -85.1341,60.58624 -20.8918,6.78984 -52.2295,6.78984 -33.4269,-0.26115 -61.892,-7.57328 -71.8156,-18.54148 -71.8156,-104.19789 0,-64.2423 27.4205,-111.24887 l 48.0512,0 q -28.204,53.7964 -27.9428,111.24887 0.2611,46.74542 38.6498,56.66903 24.809,6.26754 45.962,6.26754 25.5925,0 50.4015,-9.66246 31.5988,-12.53508 56.1467,-53.7964 16.7134,-28.20394 16.4523,-65.2869 -0.2611,-32.64345 -4.4395,-48.57345 l -16.7135,-61.10854 48.0512,0 9.4013,40.73903 q 4.1784,19.32492 11.4905,34.99377 15.4077,33.68804 45.4397,33.68804 21.4141,0 32.9046,-31.86 9.6624,-26.8982 9.6624,-77.56084 l 48.0512,0 q 0,53.53526 4.9618,66.59264 16.7135,44.13394 45.4397,44.13394 37.0829,0 37.0829,-73.12132 l 0,-76.7774 48.0512,0 0,89.31248 q 0,51.96837 -24.0256,81.47805 -19.586,24.02558 -46.2231,30.29312 -9.6625,2.35033 -18.0192,2.35033 -19.0638,0 -31.5988,-6.52869 -36.0384,-18.28033 -40.4779,-50.40149 -12.7962,41.52247 -37.6053,49.3569 -13.0574,3.91721 -31.3377,4.70065 -34.4715,1.56689 -45.962,-16.19115 z m 25.8537,-301.88661 39.1721,0 0,39.17214 -39.1721,0 0,-39.17214 z m 32.6434,65.2869 39.1721,0 0,39.17214 -39.1721,0 0,-39.17214 z m -65.2869,0 39.1721,0 0,39.17214 -39.1721,0 0,-39.17214 z"
       style="font-style:normal;font-variant:normal;font-weight:500;font-stretch:normal;font-size:534.83026123px;font-family:'Unifont Upper';-inkscape-font-specification:'Unifont Upper Medium';fill:#ffffff;fill-opacity:1"
       id="path4257-0"
       inkscape:connector-curvature="0" />
  </g>
  <g
     transform="matrix(-0.23625818,-0.14500632,0.13427952,-0.24724706,73.511878,1005.1062)"
     style="font-style:normal;font-variant:normal;font-weight:bold;font-stretch:normal;font-size:256.13851929px;line-height:125%;font-family:'Times New Roman';-inkscape-font-specification:'Times New Roman';text-align:center;letter-spacing:0px;word-spacing:0px;writing-mode:lr-tb;text-anchor:middle;opacity:0.07;fill:#ffffff;fill-opacity:1;stroke:none;stroke-width:1px;stroke-linecap:butt;stroke-linejoin:miter;stroke-opacity:1"
     id="text4492-2-5-3-6-8-7-2">
    <path
       d="m 574.88449,598.78613 0,35.61927 -120.06496,0 0,-35.61927 q 35.41917,-19.41051 55.22988,-52.62848 19.81072,-33.21797 19.81072,-73.63984 0,-48.02598 -26.41429,-77.04168 -26.41429,-29.01569 -69.63767,-29.01569 -43.22339,0 -69.83779,29.2158 -26.41429,29.0157 -26.41429,76.84157 0,40.42187 19.81072,73.63984 20.01083,33.21797 55.6301,52.62848 l 0,35.61927 -120.06496,0 0,-35.61927 63.83454,0 q -31.61711,-27.81505 -46.22501,-57.63118 -14.4078,-29.81613 -14.4078,-66.63605 0,-63.63443 38.42079,-103.05576 38.22068,-39.42133 99.2537,-39.42133 60.6328,0 99.25369,39.42133 38.42079,39.22122 38.42079,101.05467 0,38.82101 -14.20769,68.43703 -14.20768,29.61602 -46.42511,57.83129 l 64.03464,0 z"
       style="font-style:normal;font-variant:normal;font-weight:500;font-stretch:normal;font-size:409.82171631px;font-family:'Unifont Upper';-inkscape-font-specification:'Unifont Upper Medium';fill:#ffffff;fill-opacity:1"
       id="path4242-6-1-2-8"
       inkscape:connector-curvature="0" />
  </g>
  <path
     style="opacity:0.07;fill:#ffffff;fill-opacity:1;stroke:none"
     id="path43-3-47"
     d="m 1513.4952,75.20775 c -1.2374,-5.82504 1.2843,-15.36826 5.1691,-21.51507 10.6368,-14.99422 25.9813,-16.88696 38.1915,-4.15753 4.893,5.46266 12.292,8.44653 15.9255,7.15701 5.6309,-2.04508 5.1818,-5.532 -2.8642,-20.34699 -5.364,-9.87668 -8.3255,-18.87632 -6.1586,-20.20629 2.167,-1.32998 15.489,19.65312 35.2209,55.98518 19.7319,36.332 30.1647,59.0885 27.9977,60.41848 -2.1669,1.32997 -5.3356,-0.95801 -7.4429,-4.83811 -3.4483,-6.34932 -6.3596,-5.50313 -34.5297,11.78663 -24.9198,15.29482 -31.273,17.78321 -33.5718,13.55041 -1.5326,-2.822 0.016,-7.06439 3.2661,-9.05938 4.3338,-2.65997 4.9682,-6.81198 2.0726,-13.03008 -5.0248,-11.0255 -2.9522,-24.05558 3.9098,-28.26719 2.8892,-1.77332 6.3972,-0.63412 7.9298,2.18777 1.5326,2.82192 5.4017,3.73947 8.2909,1.96616 4.3339,-2.65996 2.5437,-8.616057 -8.5674,-29.07487 -15.3257,-28.21903 -21.8329,-32.22064 -36.6403,-23.13243 -11.1958,6.87158 -14.801,17.07977 -9.8202,26.25093 2.4905,4.58559 5.0625,4.88823 8.269,1.03898 4.7986,-6.23751 21.2265,-8.79523 24.1001,-3.50412 1.9157,3.52738 -2.4495,20.316073 -6.4222,22.75438 -11.557,7.09324 -30.4001,-7.209077 -34.3257,-25.96387 z m 29.0277,18.868683 c 5.8004,-2.61949 7.5622,-5.582083 5.6465,-9.109463 -2.1073,-3.88013 -6.3155,-3.64885 -12.4552,0.11945 -11.1958,6.871583 -5.7062,14.319573 6.8087,8.990013 z m 45.7634,29.290927 21.6693,-13.29984 -12.4521,-22.92803 c -9.7701,-17.98962 -13.5356,-22.26297 -17.8695,-19.60299 -3.9728,2.43829 -3.3101,7.20501 1.8623,16.72893 4.0231,7.407533 6.837,17.90873 5.8634,23.20942 -1.2687,8.30378 -2.5217,9.54315 -9.6852,8.76639 -4.5914,-0.47426 -9.6099,-3.50818 -11.1425,-6.33007 -2.4904,-4.5856 -3.5739,-3.92062 -5.9921,2.26676 -1.5482,4.24246 -1.0111,11.43792 1.4793,16.02353 4.4061,8.11295 5.6812,7.80073 26.2671,-4.8341 z"
     inkscape:connector-curvature="0" />
  <g
     transform="matrix(0.28092117,0,0,0.27725047,799.96266,363.17534)"
     style="font-style:normal;font-variant:normal;font-weight:bold;font-stretch:normal;font-size:430.631073px;line-height:125%;font-family:'Times New Roman';-inkscape-font-specification:'Times New Roman';text-align:center;letter-spacing:0px;word-spacing:0px;writing-mode:lr-tb;text-anchor:middle;opacity:0.07;fill:#ffffff;fill-opacity:1;stroke:none;stroke-width:1px;stroke-linecap:butt;stroke-linejoin:miter;stroke-opacity:1"
     id="text4492-2-5-9-76">
    <path
       d="m 844.19174,-1185.8699 c 10.50895,0 19.91169,8.02 19.91169,19.9117 0,10.509 -8.01999,19.9117 -19.91169,19.9117 -10.50896,0 -19.9117,-8.02 -19.9117,-19.9117 0,-10.5089 8.01999,-19.9117 19.9117,-19.9117 z m 232.30316,304.20653 c 31.2503,0 56.4165,-24.88962 56.4165,-56.41648 0,-35.67512 -29.3145,-53.65096 -45.3545,-53.92751 l 0,-227.60174 -50.0558,0 0,228.98449 c -52.26817,11.89171 -94.58053,30.6972 -126.93704,56.13993 l 0,-219.02872 c 0,-34.0158 -20.74135,-68.8613 -66.37232,-68.8613 -31.25031,0 -56.41648,24.8897 -56.41648,56.4165 0,31.2503 24.88962,56.4165 56.41648,56.4165 9.67929,0 14.65722,-0.2765 14.93377,-0.8296 l 0,223.1769 50.6089,0 c 44.80132,-30.1441 81.58265,-48.11993 110.34399,-53.65096 0,37.05788 27.102,59.18199 56.4165,59.18199 z m 0,-76.32818 c 10.5089,0 19.9117,8.01999 19.9117,19.9117 0,10.50895 -8.02,19.9117 -19.9117,19.9117 -10.509,0 -19.9117,-8.01999 -19.9117,-19.9117 0,-10.50895 8.02,-19.9117 19.9117,-19.9117 z"
       style="font-style:normal;font-variant:normal;font-weight:500;font-stretch:normal;font-size:566.37719727px;font-family:'Unifont Upper';-inkscape-font-specification:'Unifont Upper Medium';fill:#ffffff;fill-opacity:1"
       id="path4239-4"
       inkscape:connector-curvature="0" />
  </g>
  <g
     transform="matrix(-0.26644781,0,0,-0.29231058,2186.8904,468.18811)"
     style="font-style:normal;font-variant:normal;font-weight:bold;font-stretch:normal;font-size:268.8117981px;line-height:125%;font-family:'Times New Roman';-inkscape-font-specification:'Times New Roman';text-align:center;letter-spacing:0px;word-spacing:0px;writing-mode:lr-tb;text-anchor:middle;opacity:0.07;fill:#ffffff;fill-opacity:1;stroke:none;stroke-width:1px;stroke-linecap:butt;stroke-linejoin:miter;stroke-opacity:1"
     id="text4492-2-5-8-33">
    <path
       d="m 891.8389,554.94366 -162.96718,0 -3.57016,-10.71048 166.53734,0 0,-95.13419 q 45.15199,0.84004 45.15199,11.3405 0,5.88026 -19.32085,12.39054 l 0,71.40315 114.45506,0 24.9911,-33.18146 q 17.4308,18.27081 30.4513,35.70158 l -4.8302,8.19036 -165.06726,0 0,271.75198 -25.83114,0 0,-271.75198 z m -166.32733,228.91009 -7.35033,-8.61038 q 73.50324,-65.10287 124.7455,-177.66783 34.44152,12.60055 34.44152,20.16089 0,5.88025 -18.48081,7.77034 -47.88211,95.76422 -133.35588,158.34698 z m 354.70563,-13.02057 q -44.522,-29.61131 -85.05374,-77.28341 -33.18146,-38.85171 -58.17257,-83.58369 l 8.19036,-7.35032 q 30.03133,43.68193 74.76335,83.16367 39.9017,35.07154 82.7436,58.80259 -13.8606,10.92048 -22.471,26.25116 z"
       style="font-style:normal;font-variant:normal;font-weight:normal;font-stretch:normal;font-size:430.09896851px;font-family:sans-serif;-inkscape-font-specification:sans-serif;fill:#ffffff;fill-opacity:1"
       id="path4245-3"
       inkscape:connector-curvature="0" />
  </g>
  <g
     transform="matrix(-0.12993403,0.23924577,-0.24415958,-0.1498559,1733.29,-142.20063)"
     style="font-style:normal;font-variant:normal;font-weight:bold;font-stretch:normal;font-size:282.61685181px;line-height:125%;font-family:'Times New Roman';-inkscape-font-specification:'Times New Roman';text-align:center;letter-spacing:0px;word-spacing:0px;writing-mode:lr-tb;text-anchor:middle;opacity:0.07;fill:#ffffff;fill-opacity:1;stroke:none;stroke-width:1px;stroke-linecap:butt;stroke-linejoin:miter;stroke-opacity:1"
     id="text4492-2-5-3-4-7">
    <path
       d="m 1890.3863,283.14169 -147.4907,-215.937005 48.1332,0 85.4475,125.190475 q 0.8831,-0.66239 2.4287,-1.76636 5.2991,-3.7535 8.1694,-6.18224 2.8703,-2.42874 7.7278,-8.1694 4.8575,-5.74066 7.507,-11.70211 2.6496,-6.18224 4.6367,-16.118 2.2079,-9.93575 2.2079,-22.07944 l 0,-59.172925 40.6262,0 0,40.846975 q 0,16.3388 -1.9871,30.24885 -1.9872,13.68926 -4.8575,23.40421 -2.8703,9.71496 -7.9486,18.32595 -5.0783,8.39019 -9.2734,13.46846 -4.1951,5.07827 -11.0397,10.37734 -6.6238,5.07827 -10.5981,7.50701 -3.9743,2.20795 -10.5982,5.74066 l 57.1858,81.69396 0,15.67641 -207.7676,0 0,-31.35282 147.4907,0 z"
       style="font-style:normal;font-variant:normal;font-weight:500;font-stretch:normal;font-size:452.18710327px;font-family:'Unifont Upper';-inkscape-font-specification:'Unifont Upper Medium';fill:#ffffff;fill-opacity:1"
       id="path4248-8"
       inkscape:connector-curvature="0" />
  </g>
  <g
     transform="matrix(0.25250353,0.15497709,-0.12564037,0.23133991,863.02218,114.29832)"
     style="font-style:normal;font-variant:normal;font-weight:bold;font-stretch:normal;font-size:265.84481812px;line-height:125%;font-family:'Times New Roman';-inkscape-font-specification:'Times New Roman';text-align:center;letter-spacing:0px;word-spacing:0px;writing-mode:lr-tb;text-anchor:middle;opacity:0.07;fill:#ffffff;fill-opacity:1;stroke:none;stroke-width:1px;stroke-linecap:butt;stroke-linejoin:miter;stroke-opacity:1"
     id="text4492-2-8">
    <path
       d="m 1179.056,-1186.659 56.4921,0 137.4916,259.40646 0,-259.40646 40.7075,0 0,310.08313 -56.492,0 -137.4917,-259.40643 0,259.40643 -40.7075,0 0,-310.08313 z m 116.5148,-45.069 -11.8384,-6.8538 q -5.1922,-2.9077 -8.5153,-3.9461 -3.1154,-1.2462 -5.6077,-1.2462 -7.4769,0 -11.6307,5.1923 -4.1538,5.1923 -4.1538,14.5384 l 0,1.2461 -25.9614,0 q 0,-20.9768 10.5922,-33.2306 10.8,-12.2538 28.6614,-12.2538 7.4769,0 13.7077,1.6616 6.4384,1.6615 16.4076,7.2692 l 11.8384,6.2307 q 4.7769,2.7 8.3076,3.9461 3.5308,1.2462 6.6462,1.2462 6.6461,0 10.7999,-5.1923 4.1538,-5.4 4.1538,-13.9153 l 0,-1.2462 25.9614,0 q -0.4153,20.7692 -11.2153,33.2307 -10.5922,12.2537 -28.0383,12.2537 -7.0615,0 -13.2923,-1.6615 -6.023,-1.6615 -16.823,-7.2692 z"
       style="font-style:normal;font-variant:normal;font-weight:500;font-stretch:normal;font-size:425.35177612px;font-family:'Unifont Upper';-inkscape-font-specification:'Unifont Upper Medium';fill:#ffffff;fill-opacity:1"
       id="path4251-1"
       inkscape:connector-curvature="0" />
  </g>
  <g
     transform="matrix(0,0.32260429,-0.24142743,0,1772.3604,-436.89625)"
     style="font-style:normal;font-variant:normal;font-weight:bold;font-stretch:normal;font-size:276.40148926px;line-height:125%;font-family:'Times New Roman';-inkscape-font-specification:'Times New Roman';text-align:center;letter-spacing:0px;word-spacing:0px;writing-mode:lr-tb;text-anchor:middle;opacity:0.07;fill:#ffffff;fill-opacity:1;stroke:none;stroke-width:1px;stroke-linecap:butt;stroke-linejoin:miter;stroke-opacity:1"
     id="text4492-2-5-3-4-6-3">
    <path
       d="m 1522.833,-403.05965 203.8462,0 0,36.70959 -160.2265,0 0,95.44492 153.5324,0 0,36.70959 -153.5324,0 0,116.82286 164.1134,0 0,36.709589 -207.7331,0 0,-322.396549 z m 150.9412,322.396549 25.6967,0 q -9.7172,13.172263 -14.4679,22.673568 -4.5347,9.501305 -4.5347,16.195406 0,9.933183 5.8304,14.899774 6.0463,4.966591 17.7069,4.966591 6.9101,0 13.6042,-1.72751 6.6941,-1.511571 13.3882,-4.750652 l 0,28.7198529 q -8.2057,2.1593875 -15.5476,3.2390812 -7.3419,1.0796937 -13.8201,1.0796937 -26.3445,0 -38.869,-9.5013048 -12.3085,-9.285366 -12.3085,-29.36767 0,-10.365059 5.6144,-21.809813 5.8304,-11.228815 17.707,-24.617017 z"
       style="font-style:normal;font-variant:normal;font-weight:500;font-stretch:normal;font-size:442.24255371px;font-family:'Unifont Upper';-inkscape-font-specification:'Unifont Upper Medium';fill:#ffffff;fill-opacity:1"
       id="path4254-5"
       inkscape:connector-curvature="0" />
  </g>
  <g
     transform="matrix(-0.23736349,0.14568471,-0.13365424,-0.24609573,2114.5602,214.67517)"
     style="font-style:normal;font-variant:normal;font-weight:bold;font-stretch:normal;font-size:334.26885986px;line-height:125%;font-family:'Times New Roman';-inkscape-font-specification:'Times New Roman';text-align:center;letter-spacing:0px;word-spacing:0px;writing-mode:lr-tb;text-anchor:middle;opacity:0.07;fill:#ffffff;fill-opacity:1;stroke:none;stroke-width:1px;stroke-linecap:butt;stroke-linejoin:miter;stroke-opacity:1"
     id="text4492-2-5-3-0-39">
    <path
       d="m 1509.1848,663.72862 q -6.2675,46.74542 -28.2039,74.68821 -34.7326,44.39509 -85.1341,60.58624 -20.8918,6.78984 -52.2295,6.78984 -33.4269,-0.26115 -61.892,-7.57328 -71.8156,-18.54148 -71.8156,-104.19789 0,-64.2423 27.4205,-111.24887 l 48.0512,0 q -28.204,53.7964 -27.9428,111.24887 0.2611,46.74542 38.6498,56.66903 24.809,6.26754 45.962,6.26754 25.5925,0 50.4015,-9.66246 31.5988,-12.53508 56.1467,-53.7964 16.7134,-28.20394 16.4523,-65.2869 -0.2611,-32.64345 -4.4395,-48.57345 l -16.7135,-61.10854 48.0512,0 9.4013,40.73903 q 4.1784,19.32492 11.4905,34.99377 15.4077,33.68804 45.4397,33.68804 21.4141,0 32.9046,-31.86 9.6624,-26.8982 9.6624,-77.56084 l 48.0512,0 q 0,53.53526 4.9618,66.59264 16.7135,44.13394 45.4397,44.13394 37.0829,0 37.0829,-73.12132 l 0,-76.7774 48.0512,0 0,89.31248 q 0,51.96837 -24.0256,81.47805 -19.586,24.02558 -46.2231,30.29312 -9.6625,2.35033 -18.0192,2.35033 -19.0638,0 -31.5988,-6.52869 -36.0384,-18.28033 -40.4779,-50.40149 -12.7962,41.52247 -37.6053,49.3569 -13.0574,3.91721 -31.3377,4.70065 -34.4715,1.56689 -45.962,-16.19115 z m 25.8537,-301.88661 39.1721,0 0,39.17214 -39.1721,0 0,-39.17214 z m 32.6434,65.2869 39.1721,0 0,39.17214 -39.1721,0 0,-39.17214 z m -65.2869,0 39.1721,0 0,39.17214 -39.1721,0 0,-39.17214 z"
       style="font-style:normal;font-variant:normal;font-weight:500;font-stretch:normal;font-size:534.83026123px;font-family:'Unifont Upper';-inkscape-font-specification:'Unifont Upper Medium';fill:#ffffff;fill-opacity:1"
       id="path4257-8"
       inkscape:connector-curvature="0" />
  </g>
  <g
     transform="matrix(-0.23625818,-0.14500632,0.13427952,-0.24724706,1221.8807,453.99851)"
     style="font-style:normal;font-variant:normal;font-weight:bold;font-stretch:normal;font-size:256.13851929px;line-height:125%;font-family:'Times New Roman';-inkscape-font-specification:'Times New Roman';text-align:center;letter-spacing:0px;word-spacing:0px;writing-mode:lr-tb;text-anchor:middle;opacity:0.07;fill:#ffffff;fill-opacity:1;stroke:none;stroke-width:1px;stroke-linecap:butt;stroke-linejoin:miter;stroke-opacity:1"
     id="text4492-2-5-3-6-8-7-5">
    <path
       d="m 574.88449,598.78613 0,35.61927 -120.06496,0 0,-35.61927 q 35.41917,-19.41051 55.22988,-52.62848 19.81072,-33.21797 19.81072,-73.63984 0,-48.02598 -26.41429,-77.04168 -26.41429,-29.01569 -69.63767,-29.01569 -43.22339,0 -69.83779,29.2158 -26.41429,29.0157 -26.41429,76.84157 0,40.42187 19.81072,73.63984 20.01083,33.21797 55.6301,52.62848 l 0,35.61927 -120.06496,0 0,-35.61927 63.83454,0 q -31.61711,-27.81505 -46.22501,-57.63118 -14.4078,-29.81613 -14.4078,-66.63605 0,-63.63443 38.42079,-103.05576 38.22068,-39.42133 99.2537,-39.42133 60.6328,0 99.25369,39.42133 38.42079,39.22122 38.42079,101.05467 0,38.82101 -14.20769,68.43703 -14.20768,29.61602 -46.42511,57.83129 l 64.03464,0 z"
       style="font-style:normal;font-variant:normal;font-weight:500;font-stretch:normal;font-size:409.82171631px;font-family:'Unifont Upper';-inkscape-font-specification:'Unifont Upper Medium';fill:#ffffff;fill-opacity:1"
       id="path4242-6-1-2-2"
       inkscape:connector-curvature="0" />
  </g>
  <g
     transform="matrix(-0.26644781,0,0,-0.29231058,2048.7577,1020.8395)"
     style="font-style:normal;font-variant:normal;font-weight:bold;font-stretch:normal;font-size:268.8117981px;line-height:125%;font-family:'Times New Roman';-inkscape-font-specification:'Times New Roman';text-align:center;letter-spacing:0px;word-spacing:0px;writing-mode:lr-tb;text-anchor:middle;opacity:0.07;fill:#ffffff;fill-opacity:1;stroke:none;stroke-width:1px;stroke-linecap:butt;stroke-linejoin:miter;stroke-opacity:1"
     id="text4492-2-5-8-3-7">
    <path
       d="m 891.8389,554.94366 -162.96718,0 -3.57016,-10.71048 166.53734,0 0,-95.13419 q 45.15199,0.84004 45.15199,11.3405 0,5.88026 -19.32085,12.39054 l 0,71.40315 114.45506,0 24.9911,-33.18146 q 17.4308,18.27081 30.4513,35.70158 l -4.8302,8.19036 -165.06726,0 0,271.75198 -25.83114,0 0,-271.75198 z m -166.32733,228.91009 -7.35033,-8.61038 q 73.50324,-65.10287 124.7455,-177.66783 34.44152,12.60055 34.44152,20.16089 0,5.88025 -18.48081,7.77034 -47.88211,95.76422 -133.35588,158.34698 z m 354.70563,-13.02057 q -44.522,-29.61131 -85.05374,-77.28341 -33.18146,-38.85171 -58.17257,-83.58369 l 8.19036,-7.35032 q 30.03133,43.68193 74.76335,83.16367 39.9017,35.07154 82.7436,58.80259 -13.8606,10.92048 -22.471,26.25116 z"
       style="font-style:normal;font-variant:normal;font-weight:normal;font-stretch:normal;font-size:430.09896851px;font-family:sans-serif;-inkscape-font-specification:sans-serif;fill:#ffffff;fill-opacity:1"
       id="path4245-2-4"
       inkscape:connector-curvature="0" />
  </g>
  <g
     transform="matrix(-0.12993403,0.23924577,-0.24415958,-0.1498559,1595.1573,423.03181)"
     style="font-style:normal;font-variant:normal;font-weight:bold;font-stretch:normal;font-size:282.61685181px;line-height:125%;font-family:'Times New Roman';-inkscape-font-specification:'Times New Roman';text-align:center;letter-spacing:0px;word-spacing:0px;writing-mode:lr-tb;text-anchor:middle;opacity:0.07;fill:#ffffff;fill-opacity:1;stroke:none;stroke-width:1px;stroke-linecap:butt;stroke-linejoin:miter;stroke-opacity:1"
     id="text4492-2-5-3-4-2-8">
    <path
       d="m 1890.3863,283.14169 -147.4907,-215.937005 48.1332,0 85.4475,125.190475 q 0.8831,-0.66239 2.4287,-1.76636 5.2991,-3.7535 8.1694,-6.18224 2.8703,-2.42874 7.7278,-8.1694 4.8575,-5.74066 7.507,-11.70211 2.6496,-6.18224 4.6367,-16.118 2.2079,-9.93575 2.2079,-22.07944 l 0,-59.172925 40.6262,0 0,40.846975 q 0,16.3388 -1.9871,30.24885 -1.9872,13.68926 -4.8575,23.40421 -2.8703,9.71496 -7.9486,18.32595 -5.0783,8.39019 -9.2734,13.46846 -4.1951,5.07827 -11.0397,10.37734 -6.6238,5.07827 -10.5981,7.50701 -3.9743,2.20795 -10.5982,5.74066 l 57.1858,81.69396 0,15.67641 -207.7676,0 0,-31.35282 147.4907,0 z"
       style="font-style:normal;font-variant:normal;font-weight:500;font-stretch:normal;font-size:452.18710327px;font-family:'Unifont Upper';-inkscape-font-specification:'Unifont Upper Medium';fill:#ffffff;fill-opacity:1"
       id="path4248-4-5"
       inkscape:connector-curvature="0" />
  </g>
  <g
     transform="matrix(-0.23736349,0.14568471,-0.13365424,-0.24609573,1976.4276,770.09231)"
     style="font-style:normal;font-variant:normal;font-weight:bold;font-stretch:normal;font-size:334.26885986px;line-height:125%;font-family:'Times New Roman';-inkscape-font-specification:'Times New Roman';text-align:center;letter-spacing:0px;word-spacing:0px;writing-mode:lr-tb;text-anchor:middle;opacity:0.07;fill:#ffffff;fill-opacity:1;stroke:none;stroke-width:1px;stroke-linecap:butt;stroke-linejoin:miter;stroke-opacity:1"
     id="text4492-2-5-3-0-3-8">
    <path
       d="m 1509.1848,663.72862 q -6.2675,46.74542 -28.2039,74.68821 -34.7326,44.39509 -85.1341,60.58624 -20.8918,6.78984 -52.2295,6.78984 -33.4269,-0.26115 -61.892,-7.57328 -71.8156,-18.54148 -71.8156,-104.19789 0,-64.2423 27.4205,-111.24887 l 48.0512,0 q -28.204,53.7964 -27.9428,111.24887 0.2611,46.74542 38.6498,56.66903 24.809,6.26754 45.962,6.26754 25.5925,0 50.4015,-9.66246 31.5988,-12.53508 56.1467,-53.7964 16.7134,-28.20394 16.4523,-65.2869 -0.2611,-32.64345 -4.4395,-48.57345 l -16.7135,-61.10854 48.0512,0 9.4013,40.73903 q 4.1784,19.32492 11.4905,34.99377 15.4077,33.68804 45.4397,33.68804 21.4141,0 32.9046,-31.86 9.6624,-26.8982 9.6624,-77.56084 l 48.0512,0 q 0,53.53526 4.9618,66.59264 16.7135,44.13394 45.4397,44.13394 37.0829,0 37.0829,-73.12132 l 0,-76.7774 48.0512,0 0,89.31248 q 0,51.96837 -24.0256,81.47805 -19.586,24.02558 -46.2231,30.29312 -9.6625,2.35033 -18.0192,2.35033 -19.0638,0 -31.5988,-6.52869 -36.0384,-18.28033 -40.4779,-50.40149 -12.7962,41.52247 -37.6053,49.3569 -13.0574,3.91721 -31.3377,4.70065 -34.4715,1.56689 -45.962,-16.19115 z m 25.8537,-301.88661 39.1721,0 0,39.17214 -39.1721,0 0,-39.17214 z m 32.6434,65.2869 39.1721,0 0,39.17214 -39.1721,0 0,-39.17214 z m -65.2869,0 39.1721,0 0,39.17214 -39.1721,0 0,-39.17214 z"
       style="font-style:normal;font-variant:normal;font-weight:500;font-stretch:normal;font-size:534.83026123px;font-family:'Unifont Upper';-inkscape-font-specification:'Unifont Upper Medium';fill:#ffffff;fill-opacity:1"
       id="path4257-0-7"
       inkscape:connector-curvature="0" />
  </g>
  <g
     transform="matrix(-0.23625818,-0.14500632,0.13427952,-0.24724706,1083.7481,1014.1291)"
     style="font-style:normal;font-variant:normal;font-weight:bold;font-stretch:normal;font-size:256.13851929px;line-height:125%;font-family:'Times New Roman';-inkscape-font-specification:'Times New Roman';text-align:center;letter-spacing:0px;word-spacing:0px;writing-mode:lr-tb;text-anchor:middle;opacity:0.07;fill:#ffffff;fill-opacity:1;stroke:none;stroke-width:1px;stroke-linecap:butt;stroke-linejoin:miter;stroke-opacity:1"
     id="text4492-2-5-3-6-8-7-2-5">
    <path
       d="m 574.88449,598.78613 0,35.61927 -120.06496,0 0,-35.61927 q 35.41917,-19.41051 55.22988,-52.62848 19.81072,-33.21797 19.81072,-73.63984 0,-48.02598 -26.41429,-77.04168 -26.41429,-29.01569 -69.63767,-29.01569 -43.22339,0 -69.83779,29.2158 -26.41429,29.0157 -26.41429,76.84157 0,40.42187 19.81072,73.63984 20.01083,33.21797 55.6301,52.62848 l 0,35.61927 -120.06496,0 0,-35.61927 63.83454,0 q -31.61711,-27.81505 -46.22501,-57.63118 -14.4078,-29.81613 -14.4078,-66.63605 0,-63.63443 38.42079,-103.05576 38.22068,-39.42133 99.2537,-39.42133 60.6328,0 99.25369,39.42133 38.42079,39.22122 38.42079,101.05467 0,38.82101 -14.20769,68.43703 -14.20768,29.61602 -46.42511,57.83129 l 64.03464,0 z"
       style="font-style:normal;font-variant:normal;font-weight:500;font-stretch:normal;font-size:409.82171631px;font-family:'Unifont Upper';-inkscape-font-specification:'Unifont Upper Medium';fill:#ffffff;fill-opacity:1"
       id="path4242-6-1-2-8-8"
       inkscape:connector-curvature="0" />
  </g>
  <g
     transform="matrix(0.28092117,0,0,0.27725047,1800.9128,364.99713)"
     style="font-style:normal;font-variant:normal;font-weight:bold;font-stretch:normal;font-size:430.631073px;line-height:125%;font-family:'Times New Roman';-inkscape-font-specification:'Times New Roman';text-align:center;letter-spacing:0px;word-spacing:0px;writing-mode:lr-tb;text-anchor:middle;opacity:0.07;fill:#ffffff;fill-opacity:1;stroke:none;stroke-width:1px;stroke-linecap:butt;stroke-linejoin:miter;stroke-opacity:1"
     id="text4492-2-5-9-70">
    <path
       d="m 844.19174,-1185.8699 c 10.50895,0 19.91169,8.02 19.91169,19.9117 0,10.509 -8.01999,19.9117 -19.91169,19.9117 -10.50896,0 -19.9117,-8.02 -19.9117,-19.9117 0,-10.5089 8.01999,-19.9117 19.9117,-19.9117 z m 232.30316,304.20653 c 31.2503,0 56.4165,-24.88962 56.4165,-56.41648 0,-35.67512 -29.3145,-53.65096 -45.3545,-53.92751 l 0,-227.60174 -50.0558,0 0,228.98449 c -52.26817,11.89171 -94.58053,30.6972 -126.93704,56.13993 l 0,-219.02872 c 0,-34.0158 -20.74135,-68.8613 -66.37232,-68.8613 -31.25031,0 -56.41648,24.8897 -56.41648,56.4165 0,31.2503 24.88962,56.4165 56.41648,56.4165 9.67929,0 14.65722,-0.2765 14.93377,-0.8296 l 0,223.1769 50.6089,0 c 44.80132,-30.1441 81.58265,-48.11993 110.34399,-53.65096 0,37.05788 27.102,59.18199 56.4165,59.18199 z m 0,-76.32818 c 10.5089,0 19.9117,8.01999 19.9117,19.9117 0,10.50895 -8.02,19.9117 -19.9117,19.9117 -10.509,0 -19.9117,-8.01999 -19.9117,-19.9117 0,-10.50895 8.02,-19.9117 19.9117,-19.9117 z"
       style="font-style:normal;font-variant:normal;font-weight:500;font-stretch:normal;font-size:566.37719727px;font-family:'Unifont Upper';-inkscape-font-specification:'Unifont Upper Medium';fill:#ffffff;fill-opacity:1"
       id="path4239-7"
       inkscape:connector-curvature="0" />
  </g>
  <g
     transform="matrix(-0.12993403,0.23924577,-0.24415958,-0.1498559,2743.5261,-140.37885)"
     style="font-style:normal;font-variant:normal;font-weight:bold;font-stretch:normal;font-size:282.61685181px;line-height:125%;font-family:'Times New Roman';-inkscape-font-specification:'Times New Roman';text-align:center;letter-spacing:0px;word-spacing:0px;writing-mode:lr-tb;text-anchor:middle;opacity:0.07;fill:#ffffff;fill-opacity:1;stroke:none;stroke-width:1px;stroke-linecap:butt;stroke-linejoin:miter;stroke-opacity:1"
     id="text4492-2-5-3-4-9">
    <path
       d="m 1890.3863,283.14169 -147.4907,-215.937005 48.1332,0 85.4475,125.190475 q 0.8831,-0.66239 2.4287,-1.76636 5.2991,-3.7535 8.1694,-6.18224 2.8703,-2.42874 7.7278,-8.1694 4.8575,-5.74066 7.507,-11.70211 2.6496,-6.18224 4.6367,-16.118 2.2079,-9.93575 2.2079,-22.07944 l 0,-59.172925 40.6262,0 0,40.846975 q 0,16.3388 -1.9871,30.24885 -1.9872,13.68926 -4.8575,23.40421 -2.8703,9.71496 -7.9486,18.32595 -5.0783,8.39019 -9.2734,13.46846 -4.1951,5.07827 -11.0397,10.37734 -6.6238,5.07827 -10.5981,7.50701 -3.9743,2.20795 -10.5982,5.74066 l 57.1858,81.69396 0,15.67641 -207.7676,0 0,-31.35282 147.4907,0 z"
       style="font-style:normal;font-variant:normal;font-weight:500;font-stretch:normal;font-size:452.18710327px;font-family:'Unifont Upper';-inkscape-font-specification:'Unifont Upper Medium';fill:#ffffff;fill-opacity:1"
       id="path4248-5"
       inkscape:connector-curvature="0" />
  </g>
  <g
     transform="matrix(0.25250353,0.15497709,-0.12564037,0.23133991,1863.9724,116.12011)"
     style="font-style:normal;font-variant:normal;font-weight:bold;font-stretch:normal;font-size:265.84481812px;line-height:125%;font-family:'Times New Roman';-inkscape-font-specification:'Times New Roman';text-align:center;letter-spacing:0px;word-spacing:0px;writing-mode:lr-tb;text-anchor:middle;opacity:0.07;fill:#ffffff;fill-opacity:1;stroke:none;stroke-width:1px;stroke-linecap:butt;stroke-linejoin:miter;stroke-opacity:1"
     id="text4492-2-7">
    <path
       d="m 1179.056,-1186.659 56.4921,0 137.4916,259.40646 0,-259.40646 40.7075,0 0,310.08313 -56.492,0 -137.4917,-259.40643 0,259.40643 -40.7075,0 0,-310.08313 z m 116.5148,-45.069 -11.8384,-6.8538 q -5.1922,-2.9077 -8.5153,-3.9461 -3.1154,-1.2462 -5.6077,-1.2462 -7.4769,0 -11.6307,5.1923 -4.1538,5.1923 -4.1538,14.5384 l 0,1.2461 -25.9614,0 q 0,-20.9768 10.5922,-33.2306 10.8,-12.2538 28.6614,-12.2538 7.4769,0 13.7077,1.6616 6.4384,1.6615 16.4076,7.2692 l 11.8384,6.2307 q 4.7769,2.7 8.3076,3.9461 3.5308,1.2462 6.6462,1.2462 6.6461,0 10.7999,-5.1923 4.1538,-5.4 4.1538,-13.9153 l 0,-1.2462 25.9614,0 q -0.4153,20.7692 -11.2153,33.2307 -10.5922,12.2537 -28.0383,12.2537 -7.0615,0 -13.2923,-1.6615 -6.023,-1.6615 -16.823,-7.2692 z"
       style="font-style:normal;font-variant:normal;font-weight:500;font-stretch:normal;font-size:425.35177612px;font-family:'Unifont Upper';-inkscape-font-specification:'Unifont Upper Medium';fill:#ffffff;fill-opacity:1"
       id="path4251-0"
       inkscape:connector-curvature="0" />
  </g>
  <g
     transform="matrix(-0.23625818,-0.14500632,0.13427952,-0.24724706,2232.117,455.82034)"
     style="font-style:normal;font-variant:normal;font-weight:bold;font-stretch:normal;font-size:256.13851929px;line-height:125%;font-family:'Times New Roman';-inkscape-font-specification:'Times New Roman';text-align:center;letter-spacing:0px;word-spacing:0px;writing-mode:lr-tb;text-anchor:middle;opacity:0.07;fill:#ffffff;fill-opacity:1;stroke:none;stroke-width:1px;stroke-linecap:butt;stroke-linejoin:miter;stroke-opacity:1"
     id="text4492-2-5-3-6-8-7-50">
    <path
       d="m 574.88449,598.78613 0,35.61927 -120.06496,0 0,-35.61927 q 35.41917,-19.41051 55.22988,-52.62848 19.81072,-33.21797 19.81072,-73.63984 0,-48.02598 -26.41429,-77.04168 -26.41429,-29.01569 -69.63767,-29.01569 -43.22339,0 -69.83779,29.2158 -26.41429,29.0157 -26.41429,76.84157 0,40.42187 19.81072,73.63984 20.01083,33.21797 55.6301,52.62848 l 0,35.61927 -120.06496,0 0,-35.61927 63.83454,0 q -31.61711,-27.81505 -46.22501,-57.63118 -14.4078,-29.81613 -14.4078,-66.63605 0,-63.63443 38.42079,-103.05576 38.22068,-39.42133 99.2537,-39.42133 60.6328,0 99.25369,39.42133 38.42079,39.22122 38.42079,101.05467 0,38.82101 -14.20769,68.43703 -14.20768,29.61602 -46.42511,57.83129 l 64.03464,0 z"
       style="font-style:normal;font-variant:normal;font-weight:500;font-stretch:normal;font-size:409.82171631px;font-family:'Unifont Upper';-inkscape-font-specification:'Unifont Upper Medium';fill:#ffffff;fill-opacity:1"
       id="path4242-6-1-2-4"
       inkscape:connector-curvature="0" />
  </g>
  <g
     transform="matrix(-0.12993403,0.23924577,-0.24415958,-0.1498559,2605.3936,424.85358)"
     style="font-style:normal;font-variant:normal;font-weight:bold;font-stretch:normal;font-size:282.61685181px;line-height:125%;font-family:'Times New Roman';-inkscape-font-specification:'Times New Roman';text-align:center;letter-spacing:0px;word-spacing:0px;writing-mode:lr-tb;text-anchor:middle;opacity:0.07;fill:#ffffff;fill-opacity:1;stroke:none;stroke-width:1px;stroke-linecap:butt;stroke-linejoin:miter;stroke-opacity:1"
     id="text4492-2-5-3-4-2-7">
    <path
       d="m 1890.3863,283.14169 -147.4907,-215.937005 48.1332,0 85.4475,125.190475 q 0.8831,-0.66239 2.4287,-1.76636 5.2991,-3.7535 8.1694,-6.18224 2.8703,-2.42874 7.7278,-8.1694 4.8575,-5.74066 7.507,-11.70211 2.6496,-6.18224 4.6367,-16.118 2.2079,-9.93575 2.2079,-22.07944 l 0,-59.172925 40.6262,0 0,40.846975 q 0,16.3388 -1.9871,30.24885 -1.9872,13.68926 -4.8575,23.40421 -2.8703,9.71496 -7.9486,18.32595 -5.0783,8.39019 -9.2734,13.46846 -4.1951,5.07827 -11.0397,10.37734 -6.6238,5.07827 -10.5981,7.50701 -3.9743,2.20795 -10.5982,5.74066 l 57.1858,81.69396 0,15.67641 -207.7676,0 0,-31.35282 147.4907,0 z"
       style="font-style:normal;font-variant:normal;font-weight:500;font-stretch:normal;font-size:452.18710327px;font-family:'Unifont Upper';-inkscape-font-specification:'Unifont Upper Medium';fill:#ffffff;fill-opacity:1"
       id="path4248-4-1"
       inkscape:connector-curvature="0" />
  </g>
  <g
     transform="matrix(-0.23625818,-0.14500632,0.13427952,-0.24724706,2093.9842,1015.9509)"
     style="font-style:normal;font-variant:normal;font-weight:bold;font-stretch:normal;font-size:256.13851929px;line-height:125%;font-family:'Times New Roman';-inkscape-font-specification:'Times New Roman';text-align:center;letter-spacing:0px;word-spacing:0px;writing-mode:lr-tb;text-anchor:middle;opacity:0.07;fill:#ffffff;fill-opacity:1;stroke:none;stroke-width:1px;stroke-linecap:butt;stroke-linejoin:miter;stroke-opacity:1"
     id="text4492-2-5-3-6-8-7-2-0">
    <path
       d="m 574.88449,598.78613 0,35.61927 -120.06496,0 0,-35.61927 q 35.41917,-19.41051 55.22988,-52.62848 19.81072,-33.21797 19.81072,-73.63984 0,-48.02598 -26.41429,-77.04168 -26.41429,-29.01569 -69.63767,-29.01569 -43.22339,0 -69.83779,29.2158 -26.41429,29.0157 -26.41429,76.84157 0,40.42187 19.81072,73.63984 20.01083,33.21797 55.6301,52.62848 l 0,35.61927 -120.06496,0 0,-35.61927 63.83454,0 q -31.61711,-27.81505 -46.22501,-57.63118 -14.4078,-29.81613 -14.4078,-66.63605 0,-63.63443 38.42079,-103.05576 38.22068,-39.42133 99.2537,-39.42133 60.6328,0 99.25369,39.42133 38.42079,39.22122 38.42079,101.05467 0,38.82101 -14.20769,68.43703 -14.20768,29.61602 -46.42511,57.83129 l 64.03464,0 z"
       style="font-style:normal;font-variant:normal;font-weight:500;font-stretch:normal;font-size:409.82171631px;font-family:'Unifont Upper';-inkscape-font-specification:'Unifont Upper Medium';fill:#ffffff;fill-opacity:1"
       id="path4242-6-1-2-8-5"
       inkscape:connector-curvature="0" />
  </g>
  <g
     transform="matrix(0.13010587,-0.23956216,0.24383712,0.14965799,666.99486,648.71043)"
     style="font-style:normal;font-variant:normal;font-weight:bold;font-stretch:normal;font-size:268.22595215px;line-height:125%;font-family:'Times New Roman';-inkscape-font-specification:'Times New Roman';text-align:center;letter-spacing:0px;word-spacing:0px;writing-mode:lr-tb;text-anchor:middle;opacity:0.07;fill:#ffffff;fill-opacity:1;stroke:none;stroke-width:1px;stroke-linecap:butt;stroke-linejoin:miter;stroke-opacity:1"
     id="text4492-2-5-3-04">
    <path
       d="m 309.49305,-727.30666 q 0,29.96587 14.87816,47.1491 14.87816,16.97368 40.86256,16.97368 25.77484,0 40.44345,-17.18323 14.87817,-17.18323 14.87817,-46.93955 0,-29.33722 -15.08772,-46.52045 -15.08771,-17.39278 -40.653,-17.39278 -25.35574,0 -40.44346,17.18323 -14.87816,17.18323 -14.87816,46.73 z m 114.20561,62.65592 q -12.5731,16.13547 -28.91812,23.88888 -16.13547,7.54386 -37.71928,7.54386 -36.04287,0 -58.67444,-25.9844 -22.42202,-26.19395 -22.42202,-68.10426 0,-41.91031 22.63157,-68.10426 22.63157,-26.19395 58.46489,-26.19395 21.58381,0 37.92883,7.96296 16.34503,7.75341 28.70857,23.67933 l 0,-27.45126 29.96587,0 0,154.22996 q 30.59453,-4.61013 47.77776,-27.87036 17.39278,-23.46977 17.39278,-60.5604 0,-22.42202 -6.70565,-42.11987 -6.4961,-19.69785 -19.9074,-36.46197 -21.79336,-27.45126 -53.2261,-41.91032 -31.22318,-14.66861 -68.10426,-14.66861 -25.77484,0 -49.45417,6.9152 -23.67933,6.70565 -43.79628,20.11696 -32.89959,21.37426 -51.54968,56.15982 -18.44054,34.57601 -18.44054,75.01946 0,33.3187 11.94444,62.44637 12.15399,29.12767 34.99511,51.34013 22.00291,21.79337 50.92103,33.10915 28.91812,11.52534 61.81772,11.52534 27.03215,0 53.01654,-9.22027 26.19395,-9.01072 47.98731,-25.9844 l 18.85965,23.26023 q -26.19395,20.3265 -57.20758,31.01363 -30.80409,10.89668 -62.65592,10.89668 -38.76705,0 -73.1335,-13.8304 -34.36646,-13.62085 -61.18906,-39.8148 -26.8226,-26.19395 -40.86256,-60.5604 -14.03995,-34.57601 -14.03995,-74.18126 0,-38.13839 14.2495,-72.7144 14.24951,-34.57601 40.65301,-60.76995 27.03215,-26.61305 62.44637,-40.65301 35.41421,-14.2495 75.01946,-14.2495 44.42493,0 82.35377,18.23098 38.13838,18.23099 63.91323,51.75924 15.71636,20.53606 23.88888,44.63449 8.38206,24.09843 8.38206,49.87327 0,55.11206 -33.3187,86.9639 -33.3187,31.85184 -91.99314,33.10915 l 0,-32.27094 z"
       style="font-style:normal;font-variant:normal;font-weight:500;font-stretch:normal;font-size:429.16162109px;font-family:'Unifont Upper';-inkscape-font-specification:'Unifont Upper Medium';fill:#ffffff;fill-opacity:1"
       id="path4227-5-7"
       inkscape:connector-curvature="0" />
  </g>
  <g
     transform="matrix(0,-0.29628061,0.26287756,0,379.21756,508.71693)"
     style="font-style:normal;font-variant:normal;font-weight:bold;font-stretch:normal;font-size:202.55328369px;line-height:125%;font-family:'Times New Roman';-inkscape-font-specification:'Times New Roman';text-align:center;letter-spacing:0px;word-spacing:0px;writing-mode:lr-tb;text-anchor:middle;opacity:0.07;fill:#ffffff;fill-opacity:1;stroke:none;stroke-width:1px;stroke-linecap:butt;stroke-linejoin:miter;stroke-opacity:1"
     id="text4492-2-5-5-3-1">
    <path
       d="m 126.70287,-241.14203 104.44157,0 0,-182.45626 -76.74873,0 0,33.5479 q 0,78.96415 -17.72342,131.34318 -3.63963,10.76065 -9.96942,17.56518 z m -46.682215,0 q 21.204805,-9.96943 27.218105,-28.9588 15.34975,-48.7394 15.34975,-135.77404 l 0,-44.62504 140.52138,0 0,209.35788 26.90162,0 0,77.69819 -26.90162,0 0,-50.79658 -167.422999,0 0,50.79658 -26.901617,0 0,-77.69819 11.235381,0 z"
       style="font-style:normal;font-variant:normal;font-weight:500;font-stretch:normal;font-size:324.08535767px;font-family:'Unifont Upper';-inkscape-font-specification:'Unifont Upper Medium';fill:#ffffff;fill-opacity:1"
       id="path4230-6-5"
       inkscape:connector-curvature="0" />
  </g>
  <g
     transform="matrix(-0.14210194,-0.26165034,0.2232527,-0.13702405,39.698655,531.78543)"
     style="font-style:normal;font-variant:normal;font-weight:bold;font-stretch:normal;font-size:184.28826904px;line-height:125%;font-family:'Times New Roman';-inkscape-font-specification:'Times New Roman';text-align:center;letter-spacing:0px;word-spacing:0px;writing-mode:lr-tb;text-anchor:middle;opacity:0.07;fill:#ffffff;fill-opacity:1;stroke:none;stroke-width:1px;stroke-linecap:butt;stroke-linejoin:miter;stroke-opacity:1"
     id="text4492-2-5-2-7-2">
    <path
       d="m 254.16389,70.945687 0,28.36312 Q 237.60674,91.39017 222.92127,87.502839 208.2358,83.615507 194.55815,83.615507 q -23.75591,0 -36.71368,9.214415 -12.8138,9.214418 -12.8138,26.203488 0,14.25355 8.49454,21.59629 8.63851,7.19876 32.5384,11.66199 l 17.56498,3.59938 q 32.5384,6.19094 47.94375,21.88424 15.54932,15.54932 15.54932,41.75281 0,31.24263 -21.02038,47.36785 -20.87641,16.12523 -61.33345,16.12523 -15.26137,0 -32.5384,-3.45541 -17.13305,-3.4554 -35.56188,-10.22224 l 0,-29.94685 q 17.70895,9.93429 34.69803,14.97343 16.98908,5.03913 33.40225,5.03913 24.90772,0 38.44139,-9.79031 13.53367,-9.79032 13.53367,-27.9312 0,-15.83727 -9.79032,-24.76374 -9.64634,-8.92646 -31.81852,-13.38969 l -17.70895,-3.45541 q -32.53841,-6.47888 -47.0799,-20.30051 -14.5415,-13.82162 -14.5415,-38.44138 0,-28.507098 20.01256,-44.920274 20.15653,-16.413176 55.43046,-16.413176 15.1174,0 30.8107,2.735529 15.6933,2.73553 32.10647,8.206588 z M 176.56124,43.446419 146.18247,5.1490082 l 20.01256,0 23.89989,25.6275908 23.89988,-25.6275908 20.01256,0 -30.37877,38.2974108 -27.06735,0 z"
       style="font-style:normal;font-variant:normal;font-weight:500;font-stretch:normal;font-size:294.86126709px;font-family:'Unifont Upper';-inkscape-font-specification:'Unifont Upper Medium';fill:#ffffff;fill-opacity:1"
       id="path4233-3-2"
       inkscape:connector-curvature="0" />
  </g>
  <g
     transform="matrix(0.23685418,-0.14537213,0.13394165,0.24662493,777.02856,783.85293)"
     style="font-style:normal;font-variant:normal;font-weight:bold;font-stretch:normal;font-size:195.77371216px;line-height:125%;font-family:'Times New Roman';-inkscape-font-specification:'Times New Roman';text-align:center;letter-spacing:0px;word-spacing:0px;writing-mode:lr-tb;text-anchor:middle;opacity:0.07;fill:#ffffff;fill-opacity:1;stroke:none;stroke-width:1px;stroke-linecap:butt;stroke-linejoin:miter;stroke-opacity:1"
     id="text4492-2-5-35-4-01">
    <path
       d="m 688.82416,-916.48761 q -34.10746,0 -47.261,7.80036 -13.15355,7.80036 -13.15355,26.613 0,14.98892 9.78868,23.85992 9.94164,8.71805 26.9189,8.71805 23.40108,0 37.47232,-16.51841 14.22418,-16.67136 14.22418,-44.20204 l 0,-6.27088 -27.98953,0 z m 56.13201,-11.62407 0,97.73393 -28.14248,0 0,-26.0012 q -9.63574,15.60072 -24.01287,23.09519 -14.37714,7.34151 -35.1781,7.34151 -26.3071,0 -41.90782,-14.68303 -15.44777,-14.83598 -15.44777,-39.61359 0,-28.90722 19.27148,-43.59025 19.42443,-14.68304 57.81443,-14.68304 l 39.46065,0 0,-2.75306 q 0,-19.42443 -12.84765,-29.97786 -12.6947,-10.70638 -35.78989,-10.70638 -14.68303,0 -28.60132,3.51781 -13.91829,3.51781 -26.76594,10.55343 l 0,-26.0012 q 15.44777,-5.96498 29.97785,-8.87098 14.53008,-3.059 28.29543,-3.059 37.16642,0 55.52021,19.27149 18.35379,19.27148 18.35379,58.42623 z m -49.40228,-135.35922 q 0,-9.6357 -6.72973,-16.3654 -6.72972,-6.7298 -16.51841,-6.7298 -9.94163,0 -16.67136,6.7298 -6.57677,6.5767 -6.57677,16.3654 0,9.9417 6.57677,16.6714 6.72973,6.5768 16.67136,6.5768 9.78869,0 16.51841,-6.7298 6.72973,-6.7297 6.72973,-16.5184 z m 18.65968,0 q 0,17.5891 -12.23586,29.8249 -12.08291,12.2359 -29.67196,12.2359 -17.58905,0 -29.82491,-12.2359 -12.08291,-12.2358 -12.08291,-29.8249 0,-17.589 12.08291,-29.6719 12.23586,-12.2359 29.82491,-12.2359 17.58905,0 29.67196,12.2359 12.23586,12.0829 12.23586,29.6719 z"
       style="font-style:normal;font-variant:normal;font-weight:500;font-stretch:normal;font-size:313.23800659px;font-family:'Unifont Upper';-inkscape-font-specification:'Unifont Upper Medium';fill:#ffffff;fill-opacity:1"
       id="path4236-4-1"
       inkscape:connector-curvature="0" />
  </g>
  <g
     transform="matrix(0.13010587,-0.23956216,0.24383712,0.14965799,1678.996,657.73333)"
     style="font-style:normal;font-variant:normal;font-weight:bold;font-stretch:normal;font-size:268.22595215px;line-height:125%;font-family:'Times New Roman';-inkscape-font-specification:'Times New Roman';text-align:center;letter-spacing:0px;word-spacing:0px;writing-mode:lr-tb;text-anchor:middle;opacity:0.07;fill:#ffffff;fill-opacity:1;stroke:none;stroke-width:1px;stroke-linecap:butt;stroke-linejoin:miter;stroke-opacity:1"
     id="text4492-2-5-3-9-1">
    <path
       d="m 309.49305,-727.30666 q 0,29.96587 14.87816,47.1491 14.87816,16.97368 40.86256,16.97368 25.77484,0 40.44345,-17.18323 14.87817,-17.18323 14.87817,-46.93955 0,-29.33722 -15.08772,-46.52045 -15.08771,-17.39278 -40.653,-17.39278 -25.35574,0 -40.44346,17.18323 -14.87816,17.18323 -14.87816,46.73 z m 114.20561,62.65592 q -12.5731,16.13547 -28.91812,23.88888 -16.13547,7.54386 -37.71928,7.54386 -36.04287,0 -58.67444,-25.9844 -22.42202,-26.19395 -22.42202,-68.10426 0,-41.91031 22.63157,-68.10426 22.63157,-26.19395 58.46489,-26.19395 21.58381,0 37.92883,7.96296 16.34503,7.75341 28.70857,23.67933 l 0,-27.45126 29.96587,0 0,154.22996 q 30.59453,-4.61013 47.77776,-27.87036 17.39278,-23.46977 17.39278,-60.5604 0,-22.42202 -6.70565,-42.11987 -6.4961,-19.69785 -19.9074,-36.46197 -21.79336,-27.45126 -53.2261,-41.91032 -31.22318,-14.66861 -68.10426,-14.66861 -25.77484,0 -49.45417,6.9152 -23.67933,6.70565 -43.79628,20.11696 -32.89959,21.37426 -51.54968,56.15982 -18.44054,34.57601 -18.44054,75.01946 0,33.3187 11.94444,62.44637 12.15399,29.12767 34.99511,51.34013 22.00291,21.79337 50.92103,33.10915 28.91812,11.52534 61.81772,11.52534 27.03215,0 53.01654,-9.22027 26.19395,-9.01072 47.98731,-25.9844 l 18.85965,23.26023 q -26.19395,20.3265 -57.20758,31.01363 -30.80409,10.89668 -62.65592,10.89668 -38.76705,0 -73.1335,-13.8304 -34.36646,-13.62085 -61.18906,-39.8148 -26.8226,-26.19395 -40.86256,-60.5604 -14.03995,-34.57601 -14.03995,-74.18126 0,-38.13839 14.2495,-72.7144 14.24951,-34.57601 40.65301,-60.76995 27.03215,-26.61305 62.44637,-40.65301 35.41421,-14.2495 75.01946,-14.2495 44.42493,0 82.35377,18.23098 38.13838,18.23099 63.91323,51.75924 15.71636,20.53606 23.88888,44.63449 8.38206,24.09843 8.38206,49.87327 0,55.11206 -33.3187,86.9639 -33.3187,31.85184 -91.99314,33.10915 l 0,-32.27094 z"
       style="font-style:normal;font-variant:normal;font-weight:500;font-stretch:normal;font-size:429.16162109px;font-family:'Unifont Upper';-inkscape-font-specification:'Unifont Upper Medium';fill:#ffffff;fill-opacity:1"
       id="path4227-5-1-3"
       inkscape:connector-curvature="0" />
  </g>
  <g
     transform="matrix(0,-0.29628061,0.26287756,0,1391.2187,517.73983)"
     style="font-style:normal;font-variant:normal;font-weight:bold;font-stretch:normal;font-size:202.55328369px;line-height:125%;font-family:'Times New Roman';-inkscape-font-specification:'Times New Roman';text-align:center;letter-spacing:0px;word-spacing:0px;writing-mode:lr-tb;text-anchor:middle;opacity:0.07;fill:#ffffff;fill-opacity:1;stroke:none;stroke-width:1px;stroke-linecap:butt;stroke-linejoin:miter;stroke-opacity:1"
     id="text4492-2-5-5-3-8-3">
    <path
       d="m 126.70287,-241.14203 104.44157,0 0,-182.45626 -76.74873,0 0,33.5479 q 0,78.96415 -17.72342,131.34318 -3.63963,10.76065 -9.96942,17.56518 z m -46.682215,0 q 21.204805,-9.96943 27.218105,-28.9588 15.34975,-48.7394 15.34975,-135.77404 l 0,-44.62504 140.52138,0 0,209.35788 26.90162,0 0,77.69819 -26.90162,0 0,-50.79658 -167.422999,0 0,50.79658 -26.901617,0 0,-77.69819 11.235381,0 z"
       style="font-style:normal;font-variant:normal;font-weight:500;font-stretch:normal;font-size:324.08535767px;font-family:'Unifont Upper';-inkscape-font-specification:'Unifont Upper Medium';fill:#ffffff;fill-opacity:1"
       id="path4230-6-4-6"
       inkscape:connector-curvature="0" />
  </g>
  <g
     transform="matrix(-0.14210194,-0.26165034,0.2232527,-0.13702405,1051.6998,540.80833)"
     style="font-style:normal;font-variant:normal;font-weight:bold;font-stretch:normal;font-size:184.28826904px;line-height:125%;font-family:'Times New Roman';-inkscape-font-specification:'Times New Roman';text-align:center;letter-spacing:0px;word-spacing:0px;writing-mode:lr-tb;text-anchor:middle;opacity:0.07;fill:#ffffff;fill-opacity:1;stroke:none;stroke-width:1px;stroke-linecap:butt;stroke-linejoin:miter;stroke-opacity:1"
     id="text4492-2-5-2-7-6-3">
    <path
       d="m 254.16389,70.945687 0,28.36312 Q 237.60674,91.39017 222.92127,87.502839 208.2358,83.615507 194.55815,83.615507 q -23.75591,0 -36.71368,9.214415 -12.8138,9.214418 -12.8138,26.203488 0,14.25355 8.49454,21.59629 8.63851,7.19876 32.5384,11.66199 l 17.56498,3.59938 q 32.5384,6.19094 47.94375,21.88424 15.54932,15.54932 15.54932,41.75281 0,31.24263 -21.02038,47.36785 -20.87641,16.12523 -61.33345,16.12523 -15.26137,0 -32.5384,-3.45541 -17.13305,-3.4554 -35.56188,-10.22224 l 0,-29.94685 q 17.70895,9.93429 34.69803,14.97343 16.98908,5.03913 33.40225,5.03913 24.90772,0 38.44139,-9.79031 13.53367,-9.79032 13.53367,-27.9312 0,-15.83727 -9.79032,-24.76374 -9.64634,-8.92646 -31.81852,-13.38969 l -17.70895,-3.45541 q -32.53841,-6.47888 -47.0799,-20.30051 -14.5415,-13.82162 -14.5415,-38.44138 0,-28.507098 20.01256,-44.920274 20.15653,-16.413176 55.43046,-16.413176 15.1174,0 30.8107,2.735529 15.6933,2.73553 32.10647,8.206588 z M 176.56124,43.446419 146.18247,5.1490082 l 20.01256,0 23.89989,25.6275908 23.89988,-25.6275908 20.01256,0 -30.37877,38.2974108 -27.06735,0 z"
       style="font-style:normal;font-variant:normal;font-weight:500;font-stretch:normal;font-size:294.86126709px;font-family:'Unifont Upper';-inkscape-font-specification:'Unifont Upper Medium';fill:#ffffff;fill-opacity:1"
       id="path4233-3-3-5"
       inkscape:connector-curvature="0" />
  </g>
  <g
     transform="matrix(0.23685418,-0.14537213,0.13394165,0.24662493,1789.0297,792.87583)"
     style="font-style:normal;font-variant:normal;font-weight:bold;font-stretch:normal;font-size:195.77371216px;line-height:125%;font-family:'Times New Roman';-inkscape-font-specification:'Times New Roman';text-align:center;letter-spacing:0px;word-spacing:0px;writing-mode:lr-tb;text-anchor:middle;opacity:0.07;fill:#ffffff;fill-opacity:1;stroke:none;stroke-width:1px;stroke-linecap:butt;stroke-linejoin:miter;stroke-opacity:1"
     id="text4492-2-5-35-4-0-2">
    <path
       d="m 688.82416,-916.48761 q -34.10746,0 -47.261,7.80036 -13.15355,7.80036 -13.15355,26.613 0,14.98892 9.78868,23.85992 9.94164,8.71805 26.9189,8.71805 23.40108,0 37.47232,-16.51841 14.22418,-16.67136 14.22418,-44.20204 l 0,-6.27088 -27.98953,0 z m 56.13201,-11.62407 0,97.73393 -28.14248,0 0,-26.0012 q -9.63574,15.60072 -24.01287,23.09519 -14.37714,7.34151 -35.1781,7.34151 -26.3071,0 -41.90782,-14.68303 -15.44777,-14.83598 -15.44777,-39.61359 0,-28.90722 19.27148,-43.59025 19.42443,-14.68304 57.81443,-14.68304 l 39.46065,0 0,-2.75306 q 0,-19.42443 -12.84765,-29.97786 -12.6947,-10.70638 -35.78989,-10.70638 -14.68303,0 -28.60132,3.51781 -13.91829,3.51781 -26.76594,10.55343 l 0,-26.0012 q 15.44777,-5.96498 29.97785,-8.87098 14.53008,-3.059 28.29543,-3.059 37.16642,0 55.52021,19.27149 18.35379,19.27148 18.35379,58.42623 z m -49.40228,-135.35922 q 0,-9.6357 -6.72973,-16.3654 -6.72972,-6.7298 -16.51841,-6.7298 -9.94163,0 -16.67136,6.7298 -6.57677,6.5767 -6.57677,16.3654 0,9.9417 6.57677,16.6714 6.72973,6.5768 16.67136,6.5768 9.78869,0 16.51841,-6.7298 6.72973,-6.7297 6.72973,-16.5184 z m 18.65968,0 q 0,17.5891 -12.23586,29.8249 -12.08291,12.2359 -29.67196,12.2359 -17.58905,0 -29.82491,-12.2359 -12.08291,-12.2358 -12.08291,-29.8249 0,-17.589 12.08291,-29.6719 12.23586,-12.2359 29.82491,-12.2359 17.58905,0 29.67196,12.2359 12.23586,12.0829 12.23586,29.6719 z"
       style="font-style:normal;font-variant:normal;font-weight:500;font-stretch:normal;font-size:313.23800659px;font-family:'Unifont Upper';-inkscape-font-specification:'Unifont Upper Medium';fill:#ffffff;fill-opacity:1"
       id="path4236-4-9-1"
       inkscape:connector-curvature="0" />
  </g>
  <g
     transform="matrix(0,-0.29628061,0.26287756,0,2403.2198,519.56163)"
     style="font-style:normal;font-variant:normal;font-weight:bold;font-stretch:normal;font-size:202.55328369px;line-height:125%;font-family:'Times New Roman';-inkscape-font-specification:'Times New Roman';text-align:center;letter-spacing:0px;word-spacing:0px;writing-mode:lr-tb;text-anchor:middle;opacity:0.07;fill:#ffffff;fill-opacity:1;stroke:none;stroke-width:1px;stroke-linecap:butt;stroke-linejoin:miter;stroke-opacity:1"
     id="text4492-2-5-5-3-3-0">
    <path
       d="m 126.70287,-241.14203 104.44157,0 0,-182.45626 -76.74873,0 0,33.5479 q 0,78.96415 -17.72342,131.34318 -3.63963,10.76065 -9.96942,17.56518 z m -46.682215,0 q 21.204805,-9.96943 27.218105,-28.9588 15.34975,-48.7394 15.34975,-135.77404 l 0,-44.62504 140.52138,0 0,209.35788 26.90162,0 0,77.69819 -26.90162,0 0,-50.79658 -167.422999,0 0,50.79658 -26.901617,0 0,-77.69819 11.235381,0 z"
       style="font-style:normal;font-variant:normal;font-weight:500;font-stretch:normal;font-size:324.08535767px;font-family:'Unifont Upper';-inkscape-font-specification:'Unifont Upper Medium';fill:#ffffff;fill-opacity:1"
       id="path4230-6-9-4"
       inkscape:connector-curvature="0" />
  </g>
  <g
     transform="matrix(-0.14210194,-0.26165034,0.2232527,-0.13702405,2063.7007,542.63013)"
     style="font-style:normal;font-variant:normal;font-weight:bold;font-stretch:normal;font-size:184.28826904px;line-height:125%;font-family:'Times New Roman';-inkscape-font-specification:'Times New Roman';text-align:center;letter-spacing:0px;word-spacing:0px;writing-mode:lr-tb;text-anchor:middle;opacity:0.07;fill:#ffffff;fill-opacity:1;stroke:none;stroke-width:1px;stroke-linecap:butt;stroke-linejoin:miter;stroke-opacity:1"
     id="text4492-2-5-2-7-3-5">
    <path
       d="m 254.16389,70.945687 0,28.36312 Q 237.60674,91.39017 222.92127,87.502839 208.2358,83.615507 194.55815,83.615507 q -23.75591,0 -36.71368,9.214415 -12.8138,9.214418 -12.8138,26.203488 0,14.25355 8.49454,21.59629 8.63851,7.19876 32.5384,11.66199 l 17.56498,3.59938 q 32.5384,6.19094 47.94375,21.88424 15.54932,15.54932 15.54932,41.75281 0,31.24263 -21.02038,47.36785 -20.87641,16.12523 -61.33345,16.12523 -15.26137,0 -32.5384,-3.45541 -17.13305,-3.4554 -35.56188,-10.22224 l 0,-29.94685 q 17.70895,9.93429 34.69803,14.97343 16.98908,5.03913 33.40225,5.03913 24.90772,0 38.44139,-9.79031 13.53367,-9.79032 13.53367,-27.9312 0,-15.83727 -9.79032,-24.76374 -9.64634,-8.92646 -31.81852,-13.38969 l -17.70895,-3.45541 q -32.53841,-6.47888 -47.0799,-20.30051 -14.5415,-13.82162 -14.5415,-38.44138 0,-28.507098 20.01256,-44.920274 20.15653,-16.413176 55.43046,-16.413176 15.1174,0 30.8107,2.735529 15.6933,2.73553 32.10647,8.206588 z M 176.56124,43.446419 146.18247,5.1490082 l 20.01256,0 23.89989,25.6275908 23.89988,-25.6275908 20.01256,0 -30.37877,38.2974108 -27.06735,0 z"
       style="font-style:normal;font-variant:normal;font-weight:500;font-stretch:normal;font-size:294.86126709px;font-family:'Unifont Upper';-inkscape-font-specification:'Unifont Upper Medium';fill:#ffffff;fill-opacity:1"
       id="path4233-3-6-5"
       inkscape:connector-curvature="0" />
  </g>
</svg>
