<?xml version="1.0" encoding="UTF-8" standalone="no"?>
<svg
   xmlns:dc="http://purl.org/dc/elements/1.1/"
   xmlns:cc="http://creativecommons.org/ns#"
   xmlns:rdf="http://www.w3.org/1999/02/22-rdf-syntax-ns#"
   xmlns:svg="http://www.w3.org/2000/svg"
   xmlns="http://www.w3.org/2000/svg"
   xmlns:sodipodi="http://sodipodi.sourceforge.net/DTD/sodipodi-0.dtd"
   xmlns:inkscape="http://www.inkscape.org/namespaces/inkscape"
   version="1.0"
   width="260"
   height="260"
   viewBox="0 0 2600 2599.9999"
   preserveAspectRatio="xMidYMid meet"
   id="svg2"
   inkscape:version="0.91 r13725"
   sodipodi:docname="unitex.svg"
   inkscape:export-filename="/home/adverick/Projects/Prj-UnitexGramlab/UnitexWebFlat/unitexgramlab-org/user/themes/unitexgramlab/images/favicon.png"
   inkscape:export-xdpi="11.076923"
   inkscape:export-ydpi="11.076923">
  <metadata
     id="metadata49">
    <rdf:RDF>
      <cc:Work
         rdf:about="">
        <dc:format>image/svg+xml</dc:format>
        <dc:type
           rdf:resource="http://purl.org/dc/dcmitype/StillImage" />
        <dc:title></dc:title>
      </cc:Work>
    </rdf:RDF>
  </metadata>
  <defs
     id="defs47" />
  <sodipodi:namedview
     pagecolor="#ffffff"
     bordercolor="#666666"
     borderopacity="1"
     objecttolerance="10"
     gridtolerance="10"
     guidetolerance="10"
     inkscape:pageopacity="0"
     inkscape:pageshadow="2"
     inkscape:window-width="1366"
     inkscape:window-height="706"
     id="namedview45"
     showgrid="false"
     inkscape:zoom="1.4142136"
     inkscape:cx="-18.298465"
     inkscape:cy="98.117252"
     inkscape:window-x="0"
     inkscape:window-y="37"
     inkscape:window-maximized="1"
     inkscape:current-layer="svg2"
     fit-margin-top="10"
     fit-margin-left="10"
     fit-margin-right="10"
     fit-margin-bottom="10"
     inkscape:snap-global="false" />
  <text
     sodipodi:linespacing="125%"
     id="text4775"
     y="957.33655"
     x="2273.2627"
     style="font-style:normal;font-variant:normal;font-weight:bold;font-stretch:normal;font-size:500px;line-height:125%;font-family:'Times New Roman';-inkscape-font-specification:'Times New Roman';text-align:center;letter-spacing:0px;word-spacing:0px;writing-mode:lr-tb;text-anchor:middle;fill:#000000;fill-opacity:1;stroke:none;stroke-width:1px;stroke-linecap:butt;stroke-linejoin:miter;stroke-opacity:1"
     xml:space="preserve"><tspan
       y="957.33655"
       x="2273.2627"
       id="tspan4777"
       sodipodi:role="line" /></text>
  <flowRoot
     style="font-style:normal;font-variant:normal;font-weight:bold;font-stretch:normal;font-size:50px;line-height:125%;font-family:'Times New Roman';-inkscape-font-specification:'Times New Roman';text-align:center;letter-spacing:0px;word-spacing:0px;writing-mode:lr-tb;text-anchor:middle;fill:#000000;fill-opacity:1;stroke:none;stroke-width:1px;stroke-linecap:butt;stroke-linejoin:miter;stroke-opacity:1"
     id="flowRoot5602"
     xml:space="preserve"
     transform="translate(24.279429,664.1162)"><flowRegion
       id="flowRegion5604"><rect
         y="659.81329"
         x="-2703.9763"
         height="164.04877"
         width="3320.5735"
         id="rect5606" /></flowRegion><flowPara
       id="flowPara5608" /></flowRoot>  <g
     id="g4195"
     transform="translate(2.3358732e-6,126.99644)">
    <g
       transform="scale(0.98860554,1.0115258)"
       inkscape:transform-center-x="393.25675"
       inkscape:transform-center-y="1810.6854"
       style="font-style:normal;font-variant:normal;font-weight:bold;font-stretch:normal;font-size:1375.18603516px;line-height:125%;font-family:'Times New Roman';-inkscape-font-specification:'Times New Roman';text-align:center;letter-spacing:0px;word-spacing:0px;writing-mode:lr-tb;text-anchor:middle;fill:#cc0000;fill-opacity:1;stroke:none;stroke-width:1px;stroke-linecap:butt;stroke-linejoin:miter;stroke-opacity:1"
       id="text5270-0">
      <path
         d="m 1729.7091,801.7532 q -75.6353,272.2868 -118.266,453.8114 -46.7564,199.402 -46.7564,246.1583 0,46.7563 50.8819,46.7563 35.7549,0 99.0134,-5.5007 l -28.8789,34.3796 q -147.1449,24.7534 -209.0283,24.7534 -38.5052,0 -38.5052,-22.003 0,-13.7519 11.0015,-68.7593 -218.6546,89.3871 -330.0446,89.3871 -151.2705,0 -151.2705,-159.5216 0,-180.1494 224.1553,-532.19699 -66.0089,-26.12853 -129.2675,-26.12853 -64.63371,0 -108.63966,33.00446 -49.5067,37.13003 -49.5067,99.01336 0,48.1315 46.75632,136.1435 l -92.13746,74.26 q -39.8804,-92.1375 -39.8804,-133.393 0,-66.009 53.63226,-144.39458 99.01339,-143.01935 275.03724,-143.01935 -2.7504,0 105.8893,15.12705 17.8774,-8.25112 56.3826,-23.37816 l 8.2511,11.00149 q -93.5126,126.51711 -159.5215,275.03725 -78.3856,176.0238 -78.3856,305.2913 0,67.3841 30.254,110.0148 33.0045,48.1315 97.6383,48.1315 97.6382,0 243.4079,-79.7607 4.1255,-12.3767 23.3781,-88.012 L 1581.189,953.02367 q 8.2511,-31.62928 22.0029,-93.51266 -78.3856,-5.50074 -88.0119,-1.37518 l 37.1301,-34.37965 q 59.133,-6.87593 177.399,-22.00298 z"
         style="font-style:italic;font-variant:normal;font-weight:normal;font-stretch:normal;font-family:'Chancery Uralic';-inkscape-font-specification:'Chancery Uralic Italic';fill:#cc0000;fill-opacity:1"
         id="path4224" />
    </g>
    <g
       style="fill:#2e3436;stroke:none"
       id="g4701"
       transform="translate(278.68987,1341.9932)">
      <path
         style="fill:#2e3436;stroke:none"
         id="path43-3"
         d="m 1589.6069,-463.00332 c -19.8173,-6.16277 -43.8812,-30.81384 -55.2051,-53.92424 -25.4794,-60.08702 -2.8311,-112.47058 58.0358,-129.4182 25.4793,-6.16276 48.1276,-24.65108 50.9585,-38.51732 4.2465,-21.56969 -7.0776,-26.19178 -66.5291,-26.19178 -39.6342,0 -72.191,-6.16276 -72.191,-15.40692 0,-9.24415 87.7616,-15.40693 233.5593,-15.40693 145.7975,0 233.5594,6.16278 233.5594,15.40693 0,9.24416 -12.7396,15.40692 -28.3101,15.40692 -25.4794,0 -28.3103,10.78485 -28.3103,130.95889 0,106.3078 -4.2466,130.95889 -21.2325,130.95889 -11.3244,0 -21.2327,-12.32555 -21.2327,-26.19178 0,-18.4883 -11.3245,-27.73247 -35.3878,-29.27316 -42.4655,-3.08139 -77.8533,-32.35455 -77.8533,-61.62771 0,-12.32554 9.9087,-21.56969 21.2327,-21.56969 11.3242,0 21.2328,-10.78486 21.2328,-23.1104 0,-18.48832 -21.2328,-23.11038 -103.3324,-23.11038 -113.2408,0 -137.3046,13.86621 -137.3046,77.03462 0,47.76147 24.0638,77.03465 60.867,77.03465 18.4016,0 24.0637,-7.70347 18.4016,-24.65109 -9.9088,-26.19178 12.7396,-83.1974 33.9724,-83.1974 14.1551,0 56.6202,43.13939 56.6202,60.087 0,49.30218 -77.853,84.73811 -141.5508,64.7091 z m 110.4098,-60.087 c 2.831,-23.1104 -2.831,-33.89526 -16.9861,-33.89526 -15.5707,0 -22.6482,13.86625 -22.6482,40.05802 0,47.76147 32.5568,43.13939 39.6343,-6.16276 z m 172.6924,-95.52297 0,-92.44157 -92.0084,0 c -72.1909,0 -92.0081,4.62209 -92.0081,23.1104 0,16.94762 15.5704,23.11039 53.7892,23.11039 29.7258,0 66.5292,9.24415 80.6842,21.5697 22.6482,18.48832 24.0636,24.65108 8.4932,46.22078 -9.9088,13.86624 -28.3103,24.65108 -39.6343,24.65108 -18.4017,0 -18.4017,4.62208 -4.2465,23.1104 9.9085,12.32554 32.5567,23.11038 50.9584,23.11038 32.5567,0 33.9723,-4.62207 33.9723,-92.44156 z"
         inkscape:connector-curvature="0" />
      <g
         transform="scale(0.96134407,1.0402103)"
         style="font-style:normal;font-variant:normal;font-weight:bold;font-stretch:normal;font-size:268.22595215px;line-height:125%;font-family:'Times New Roman';-inkscape-font-specification:'Times New Roman';text-align:center;letter-spacing:0px;word-spacing:0px;writing-mode:lr-tb;text-anchor:middle;fill:#2e3436;fill-opacity:1;stroke:none;stroke-width:1px;stroke-linecap:butt;stroke-linejoin:miter;stroke-opacity:1"
         id="text4492-2-5">
        <path
           d="m 309.49305,-727.30666 q 0,29.96587 14.87816,47.1491 14.87816,16.97368 40.86256,16.97368 25.77484,0 40.44345,-17.18323 14.87817,-17.18323 14.87817,-46.93955 0,-29.33722 -15.08772,-46.52045 -15.08771,-17.39278 -40.653,-17.39278 -25.35574,0 -40.44346,17.18323 -14.87816,17.18323 -14.87816,46.73 z m 114.20561,62.65592 q -12.5731,16.13547 -28.91812,23.88888 -16.13547,7.54386 -37.71928,7.54386 -36.04287,0 -58.67444,-25.9844 -22.42202,-26.19395 -22.42202,-68.10426 0,-41.91031 22.63157,-68.10426 22.63157,-26.19395 58.46489,-26.19395 21.58381,0 37.92883,7.96296 16.34503,7.75341 28.70857,23.67933 l 0,-27.45126 29.96587,0 0,154.22996 q 30.59453,-4.61013 47.77776,-27.87036 17.39278,-23.46977 17.39278,-60.5604 0,-22.42202 -6.70565,-42.11987 -6.4961,-19.69785 -19.9074,-36.46197 -21.79336,-27.45126 -53.2261,-41.91032 -31.22318,-14.66861 -68.10426,-14.66861 -25.77484,0 -49.45417,6.9152 -23.67933,6.70565 -43.79628,20.11696 -32.89959,21.37426 -51.54968,56.15982 -18.44054,34.57601 -18.44054,75.01946 0,33.3187 11.94444,62.44637 12.15399,29.12767 34.99511,51.34013 22.00291,21.79337 50.92103,33.10915 28.91812,11.52534 61.81772,11.52534 27.03215,0 53.01654,-9.22027 26.19395,-9.01072 47.98731,-25.9844 l 18.85965,23.26023 q -26.19395,20.3265 -57.20758,31.01363 -30.80409,10.89668 -62.65592,10.89668 -38.76705,0 -73.1335,-13.8304 -34.36646,-13.62085 -61.18906,-39.8148 -26.8226,-26.19395 -40.86256,-60.5604 -14.03995,-34.57601 -14.03995,-74.18126 0,-38.13839 14.2495,-72.7144 14.24951,-34.57601 40.65301,-60.76995 27.03215,-26.61305 62.44637,-40.65301 35.41421,-14.2495 75.01946,-14.2495 44.42493,0 82.35377,18.23098 38.13838,18.23099 63.91323,51.75924 15.71636,20.53606 23.88888,44.63449 8.38206,24.09843 8.38206,49.87327 0,55.11206 -33.3187,86.9639 -33.3187,31.85184 -91.99314,33.10915 l 0,-32.27094 z"
           style="font-style:normal;font-variant:normal;font-weight:500;font-stretch:normal;font-size:429.16162109px;font-family:'Unifont Upper';-inkscape-font-specification:'Unifont Upper Medium';fill:#2e3436"
           id="path4227" />
      </g>
      <g
         transform="scale(1.0296616,0.97119287)"
         style="font-style:normal;font-variant:normal;font-weight:bold;font-stretch:normal;font-size:202.55328369px;line-height:125%;font-family:'Times New Roman';-inkscape-font-specification:'Times New Roman';text-align:center;letter-spacing:0px;word-spacing:0px;writing-mode:lr-tb;text-anchor:middle;fill:#2e3436;fill-opacity:1;stroke:none;stroke-width:1px;stroke-linecap:butt;stroke-linejoin:miter;stroke-opacity:1"
         id="text4492-2-5-5">
        <path
           d="m 126.70287,-241.14203 104.44157,0 0,-182.45626 -76.74873,0 0,33.5479 q 0,78.96415 -17.72342,131.34318 -3.63963,10.76065 -9.96942,17.56518 z m -46.682215,0 q 21.204805,-9.96943 27.218105,-28.9588 15.34975,-48.7394 15.34975,-135.77404 l 0,-44.62504 140.52138,0 0,209.35788 26.90162,0 0,77.69819 -26.90162,0 0,-50.79658 -167.422999,0 0,50.79658 -26.901617,0 0,-77.69819 11.235381,0 z"
           style="font-style:normal;font-variant:normal;font-weight:500;font-stretch:normal;font-size:324.08535767px;font-family:'Unifont Upper';-inkscape-font-specification:'Unifont Upper Medium';fill:#2e3436"
           id="path4230" />
      </g>
      <g
         transform="scale(1.0499822,0.9523971)"
         style="font-style:normal;font-variant:normal;font-weight:bold;font-stretch:normal;font-size:184.28826904px;line-height:125%;font-family:'Times New Roman';-inkscape-font-specification:'Times New Roman';text-align:center;letter-spacing:0px;word-spacing:0px;writing-mode:lr-tb;text-anchor:middle;fill:#2e3436;fill-opacity:1;stroke:none;stroke-width:1px;stroke-linecap:butt;stroke-linejoin:miter;stroke-opacity:1"
         id="text4492-2-5-2">
        <path
           d="m 254.16389,70.945687 0,28.36312 Q 237.60674,91.39017 222.92127,87.502839 208.2358,83.615507 194.55815,83.615507 q -23.75591,0 -36.71368,9.214415 -12.8138,9.214418 -12.8138,26.203488 0,14.25355 8.49454,21.59629 8.63851,7.19876 32.5384,11.66199 l 17.56498,3.59938 q 32.5384,6.19094 47.94375,21.88424 15.54932,15.54932 15.54932,41.75281 0,31.24263 -21.02038,47.36785 -20.87641,16.12523 -61.33345,16.12523 -15.26137,0 -32.5384,-3.45541 -17.13305,-3.4554 -35.56188,-10.22224 l 0,-29.94685 q 17.70895,9.93429 34.69803,14.97343 16.98908,5.03913 33.40225,5.03913 24.90772,0 38.44139,-9.79031 13.53367,-9.79032 13.53367,-27.9312 0,-15.83727 -9.79032,-24.76374 -9.64634,-8.92646 -31.81852,-13.38969 l -17.70895,-3.45541 q -32.53841,-6.47888 -47.0799,-20.30051 -14.5415,-13.82162 -14.5415,-38.44138 0,-28.507098 20.01256,-44.920274 20.15653,-16.413176 55.43046,-16.413176 15.1174,0 30.8107,2.735529 15.6933,2.73553 32.10647,8.206588 z M 176.56124,43.446419 146.18247,5.1490082 l 20.01256,0 23.89989,25.6275908 23.89988,-25.6275908 20.01256,0 -30.37877,38.2974108 -27.06735,0 z"
           style="font-style:normal;font-variant:normal;font-weight:500;font-stretch:normal;font-size:294.86126709px;font-family:'Unifont Upper';-inkscape-font-specification:'Unifont Upper Medium';fill:#2e3436"
           id="path4233" />
      </g>
      <g
         transform="scale(1.0104211,0.98968638)"
         style="font-style:normal;font-variant:normal;font-weight:bold;font-stretch:normal;font-size:195.77371216px;line-height:125%;font-family:'Times New Roman';-inkscape-font-specification:'Times New Roman';text-align:center;letter-spacing:0px;word-spacing:0px;writing-mode:lr-tb;text-anchor:middle;fill:#2e3436;fill-opacity:1;stroke:none;stroke-width:1px;stroke-linecap:butt;stroke-linejoin:miter;stroke-opacity:1"
         id="text4492-2-5-35">
        <path
           d="m 688.82416,-916.48761 q -34.10746,0 -47.261,7.80036 -13.15355,7.80036 -13.15355,26.613 0,14.98892 9.78868,23.85992 9.94164,8.71805 26.9189,8.71805 23.40108,0 37.47232,-16.51841 14.22418,-16.67136 14.22418,-44.20204 l 0,-6.27088 -27.98953,0 z m 56.13201,-11.62407 0,97.73393 -28.14248,0 0,-26.0012 q -9.63574,15.60072 -24.01287,23.09519 -14.37714,7.34151 -35.1781,7.34151 -26.3071,0 -41.90782,-14.68303 -15.44777,-14.83598 -15.44777,-39.61359 0,-28.90722 19.27148,-43.59025 19.42443,-14.68304 57.81443,-14.68304 l 39.46065,0 0,-2.75306 q 0,-19.42443 -12.84765,-29.97786 -12.6947,-10.70638 -35.78989,-10.70638 -14.68303,0 -28.60132,3.51781 -13.91829,3.51781 -26.76594,10.55343 l 0,-26.0012 q 15.44777,-5.96498 29.97785,-8.87098 14.53008,-3.059 28.29543,-3.059 37.16642,0 55.52021,19.27149 18.35379,19.27148 18.35379,58.42623 z m -49.40228,-135.35922 q 0,-9.6357 -6.72973,-16.3654 -6.72972,-6.7298 -16.51841,-6.7298 -9.94163,0 -16.67136,6.7298 -6.57677,6.5767 -6.57677,16.3654 0,9.9417 6.57677,16.6714 6.72973,6.5768 16.67136,6.5768 9.78869,0 16.51841,-6.7298 6.72973,-6.7297 6.72973,-16.5184 z m 18.65968,0 q 0,17.5891 -12.23586,29.8249 -12.08291,12.2359 -29.67196,12.2359 -17.58905,0 -29.82491,-12.2359 -12.08291,-12.2358 -12.08291,-29.8249 0,-17.589 12.08291,-29.6719 12.23586,-12.2359 29.82491,-12.2359 17.58905,0 29.67196,12.2359 12.23586,12.0829 12.23586,29.6719 z"
           style="font-style:normal;font-variant:normal;font-weight:500;font-stretch:normal;font-size:313.23800659px;font-family:'Unifont Upper';-inkscape-font-specification:'Unifont Upper Medium';fill:#2e3436"
           id="path4236" />
      </g>
      <g
         transform="scale(1.0378544,0.9635263)"
         style="font-style:normal;font-variant:normal;font-weight:bold;font-stretch:normal;font-size:430.631073px;line-height:125%;font-family:'Times New Roman';-inkscape-font-specification:'Times New Roman';text-align:center;letter-spacing:0px;word-spacing:0px;writing-mode:lr-tb;text-anchor:middle;fill:#2e3436;fill-opacity:1;stroke:none;stroke-width:1px;stroke-linecap:butt;stroke-linejoin:miter;stroke-opacity:1"
         id="text4492-2-5-9">
        <path
           d="m 844.19174,-1185.8699 c 10.50895,0 19.91169,8.02 19.91169,19.9117 0,10.509 -8.01999,19.9117 -19.91169,19.9117 -10.50896,0 -19.9117,-8.02 -19.9117,-19.9117 0,-10.5089 8.01999,-19.9117 19.9117,-19.9117 z m 232.30316,304.20653 c 31.2503,0 56.4165,-24.88962 56.4165,-56.41648 0,-35.67512 -29.3145,-53.65096 -45.3545,-53.92751 l 0,-227.60174 -50.0558,0 0,228.98449 c -52.26817,11.89171 -94.58053,30.6972 -126.93704,56.13993 l 0,-219.02872 c 0,-34.0158 -20.74135,-68.8613 -66.37232,-68.8613 -31.25031,0 -56.41648,24.8897 -56.41648,56.4165 0,31.2503 24.88962,56.4165 56.41648,56.4165 9.67929,0 14.65722,-0.2765 14.93377,-0.8296 l 0,223.1769 50.6089,0 c 44.80132,-30.1441 81.58265,-48.11993 110.34399,-53.65096 0,37.05788 27.102,59.18199 56.4165,59.18199 z m 0,-76.32818 c 10.5089,0 19.9117,8.01999 19.9117,19.9117 0,10.50895 -8.02,19.9117 -19.9117,19.9117 -10.509,0 -19.9117,-8.01999 -19.9117,-19.9117 0,-10.50895 8.02,-19.9117 19.9117,-19.9117 z"
           style="font-style:normal;font-variant:normal;font-weight:500;font-stretch:normal;font-size:566.37719727px;font-family:'Unifont Upper';-inkscape-font-specification:'Unifont Upper Medium';fill:#2e3436"
           id="path4239" />
      </g>
      <g
         transform="scale(1.0078786,0.99218299)"
         style="font-style:normal;font-variant:normal;font-weight:bold;font-stretch:normal;font-size:256.13851929px;line-height:125%;font-family:'Times New Roman';-inkscape-font-specification:'Times New Roman';text-align:center;letter-spacing:0px;word-spacing:0px;writing-mode:lr-tb;text-anchor:middle;fill:#2e3436;fill-opacity:1;stroke:none;stroke-width:1px;stroke-linecap:butt;stroke-linejoin:miter;stroke-opacity:1"
         id="text4492-2-5-3">
        <path
           d="m 574.88449,598.78613 0,35.61927 -120.06496,0 0,-35.61927 q 35.41917,-19.41051 55.22988,-52.62848 19.81072,-33.21797 19.81072,-73.63984 0,-48.02598 -26.41429,-77.04168 -26.41429,-29.01569 -69.63767,-29.01569 -43.22339,0 -69.83779,29.2158 -26.41429,29.0157 -26.41429,76.84157 0,40.42187 19.81072,73.63984 20.01083,33.21797 55.6301,52.62848 l 0,35.61927 -120.06496,0 0,-35.61927 63.83454,0 q -31.61711,-27.81505 -46.22501,-57.63118 -14.4078,-29.81613 -14.4078,-66.63605 0,-63.63443 38.42079,-103.05576 38.22068,-39.42133 99.2537,-39.42133 60.6328,0 99.25369,39.42133 38.42079,39.22122 38.42079,101.05467 0,38.82101 -14.20769,68.43703 -14.20768,29.61602 -46.42511,57.83129 l 64.03464,0 z"
           style="font-style:normal;font-variant:normal;font-weight:500;font-stretch:normal;font-size:409.82171631px;font-family:'Unifont Upper';-inkscape-font-specification:'Unifont Upper Medium';fill:#2e3436"
           id="path4242" />
      </g>
      <g
         transform="scale(0.98438315,1.0158646)"
         style="font-style:normal;font-variant:normal;font-weight:bold;font-stretch:normal;font-size:268.8117981px;line-height:125%;font-family:'Times New Roman';-inkscape-font-specification:'Times New Roman';text-align:center;letter-spacing:0px;word-spacing:0px;writing-mode:lr-tb;text-anchor:middle;fill:#2e3436;fill-opacity:1;stroke:none;stroke-width:1px;stroke-linecap:butt;stroke-linejoin:miter;stroke-opacity:1"
         id="text4492-2-5-8">
        <path
           d="m 891.8389,554.94366 -162.96718,0 -3.57016,-10.71048 166.53734,0 0,-95.13419 q 45.15199,0.84004 45.15199,11.3405 0,5.88026 -19.32085,12.39054 l 0,71.40315 114.45506,0 24.9911,-33.18146 q 17.4308,18.27081 30.4513,35.70158 l -4.8302,8.19036 -165.06726,0 0,271.75198 -25.83114,0 0,-271.75198 z m -166.32733,228.91009 -7.35033,-8.61038 q 73.50324,-65.10287 124.7455,-177.66783 34.44152,12.60055 34.44152,20.16089 0,5.88025 -18.48081,7.77034 -47.88211,95.76422 -133.35588,158.34698 z m 354.70563,-13.02057 q -44.522,-29.61131 -85.05374,-77.28341 -33.18146,-38.85171 -58.17257,-83.58369 l 8.19036,-7.35032 q 30.03133,43.68193 74.76335,83.16367 39.9017,35.07154 82.7436,58.80259 -13.8606,10.92048 -22.471,26.25116 z"
           style="font-style:normal;font-variant:normal;font-weight:normal;font-stretch:normal;font-size:430.09896851px;font-family:sans-serif;-inkscape-font-specification:sans-serif;fill:#2e3436"
           id="path4245" />
      </g>
      <g
         transform="scale(0.96007435,1.041586)"
         style="font-style:normal;font-variant:normal;font-weight:bold;font-stretch:normal;font-size:282.61685181px;line-height:125%;font-family:'Times New Roman';-inkscape-font-specification:'Times New Roman';text-align:center;letter-spacing:0px;word-spacing:0px;writing-mode:lr-tb;text-anchor:middle;fill:#2e3436;fill-opacity:1;stroke:none;stroke-width:1px;stroke-linecap:butt;stroke-linejoin:miter;stroke-opacity:1"
         id="text4492-2-5-3-4">
        <path
           d="m 1890.3863,283.14169 -147.4907,-215.937005 48.1332,0 85.4475,125.190475 q 0.8831,-0.66239 2.4287,-1.76636 5.2991,-3.7535 8.1694,-6.18224 2.8703,-2.42874 7.7278,-8.1694 4.8575,-5.74066 7.507,-11.70211 2.6496,-6.18224 4.6367,-16.118 2.2079,-9.93575 2.2079,-22.07944 l 0,-59.172925 40.6262,0 0,40.846975 q 0,16.3388 -1.9871,30.24885 -1.9872,13.68926 -4.8575,23.40421 -2.8703,9.71496 -7.9486,18.32595 -5.0783,8.39019 -9.2734,13.46846 -4.1951,5.07827 -11.0397,10.37734 -6.6238,5.07827 -10.5981,7.50701 -3.9743,2.20795 -10.5982,5.74066 l 57.1858,81.69396 0,15.67641 -207.7676,0 0,-31.35282 147.4907,0 z"
           style="font-style:normal;font-variant:normal;font-weight:500;font-stretch:normal;font-size:452.18710327px;font-family:'Unifont Upper';-inkscape-font-specification:'Unifont Upper Medium';fill:#2e3436"
           id="path4248" />
      </g>
      <g
         transform="scale(1.0771813,0.92834884)"
         style="font-style:normal;font-variant:normal;font-weight:bold;font-stretch:normal;font-size:265.84481812px;line-height:125%;font-family:'Times New Roman';-inkscape-font-specification:'Times New Roman';text-align:center;letter-spacing:0px;word-spacing:0px;writing-mode:lr-tb;text-anchor:middle;fill:#2e3436;fill-opacity:1;stroke:none;stroke-width:1px;stroke-linecap:butt;stroke-linejoin:miter;stroke-opacity:1"
         id="text4492-2">
        <path
           d="m 1179.056,-1186.659 56.4921,0 137.4916,259.40646 0,-259.40646 40.7075,0 0,310.08313 -56.492,0 -137.4917,-259.40643 0,259.40643 -40.7075,0 0,-310.08313 z m 116.5148,-45.069 -11.8384,-6.8538 q -5.1922,-2.9077 -8.5153,-3.9461 -3.1154,-1.2462 -5.6077,-1.2462 -7.4769,0 -11.6307,5.1923 -4.1538,5.1923 -4.1538,14.5384 l 0,1.2461 -25.9614,0 q 0,-20.9768 10.5922,-33.2306 10.8,-12.2538 28.6614,-12.2538 7.4769,0 13.7077,1.6616 6.4384,1.6615 16.4076,7.2692 l 11.8384,6.2307 q 4.7769,2.7 8.3076,3.9461 3.5308,1.2462 6.6462,1.2462 6.6461,0 10.7999,-5.1923 4.1538,-5.4 4.1538,-13.9153 l 0,-1.2462 25.9614,0 q -0.4153,20.7692 -11.2153,33.2307 -10.5922,12.2537 -28.0383,12.2537 -7.0615,0 -13.2923,-1.6615 -6.023,-1.6615 -16.823,-7.2692 z"
           style="font-style:normal;font-variant:normal;font-weight:500;font-stretch:normal;font-size:425.35177612px;font-family:'Unifont Upper';-inkscape-font-specification:'Unifont Upper Medium';fill:#2e3436"
           id="path4251" />
      </g>
      <g
         transform="scale(1.121144,0.89194609)"
         style="font-style:normal;font-variant:normal;font-weight:bold;font-stretch:normal;font-size:276.40148926px;line-height:125%;font-family:'Times New Roman';-inkscape-font-specification:'Times New Roman';text-align:center;letter-spacing:0px;word-spacing:0px;writing-mode:lr-tb;text-anchor:middle;fill:#2e3436;fill-opacity:1;stroke:none;stroke-width:1px;stroke-linecap:butt;stroke-linejoin:miter;stroke-opacity:1"
         id="text4492-2-5-3-4-6">
        <path
           d="m 1522.833,-403.05965 203.8462,0 0,36.70959 -160.2265,0 0,95.44492 153.5324,0 0,36.70959 -153.5324,0 0,116.82286 164.1134,0 0,36.709589 -207.7331,0 0,-322.396549 z m 150.9412,322.396549 25.6967,0 q -9.7172,13.172263 -14.4679,22.673568 -4.5347,9.501305 -4.5347,16.195406 0,9.933183 5.8304,14.899774 6.0463,4.966591 17.7069,4.966591 6.9101,0 13.6042,-1.72751 6.6941,-1.511571 13.3882,-4.750652 l 0,28.7198529 q -8.2057,2.1593875 -15.5476,3.2390812 -7.3419,1.0796937 -13.8201,1.0796937 -26.3445,0 -38.869,-9.5013048 -12.3085,-9.285366 -12.3085,-29.36767 0,-10.365059 5.6144,-21.809813 5.8304,-11.228815 17.707,-24.617017 z"
           style="font-style:normal;font-variant:normal;font-weight:500;font-stretch:normal;font-size:442.24255371px;font-family:'Unifont Upper';-inkscape-font-specification:'Unifont Upper Medium';fill:#2e3436"
           id="path4254" />
      </g>
      <g
         transform="scale(1.0125938,0.98756283)"
         style="font-style:normal;font-variant:normal;font-weight:bold;font-stretch:normal;font-size:334.26885986px;line-height:125%;font-family:'Times New Roman';-inkscape-font-specification:'Times New Roman';text-align:center;letter-spacing:0px;word-spacing:0px;writing-mode:lr-tb;text-anchor:middle;fill:#2e3436;fill-opacity:1;stroke:none;stroke-width:1px;stroke-linecap:butt;stroke-linejoin:miter;stroke-opacity:1"
         id="text4492-2-5-3-0">
        <path
           d="m 1509.1848,663.72862 q -6.2675,46.74542 -28.2039,74.68821 -34.7326,44.39509 -85.1341,60.58624 -20.8918,6.78984 -52.2295,6.78984 -33.4269,-0.26115 -61.892,-7.57328 -71.8156,-18.54148 -71.8156,-104.19789 0,-64.2423 27.4205,-111.24887 l 48.0512,0 q -28.204,53.7964 -27.9428,111.24887 0.2611,46.74542 38.6498,56.66903 24.809,6.26754 45.962,6.26754 25.5925,0 50.4015,-9.66246 31.5988,-12.53508 56.1467,-53.7964 16.7134,-28.20394 16.4523,-65.2869 -0.2611,-32.64345 -4.4395,-48.57345 l -16.7135,-61.10854 48.0512,0 9.4013,40.73903 q 4.1784,19.32492 11.4905,34.99377 15.4077,33.68804 45.4397,33.68804 21.4141,0 32.9046,-31.86 9.6624,-26.8982 9.6624,-77.56084 l 48.0512,0 q 0,53.53526 4.9618,66.59264 16.7135,44.13394 45.4397,44.13394 37.0829,0 37.0829,-73.12132 l 0,-76.7774 48.0512,0 0,89.31248 q 0,51.96837 -24.0256,81.47805 -19.586,24.02558 -46.2231,30.29312 -9.6625,2.35033 -18.0192,2.35033 -19.0638,0 -31.5988,-6.52869 -36.0384,-18.28033 -40.4779,-50.40149 -12.7962,41.52247 -37.6053,49.3569 -13.0574,3.91721 -31.3377,4.70065 -34.4715,1.56689 -45.962,-16.19115 z m 25.8537,-301.88661 39.1721,0 0,39.17214 -39.1721,0 0,-39.17214 z m 32.6434,65.2869 39.1721,0 0,39.17214 -39.1721,0 0,-39.17214 z m -65.2869,0 39.1721,0 0,39.17214 -39.1721,0 0,-39.17214 z"
           style="font-style:normal;font-variant:normal;font-weight:500;font-stretch:normal;font-size:534.83026123px;font-family:'Unifont Upper';-inkscape-font-specification:'Unifont Upper Medium';fill:#2e3436"
           id="path4257" />
      </g>
    </g>
  </g>
  <text
     sodipodi:linespacing="125%"
     id="text4165-5"
     y="2626.3818"
     x="1329.8669"
     style="font-style:normal;font-variant:normal;font-weight:bold;font-stretch:normal;font-size:181.6257019px;line-height:125%;font-family:'Times New Roman';-inkscape-font-specification:'Times New Roman';text-align:center;letter-spacing:0px;word-spacing:0px;writing-mode:lr-tb;text-anchor:middle;fill:#2e3436;fill-opacity:1;stroke:none;stroke-width:1px;stroke-linecap:butt;stroke-linejoin:miter;stroke-opacity:1"
     xml:space="preserve"><tspan
       style="font-style:normal;font-variant:normal;font-weight:normal;font-stretch:normal;font-family:Aroania;-inkscape-font-specification:Aroania;fill:#2e3436"
       y="2626.3818"
       x="1329.8669"
       id="tspan4167-8"
       sodipodi:role="line" /></text>
</svg>
